<svg xmlns="http://www.w3.org/2000/svg" width="66" height="62" viewBox="0 0 66 62">
    <g fill="#E00A1E" fill-rule="evenodd" stroke="#E00A1E" stroke-width=".6">
        <path d="M27.82 33.574h32.344v-2.58H27.82v2.58zm33.032 1.376h-33.72a.688.688 0 0 1-.688-.688v-3.957c0-.38.308-.688.688-.688h33.72c.38 0 .688.308.688.688v3.957c0 .38-.308.688-.688.688zM27.769 18.064c2.174.295 9.894 1.287 15.38 1.287 5.553 0 14.562-1.015 16.963-1.298V2.64c-2.156.66-7.934 2.145-16.275 2.145-8.302 0-13.941-1.47-16.068-2.137v15.416zm15.38 2.664c-6.512 0-16.071-1.37-16.167-1.384a.689.689 0 0 1-.59-.68V1.687a.688.688 0 0 1 .935-.642c.062.023 6.286 2.363 16.51 2.363 10.252 0 16.66-2.342 16.723-2.366a.686.686 0 0 1 .929.645v16.975c0 .348-.26.64-.604.683-.111.014-11.232 1.382-17.736 1.382zM16.357 47.342a.688.688 0 0 1-.173-1.354l4.273-1.117-2.437-9.321-4.52 1.18a.688.688 0 1 1-.348-1.331l5.186-1.355a.685.685 0 0 1 .84.492l2.784 10.653a.688.688 0 0 1-.492.84l-4.938 1.29a.696.696 0 0 1-.175.023"/>
        <path d="M2.593 59.652H18.81l-7.366-27.223h-1.301L2.593 59.652zm17.122 1.376H1.688a.688.688 0 0 1-.663-.872l7.93-28.599a.688.688 0 0 1 .664-.504h2.35c.312 0 .584.208.665.508l7.714 28.508a.688.688 0 0 1-.633.96zM23.811 29.98a.688.688 0 0 1-.688-.688V17.25a.688.688 0 0 1 1.376 0v12.043c0 .38-.308.688-.688.688M64.07 30.669a.688.688 0 0 1-.689-.689V17.937a.688.688 0 0 1 1.376 0V29.98c0 .38-.308.689-.688.689M55.588 58.367a.688.688 0 0 1-.478-.193L30.852 34.777a.688.688 0 1 1 .956-.99l24.258 23.397a.688.688 0 0 1-.478 1.183"/>
        <path d="M31.33 58.367a.687.687 0 0 1-.478-1.183L55.11 33.786a.689.689 0 0 1 .956.99L31.808 58.175a.688.688 0 0 1-.478.193M18.082 56.819H3.287a.688.688 0 0 1 0-1.376h14.795a.688.688 0 0 1 0 1.376"/>
    </g>
</svg>
