<svg xmlns="http://www.w3.org/2000/svg" width="66" height="64" viewBox="0 0 66 64">
    <g fill="#E00A1E" fill-rule="evenodd" stroke="#E00A1E" stroke-width=".2">
        <path d="M46.24 57.21a.853.853 0 0 1-.791-.532l-14.68-36.045a.853.853 0 0 1 1.581-.644l14.68 36.045a.853.853 0 0 1-.79 1.176M5.006 57.21a.854.854 0 0 1-.8-1.153L25.067.285l4.27 12.305a.853.853 0 0 1-1.613.56l-2.717-7.832-19.2 51.337a.854.854 0 0 1-.8.555"/>
        <path d="M60.414 57.21a.853.853 0 0 1-.79-.532l-11.717-28.77-6.285 15.435a.853.853 0 1 1-1.58-.644l7.865-19.316 13.297 32.651a.853.853 0 0 1-.79 1.176M28.718 14.288a2.511 2.511 0 0 0-2.508 2.508 2.511 2.511 0 0 0 2.508 2.509h14.407a5.235 5.235 0 0 0 5.23-5.23 5.228 5.228 0 1 0-9.57-2.916l-.535.792-.727-.62a3.71 3.71 0 0 0-2.402-.885 3.693 3.693 0 0 0-3.701 3.575l-.055 1.517-1.267-.835a2.5 2.5 0 0 0-1.38-.415m14.407 6.723H28.718a4.22 4.22 0 0 1-4.215-4.215 4.22 4.22 0 0 1 5.39-4.048 5.39 5.39 0 0 1 5.228-4.009c.984 0 1.945.27 2.781.772a6.929 6.929 0 0 1 5.223-2.373c3.825 0 6.936 3.112 6.936 6.937a6.944 6.944 0 0 1-6.936 6.936M23.009 39.721l-3.566-11.664-2.982 2.825c-.343.324-2.102 2.193-2.102 2.193s.586-3.108.928-3.432l4.983-4.719 2.915 9.537 3.843-10.094 3.693 6.67 2.254-4.807a.853.853 0 0 1 1.545.725l-3.673 7.833-3.532-6.378L23.01 39.72z"/>
        <path d="M50.145 47.403L46.11 39.14l-3.351 4.723-.952 1.3s-.713-1.903-.44-2.288l5.015-7.068 3.456 7.077 1.897-5.755a.854.854 0 0 1 1.62.535l-3.21 9.739zM64.124 57.617H1.854a.853.853 0 1 1 0-1.706h62.27a.853.853 0 1 1 0 1.706M64.124 63.122H1.854a.853.853 0 1 1 0-1.707h62.27a.853.853 0 1 1 0 1.707M55.5 22.914c-.957 0-1.735.778-1.735 1.735 0 .956.778 1.733 1.734 1.733h5.247a2.528 2.528 0 0 0 2.525-2.525 2.528 2.528 0 0 0-2.525-2.525 2.525 2.525 0 0 0-2.437 1.877l-.423 1.59-1.056-1.262a1.73 1.73 0 0 0-1.33-.623m5.246 5.175h-5.247a3.445 3.445 0 0 1-3.441-3.44 3.445 3.445 0 0 1 5.093-3.02 4.234 4.234 0 0 1 3.595-2.003 4.237 4.237 0 0 1 4.231 4.231 4.236 4.236 0 0 1-4.231 4.232"/>
    </g>
</svg>
