<svg xmlns="http://www.w3.org/2000/svg" width="55" height="50" viewBox="0 0 55 50">
    <path fill="#E00A1E" fill-rule="evenodd" d="M22.5 50a8.994 8.994 0 0 1-1.954-.217 8.95 8.95 0 0 1-4.543-2.56 8.9 8.9 0 0 1-4.941-1.632 8.997 8.997 0 0 1-3.221-4.11 8.958 8.958 0 0 1-3.945-3.411 9.026 9.026 0 0 1-1.41-5.033 9.006 9.006 0 0 1-2.347-4.669 9.044 9.044 0 0 1 .614-5.194 9.02 9.02 0 0 1-.388-5.216 9 9 0 0 1 2.547-4.563 9.02 9.02 0 0 1 1.626-4.967 9.003 9.003 0 0 1 2.916-2.672 8.988 8.988 0 0 1 3.554-4.348 9.038 9.038 0 0 1 7.69-.947c.429.143.7.57.648 1.021a9.012 9.012 0 0 1-6.842 7.773 9.053 9.053 0 0 1-1.509 3.715 8.995 8.995 0 0 1-2.954 2.695c.3 1.298.313 2.665.017 4.007a9.021 9.021 0 0 1-1.703 3.624A9.043 9.043 0 0 1 7.9 26.994a9.062 9.062 0 0 1-.193 4 9.001 9.001 0 0 1 2.835 2.822 9.038 9.038 0 0 1 1.347 3.774 8.922 8.922 0 0 1 3.693 1.515 9.008 9.008 0 0 1 2.686 2.978 8.938 8.938 0 0 1 9.233 3.37 8.949 8.949 0 0 1 9.232-3.37 8.99 8.99 0 0 1 2.686-2.978 8.922 8.922 0 0 1 3.693-1.515 9.052 9.052 0 0 1 1.348-3.774 9.011 9.011 0 0 1 2.833-2.82 9.066 9.066 0 0 1-.192-4.002 9.025 9.025 0 0 1 1.545-3.698 9.038 9.038 0 0 1-1.704-3.624 9.07 9.07 0 0 1 .02-4.007 8.98 8.98 0 0 1-2.954-2.694 9.04 9.04 0 0 1-1.511-3.717 9.021 9.021 0 0 1-6.84-7.771.962.962 0 0 1 .647-1.022 9.042 9.042 0 0 1 7.693.946 8.983 8.983 0 0 1 3.552 4.35 9.017 9.017 0 0 1 2.914 2.672 9.015 9.015 0 0 1 1.627 4.968 9.017 9.017 0 0 1 2.547 4.562 9.04 9.04 0 0 1-.39 5.216 9.045 9.045 0 0 1 .615 5.194 9.002 9.002 0 0 1-2.345 4.667 9.052 9.052 0 0 1-1.41 5.035 8.98 8.98 0 0 1-3.946 3.41 8.991 8.991 0 0 1-3.222 4.11 8.898 8.898 0 0 1-4.941 1.632A8.953 8.953 0 0 1 32.505 50a9.005 9.005 0 0 1-5.004-1.532A9.005 9.005 0 0 1 22.5 50M37.697 2.07a7.089 7.089 0 0 0 3.093 4.395 7.056 7.056 0 0 0 1.607.76c.041-.649.15-1.296.334-1.935a.963.963 0 0 1 .987-.694c.371.026.737.074 1.097.145a7.113 7.113 0 0 0-1.846-1.712 7.106 7.106 0 0 0-5.272-.959m6.694 4.547a7.113 7.113 0 0 0 1.184 5.251 7.101 7.101 0 0 0 2.035 1.946c.29-.607.65-1.186 1.077-1.727a.954.954 0 0 1 1.177-.262l.1.05a7.126 7.126 0 0 0-1.07-2.342 7.052 7.052 0 0 0-4.503-2.916m5.326 7.335a7.11 7.11 0 0 0-.905 5.304 7.114 7.114 0 0 0 1.138 2.58c.5-.449 1.053-.846 1.654-1.18.396-.222.891-.133 1.258.293a7.136 7.136 0 0 0-.094-2.575 7.084 7.084 0 0 0-3.051-4.422m2.127 8.823a7.082 7.082 0 0 0-2.858 4.552c-.166.95-.14 1.908.068 2.821a9.034 9.034 0 0 1 1.98-.456.956.956 0 0 1 1.017.651l.034.106c.435-.733.74-1.548.892-2.414a7.117 7.117 0 0 0-1.133-5.26m-1.396 8.967a7.053 7.053 0 0 0-4.373 3.107 7.127 7.127 0 0 0-1.013 2.635c.678.038 1.349.15 2.002.339a.961.961 0 0 1 .691.991l-.008.112a7.102 7.102 0 0 0 1.745-1.888 7.119 7.119 0 0 0 .956-5.296M38.576 42.73c.61.29 1.19.652 1.725 1.077a.965.965 0 0 1 .26 1.182l-.05.1a7.034 7.034 0 0 0 2.33-1.072 7.094 7.094 0 0 0 2.902-4.526 7.074 7.074 0 0 0-7.167 3.239M9.26 39.491a7.088 7.088 0 0 0 5.228 5.593l-.047-.094a.966.966 0 0 1 .26-1.183 8.888 8.888 0 0 1 1.724-1.077 7.077 7.077 0 0 0-7.165-3.239m-4.707-7.75a7.115 7.115 0 0 0 .958 5.295 7.106 7.106 0 0 0 1.744 1.89l-.007-.112a.96.96 0 0 1 .69-.991 9.052 9.052 0 0 1 2.002-.339 7.135 7.135 0 0 0-1.012-2.636 7.056 7.056 0 0 0-4.375-3.107m-1.395-8.967a7.112 7.112 0 0 0-1.133 5.26c.151.867.457 1.683.892 2.416l.036-.108a.956.956 0 0 1 1.016-.65 9.023 9.023 0 0 1 1.978.455 7.16 7.16 0 0 0 .07-2.82 7.098 7.098 0 0 0-2.859-4.553m2.127-8.823a7.083 7.083 0 0 0-3.05 4.423 7.16 7.16 0 0 0-.097 2.576c.37-.428.864-.516 1.26-.295.602.335 1.154.732 1.655 1.182.54-.764.93-1.638 1.137-2.581a7.113 7.113 0 0 0-.905-5.305m5.327-7.334a7.058 7.058 0 0 0-4.506 2.915 7.109 7.109 0 0 0-1.067 2.341l.098-.05a.956.956 0 0 1 1.177.263c.428.54.788 1.12 1.079 1.728a7.09 7.09 0 0 0 2.034-1.947 7.116 7.116 0 0 0 1.185-5.25m-.422-1.877c.358-.07.724-.118 1.094-.144a.966.966 0 0 1 .988.694c.181.64.292 1.288.333 1.936a7.088 7.088 0 0 0 4.703-5.156 7.103 7.103 0 0 0-5.271.96 7.094 7.094 0 0 0-1.847 1.71m6.368 40.101a7.052 7.052 0 0 0 4.403 3.065 7.097 7.097 0 0 0 5.279-.909 7.05 7.05 0 0 0-4.401-3.066 7.106 7.106 0 0 0-5.28.91m12.205 2.156a7.076 7.076 0 0 0 3.74 1.08 7.086 7.086 0 0 0 5.94-3.236 7.111 7.111 0 0 0-5.279-.91 7.046 7.046 0 0 0-4.401 3.066m6.257-12.24a.952.952 0 0 1-.563-.183L27.5 29.496l-6.957 5.077a.956.956 0 0 1-1.126 0 .964.964 0 0 1-.347-1.075l2.658-8.217-6.959-5.078a.965.965 0 0 1 .564-1.74h8.6l2.657-8.216a.958.958 0 0 1 .91-.665c.415 0 .782.269.91.665l2.659 8.217h8.599c.415 0 .782.268.91.665a.966.966 0 0 1-.346 1.075l-6.96 5.078 2.658 8.217a.964.964 0 0 1-.91 1.259m-7.52-7.413a.96.96 0 0 1 .563.184l5.136 3.75-1.961-6.068a.962.962 0 0 1 .347-1.074l5.137-3.75h-6.35a.956.956 0 0 1-.91-.664L27.5 13.656l-1.962 6.066a.958.958 0 0 1-.91.664h-6.35l5.138 3.75a.967.967 0 0 1 .347 1.075l-1.962 6.067 5.136-3.75a.958.958 0 0 1 .563-.183"/>
</svg>
