<svg xmlns="http://www.w3.org/2000/svg" width="44" height="64" viewBox="0 0 44 64">
    <g fill="#E00A1E" fill-rule="evenodd" stroke="#E00A1E" stroke-width=".5">
        <path d="M12.327 47.498h19.14c-.083-3.085-.027-6.52.031-10.14.093-5.742.19-11.68-.292-16.424-.528-2.111-1.325-4.253-2.37-6.37-2.098-3.171-4.09-6.173-6.992-8.277-1.82 1.24-3.125 3.022-4.502 4.9-.364.496-.74 1.01-1.124 1.508-2.516 3.813-3.689 7.09-3.689 10.31l-.002.063c-.46 6.03-.338 14.644-.24 21.566.015.992.028 1.951.04 2.864zm20.845 1.66H10.698l-.009-.82c-.012-1.151-.03-2.387-.048-3.68-.099-6.945-.221-15.583.241-21.686.008-3.56 1.274-7.127 3.982-11.223l.035-.049a77.69 77.69 0 0 0 1.119-1.5c1.516-2.07 3.084-4.208 5.421-5.622l.447-.27.434.291c3.43 2.307 5.71 5.754 7.914 9.088l.052.089c1.12 2.258 1.971 4.55 2.532 6.813l.02.116c.498 4.852.401 10.865.307 16.68-.064 3.937-.124 7.656-.005 10.912l.032.861z"/>
        <path d="M1 56.856v-20.3c0-5.26 4.556-9.538 10.157-9.538.455 0 .823.372.823.83 0 .459-.368.83-.823.83-4.692 0-8.51 3.534-8.51 7.877v17.09l8.39-5.995a.82.82 0 0 1 1.148.198.835.835 0 0 1-.196 1.157L1 56.856zM42.807 56.856l-10.989-7.85a.835.835 0 0 1-.196-1.158.82.82 0 0 1 1.148-.198l8.39 5.994V36.555c0-4.343-3.818-7.876-8.51-7.876a.827.827 0 0 1-.823-.83c0-.46.368-.831.823-.831 5.6 0 10.157 4.278 10.157 9.537v20.301z"/>
        <path d="M32.294 45.147h-20.45a.827.827 0 0 1-.824-.83c0-.459.368-.83.823-.83h20.451c.455 0 .824.371.824.83 0 .459-.369.83-.824.83M15 56.91a.827.827 0 0 1-.824-.83v-4.29c0-.458.37-.83.824-.83.455 0 .824.372.824.83v4.29c0 .459-.37.83-.824.83M28.04 56.91a.827.827 0 0 1-.824-.83v-4.29c0-.458.368-.83.823-.83.455 0 .824.372.824.83v4.29c0 .459-.369.83-.824.83M19.392 63a.827.827 0 0 1-.823-.83V51.79c0-.458.368-.83.823-.83.455 0 .824.372.824.83v10.38c0 .458-.369.83-.824.83M23.784 63a.827.827 0 0 1-.823-.83V51.79c0-.458.368-.83.823-.83.455 0 .824.372.824.83v10.38c0 .458-.369.83-.824.83M21.885 20.652c-2.308 0-4.186 1.893-4.186 4.22 0 2.328 1.878 4.222 4.186 4.222s4.186-1.894 4.186-4.221c0-2.328-1.878-4.221-4.186-4.221m0 10.102c-3.216 0-5.833-2.638-5.833-5.881 0-3.243 2.617-5.882 5.833-5.882s5.833 2.639 5.833 5.882-2.617 5.881-5.833 5.881M21.904 6.12a.827.827 0 0 1-.824-.83V1.83c0-.458.369-.83.824-.83.454 0 .823.372.823.83v3.46c0 .459-.369.83-.823.83"/>
    </g>
</svg>
