<svg xmlns="http://www.w3.org/2000/svg" xmlns:xlink="http://www.w3.org/1999/xlink" width="64" height="49" viewBox="0 0 64 49">
    <defs>
        <path id="a" d="M0 .35v44.967h39.654V.35H0z"/>
        <path id="c" d="M.224.159h31.717v16.5H.224V.16z"/>
        <path id="e" d="M5.95.172v4.323H.208V.172h5.74z"/>
    </defs>
    <g fill="none" fill-rule="evenodd">
        <g transform="translate(0 3.419)">
            <mask id="b" fill="#fff">
                <use xlink:href="#a"/>
            </mask>
            <path fill="#E00A1E" d="M22.212 2.735a.284.284 0 0 0-.273.21L20.81 7.166c-.14.518-.606.88-1.142.885-7.805.068-14.666 5.387-16.683 12.932-1.204 4.5-.583 9.2 1.748 13.232a17.326 17.326 0 0 0 10.594 8.12c1.48.396 3 .597 4.517.597 7.875 0 14.798-5.32 16.835-12.94 2.018-7.546-1.273-15.578-8.003-19.533a1.194 1.194 0 0 1-.547-1.337l1.128-4.22a.277.277 0 0 0-.028-.214.275.275 0 0 0-.172-.132l-6.772-1.81a.295.295 0 0 0-.074-.01m-2.366 42.58h-.001c-1.725 0-3.452-.227-5.133-.677A19.694 19.694 0 0 1 2.67 35.41 19.695 19.695 0 0 1 .68 20.367c2.215-8.282 9.562-14.204 18.054-14.672l.9-3.365A2.671 2.671 0 0 1 22.902.44l6.772 1.811a2.652 2.652 0 0 1 1.62 1.242c.357.618.452 1.337.268 2.025l-.9 3.364c7.125 4.644 10.537 13.443 8.323 21.725-2.316 8.66-10.187 14.709-19.14 14.709" mask="url(#b)"/>
        </g>
        <g transform="translate(24.248 .239)">
            <mask id="d" fill="#fff">
                <use xlink:href="#c"/>
            </mask>
            <path fill="#E00A1E" d="M26.828 16.66c-5.017 0-9.586-5.579-13.144-9.924C11.507 4.078 9.46 2.67 7.6 2.552c-2.047-.126-3.861 1.305-5.362 2.726a1.193 1.193 0 0 1-1.64-1.731C2.362 1.877 4.767-.014 7.75.172c2.584.163 5.128 1.816 7.78 5.053 6.31 7.705 10.284 11.032 14.496 7.83a1.193 1.193 0 0 1 1.444 1.9c-1.578 1.198-3.13 1.705-4.642 1.705" mask="url(#d)"/>
        </g>
        <path fill="#E00A1E" d="M55.365 10.448a1.192 1.192 0 0 1-1.192-1.192V5.38a1.193 1.193 0 0 1 2.385 0v3.875c0 .658-.534 1.192-1.193 1.192M55.365 23.73a1.192 1.192 0 0 1-1.192-1.192v-3.875a1.193 1.193 0 0 1 2.385 0v3.875c0 .658-.534 1.192-1.193 1.192M51.29 12.8c-.202 0-.407-.051-.595-.16l-3.355-1.937a1.193 1.193 0 0 1 1.193-2.065l3.355 1.937a1.193 1.193 0 0 1-.598 2.225"/>
        <g transform="translate(58.037 14.947)">
            <mask id="f" fill="#fff">
                <use xlink:href="#e"/>
            </mask>
            <path fill="#E00A1E" d="M4.755 4.495c-.202 0-.407-.052-.595-.16L.805 2.398A1.193 1.193 0 0 1 1.998.332L5.353 2.27a1.193 1.193 0 0 1-.598 2.226" mask="url(#f)"/>
        </g>
        <path fill="#E00A1E" d="M59.44 12.801a1.192 1.192 0 0 1-.598-2.225l3.355-1.938a1.192 1.192 0 1 1 1.193 2.065l-3.355 1.938c-.188.108-.393.16-.595.16M20.683 43.1a1.193 1.193 0 0 1-.11-2.38c4.026-.376 6.944-1.737 8.673-4.045 2.532-3.38 1.714-7.775 1.706-7.82a1.193 1.193 0 0 1 2.34-.465c.043.221 1.042 5.446-2.12 9.691-2.148 2.885-5.64 4.572-10.377 5.014a1.181 1.181 0 0 1-.112.005"/>
    </g>
</svg>
