<svg xmlns="http://www.w3.org/2000/svg" width="64" height="46" viewBox="0 0 64 46">
    <g fill="#E00A1E" fill-rule="evenodd">
        <path d="M50.187 36.01h-.005a1.263 1.263 0 0 1-1.258-1.267c0-.086.03-8.595.024-10.456-.012-3.08 1.151-5.701 3.274-7.382a7.155 7.155 0 0 1 5.302-1.507 7.155 7.155 0 0 1 4.815 2.683 5.977 5.977 0 0 1 1.259 4.428 5.974 5.974 0 0 1-2.241 4.02 5.02 5.02 0 0 1-3.728 1.06 5.03 5.03 0 0 1-3.386-1.886 4.276 4.276 0 0 1-.9-3.169 4.277 4.277 0 0 1 1.603-2.877 1.264 1.264 0 0 1 1.568 1.98 1.77 1.77 0 0 0-.662 1.189c-.055.472.077.936.372 1.308a2.522 2.522 0 0 0 1.696.946 2.522 2.522 0 0 0 1.869-.53 3.467 3.467 0 0 0 1.3-2.333 3.466 3.466 0 0 0-.731-2.568 4.64 4.64 0 0 0-3.126-1.742 4.646 4.646 0 0 0-3.441.978c-2.028 1.605-2.322 4.068-2.317 5.393.007 1.87-.024 10.388-.024 10.474a1.263 1.263 0 0 1-1.263 1.258M13.448 36.42c-.695 0-1.26-.563-1.263-1.26 0-.085-.031-8.603-.024-10.473.005-1.325-.289-3.788-2.316-5.393a4.64 4.64 0 0 0-3.442-.978 4.642 4.642 0 0 0-3.126 1.742 3.492 3.492 0 0 0 .57 4.9c.53.42 1.194.609 1.868.531a2.521 2.521 0 0 0 1.696-.945 1.78 1.78 0 0 0-.29-2.498 1.263 1.263 0 0 1 1.568-1.98 4.309 4.309 0 0 1 .703 6.046 5.029 5.029 0 0 1-3.385 1.886 5.025 5.025 0 0 1-3.729-1.06 6.02 6.02 0 0 1-.981-8.448 7.154 7.154 0 0 1 4.814-2.683 7.159 7.159 0 0 1 5.302 1.507c2.123 1.68 3.286 4.302 3.275 7.382-.008 1.861.023 10.37.023 10.456a1.263 1.263 0 0 1-1.258 1.267h-.005z"/>
        <path d="M49.327 31.534h-35.02a1.263 1.263 0 1 1 0-2.526h35.02a1.263 1.263 0 1 1 0 2.526M50.239 36.376H13.397a1.263 1.263 0 1 1 0-2.526h36.842a1.263 1.263 0 1 1 0 2.526"/>
        <path d="M53.804 42.481H9.832a4.124 4.124 0 0 1-4.12-4.12V26.528a1.263 1.263 0 1 1 2.527 0v11.835c0 .878.714 1.593 1.593 1.593h43.972c.878 0 1.592-.715 1.592-1.593V26.527a1.263 1.263 0 1 1 2.527 0v11.835a4.124 4.124 0 0 1-4.12 4.12"/>
        <path d="M12.291 45.587a1.263 1.263 0 0 1-1.263-1.264v-2.631a1.263 1.263 0 1 1 2.527 0v2.631c0 .698-.566 1.264-1.264 1.264M51.344 45.902a1.263 1.263 0 0 1-1.263-1.263v-2.631a1.263 1.263 0 1 1 2.526 0v2.631c0 .698-.565 1.263-1.263 1.263M54.21 18.165a1.263 1.263 0 0 1-1.263-1.263c0-4.66-3.792-8.451-8.452-8.451-.877 0-1.75.137-2.595.41a1.264 1.264 0 0 1-1.548-.706 9.275 9.275 0 0 0-8.535-5.629 9.274 9.274 0 0 0-8.533 5.63 1.264 1.264 0 0 1-1.548.704 8.456 8.456 0 0 0-2.596-.41c-4.66 0-8.451 3.792-8.451 8.452a1.263 1.263 0 0 1-2.527 0c0-6.053 4.925-10.978 10.978-10.978.774 0 1.544.082 2.301.245A11.796 11.796 0 0 1 31.817 0c4.362 0 8.324 2.388 10.377 6.17a10.933 10.933 0 0 1 2.3-.246c6.054 0 10.979 4.925 10.979 10.978 0 .698-.565 1.263-1.263 1.263"/>
        <path d="M24.513 13.813a1.263 1.263 0 0 1-1.23-.985c-.703-3.103-2.221-4.302-2.236-4.313a1.263 1.263 0 1 1 1.505-2.029c.232.172 2.292 1.797 3.194 5.785a1.263 1.263 0 0 1-1.233 1.542M38.643 13.813a1.263 1.263 0 0 1-1.233-1.542c.902-3.988 2.961-5.613 3.193-5.785a1.264 1.264 0 0 1 1.517 2.02c-.084.067-1.555 1.267-2.246 4.322a1.263 1.263 0 0 1-1.231.985"/>
    </g>
</svg>
