<svg xmlns="http://www.w3.org/2000/svg" xmlns:xlink="http://www.w3.org/1999/xlink" width="25" height="24" viewBox="0 0 25 24">
    <defs>
        <path id="a" d="M6.701 0c.092 0 .184.019.268.055a.697.697 0 0 1 .227.15l3.599 3.601a.702.702 0 0 1 .205.495V11.5c0 1.048-.852 1.9-1.9 1.9H1.901A1.903 1.903 0 0 1 0 11.5V1.9C0 .853.853 0 1.901 0zM6 1.4H1.901a.5.5 0 0 0-.5.5v9.6a.5.5 0 0 0 .5.5H9.1c.275 0 .5-.225.5-.5V5.001H6.701a.7.7 0 0 1-.701-.7V1.4zm-.768 4.654a.699.699 0 0 1 .763.151l1.8 1.8a.7.7 0 0 1-.99.99l-.604-.604v1.91a.7.7 0 0 1-1.4 0v-1.91l-.606.604a.697.697 0 0 1-.99 0 .7.7 0 0 1 0-.99l1.8-1.8a.705.705 0 0 1 .228-.15zm2.169-3.663v1.21H8.61l-1.209-1.21z"/>
    </defs>
    <g fill="none" fill-rule="evenodd" transform="translate(7 5)">
        <mask id="b" fill="#fff">
            <use xlink:href="#a"/>
        </mask>
        <g fill="#757D8A" mask="url(#b)">
            <path d="M-7-5h24v24H-7z"/>
        </g>
    </g>
</svg>
