<svg width="31" height="20" viewBox="0 0 31 20" fill="none" xmlns="http://www.w3.org/2000/svg">
<rect width="31" height="20" rx="4" fill="#D2D2D2"/>
<path d="M8.424 14H10.14V5.996H8.652L6.132 8.528L7.104 9.548L8.424 8.192V14ZM11.3536 11.924C11.3536 13.424 12.8896 14.144 14.5696 14.144C16.2496 14.144 17.7856 13.412 17.7856 11.924C17.7856 10.952 17.0176 10.208 16.0576 9.872C16.9456 9.572 17.6536 8.984 17.6536 7.988C17.6536 6.488 16.0456 5.876 14.5696 5.876C13.0816 5.876 11.4856 6.488 11.4856 7.988C11.4856 8.984 12.1816 9.572 13.0696 9.872C12.1096 10.208 11.3536 10.952 11.3536 11.924ZM15.9136 8.252C15.9136 8.876 15.0616 9.152 14.5696 9.224C14.0776 9.152 13.2136 8.876 13.2136 8.252C13.2136 7.688 13.7776 7.34 14.5696 7.34C15.3496 7.34 15.9136 7.688 15.9136 8.252ZM16.0576 11.72C16.0576 12.308 15.3856 12.68 14.5696 12.68C13.7296 12.68 13.0816 12.308 13.0816 11.72C13.0816 11.024 14.0656 10.688 14.5696 10.628C15.0616 10.688 16.0576 11.024 16.0576 11.72ZM21.7629 10.424H23.9109V9.476H21.7629V7.136H20.7189V9.476H18.5589V10.424H20.7189V12.86H21.7629V10.424Z" fill="#101319"/>
</svg>
