<svg width="100" height="40" viewBox="0 0 100 40" fill="none" xmlns="http://www.w3.org/2000/svg">
<rect width="100" height="40" rx="2" fill="#252930"/>
<g clip-path="url(#clip0)">
<path d="M44.6284 15.9239C45.0734 15.3855 45.2946 14.6968 45.2463 14C44.5606 14.0623 43.9271 14.3929 43.4839 14.9198C43.2607 15.17 43.0899 15.4622 42.9814 15.7793C42.8728 16.0965 42.8288 16.4321 42.8519 16.7665C43.1931 16.7737 43.5313 16.7012 43.8396 16.555C44.148 16.4087 44.418 16.1927 44.6284 15.9239V15.9239ZM45.2042 16.8929C44.2212 16.8367 43.3926 17.4547 42.9221 17.4547C42.4517 17.4547 41.7355 16.928 40.9631 16.9421C40.4579 16.956 39.9652 17.1021 39.534 17.3658C39.1028 17.6294 38.7482 18.0014 38.5055 18.4447C37.4523 20.2703 38.2247 22.9947 39.2498 24.4763C39.7484 25.1785 40.3452 26.0281 41.1386 26C41.9321 25.9719 42.1779 25.5085 43.0836 25.5085C43.9894 25.5085 44.2563 26 45.0427 25.9789C45.8291 25.9579 46.3768 25.2768 46.8683 24.5044C47.2227 23.9805 47.4994 23.4082 47.6898 22.8051C47.2162 22.5997 46.813 22.2603 46.5298 21.8286C46.2466 21.397 46.0958 20.8919 46.0959 20.3757C46.0993 19.9166 46.219 19.466 46.4437 19.0657C46.6684 18.6654 46.9908 18.3286 47.3809 18.0866C47.1338 17.7341 46.809 17.4432 46.4316 17.2362C46.0542 17.0292 45.6342 16.9118 45.2042 16.8929V16.8929ZM51.4745 15.4886V17.5108H53.0755V18.8028H51.4745V23.5494C51.4745 24.2516 51.7905 24.6167 52.4927 24.6167C52.6853 24.6164 52.8778 24.6023 53.0684 24.5746V25.9368C52.7551 25.9881 52.4379 26.0116 52.1205 26.007C50.4634 26.007 49.8244 25.3681 49.8244 23.7531V18.8379H48.5676V17.5108H49.7893V15.4816L51.4745 15.4886ZM58.6717 25.9368H56.9163L53.9672 17.5108H55.7156L57.787 24.2586H57.8291L59.9356 17.5108H61.6489L58.6717 25.9368Z" fill="white"/>
</g>
<defs>
<clipPath id="clip0">
<rect width="23.6138" height="12" fill="white" transform="translate(38 14)"/>
</clipPath>
</defs>
</svg>
