<svg xmlns="http://www.w3.org/2000/svg" width="24" height="24">
  <g fill="none" fill-rule="evenodd">
    <path fill="#21252D" d="M12 0c6.627 0 12 5.373 12 12s-5.373 12-12 12S0 18.627 0 12 5.373 0 12 0z"/>
    <path fill="#F2F2F2" d="M13.068 6.002h-2.137c-.707.004-.943.013-1.404.034-.64.03-1.075.13-1.457.279-.394.153-.73.358-1.063.692a2.95 2.95 0 00-.692 1.063c-.13.334-.224.71-.265 1.226l-.031.642c-.012.324-.017.652-.018 1.39l.001 1.741c.004.708.013.942.034 1.404.03.64.13 1.075.279 1.457.153.394.358.729.692 1.063.333.333.668.539 1.063.692.334.13.71.223 1.226.264l.42.023c.509.022.826.028 2.284.028l1.439-.005c.44-.005.664-.014 1.034-.031.64-.03 1.076-.13 1.457-.279.395-.153.73-.359 1.062-.692.334-.334.54-.669.693-1.063.13-.334.223-.71.264-1.226l.023-.42c.022-.51.028-.826.028-2.284l-.004-1.314a25.746 25.746 0 00-.032-1.16c-.03-.639-.132-1.075-.279-1.456a2.94 2.94 0 00-.693-1.063 2.92 2.92 0 00-1.062-.692 4.177 4.177 0 00-1.227-.264l-.643-.032c-.259-.01-.52-.015-.992-.017zM11.462 7.08v.001l1.94.005c.436.004.654.013 1.023.03.585.027.903.124 1.114.206.28.11.48.24.69.45.21.21.34.41.449.69.073.187.158.459.195.928l.034.779c.006.23.01.5.011.943l-.003 2.257c-.004.456-.014.676-.03 1.053-.028.585-.125.903-.207 1.114-.11.28-.24.48-.45.69-.21.21-.409.34-.689.448-.188.073-.46.159-.929.195l-.185.012c-.533.024-.751.032-1.764.034l-2.062-.004a23.288 23.288 0 01-1.023-.03c-.585-.027-.902-.125-1.114-.207a1.862 1.862 0 01-.69-.449c-.21-.21-.34-.41-.45-.69l-.055-.158a3.336 3.336 0 01-.14-.77l-.024-.493a40.31 40.31 0 01-.021-1.656l.004-1.832c.004-.456.013-.675.03-1.053.027-.585.125-.902.207-1.114.109-.28.239-.48.449-.69.21-.21.41-.34.69-.449.188-.073.46-.158.929-.195l.672-.031c.31-.01.654-.013 1.4-.014zM12 8.919a3.08 3.08 0 100 6.162A3.08 3.08 0 0012 8.919zM12 10a2 2 0 11.001 3.999A2 2 0 0112 10zm3.203-1.923a.72.72 0 10.002 1.442.72.72 0 00-.002-1.442z"/>
  </g>
</svg>
