<svg width="56" height="40" viewBox="0 0 56 40" fill="none" xmlns="http://www.w3.org/2000/svg">
<path d="M56 0H0V40H56V0Z" fill="#252930"/>
<path d="M13.9333 26.0667C14.8667 26.0667 17.2667 25.8667 19 24.6V25.6H22.5333V21.2667L24 19.7333L27.2667 25.6H31.5333L26.6 17.2667L31.4 12H27L22.5333 17.1333V7.2H19V8.8C17.9333 7.66667 16.1333 6.73334 13.4 6.73334C7.46667 6.73334 6.33333 10.3333 6.33333 12.4C6.33333 15.2 7.8 16.7333 10.4 17.3333L14.0667 18.2667C16 18.7333 17.4 19.1333 17.4 20.5333C17.4 22.4667 15.4 22.9333 13.5333 22.9333C10.2 22.9333 9.66666 21 9.66666 19.9333H6.13333C6.13333 22.2 7.26666 26.0667 13.9333 26.0667ZM16.4 15.1333L11.9333 14C11.2 13.8 10 13.5333 10 12.0667C10 10.4 11.7333 9.86667 13.2 9.86667C16.5333 9.86667 16.8667 11.8 16.9333 12.6667H19.0667V16.0667C18.2667 15.6667 17.3333 15.3333 16.4 15.1333Z" fill="#F2F2F2"/>
<path d="M9.2 34.0667C8.86667 34.0667 8.53334 34.0667 8.33334 34V32.9333C8.46667 33 8.6 33.0667 8.8 33.0667C9.06667 33.0667 9.26667 32.9333 9.4 32.7333V32.6667L6.86667 27.9333H8.4L10.0667 31.3333L11.3333 27.9333H12.8L10.6 33.0667C10.4667 33.3333 10.3333 33.5333 10.2 33.6667C10.0667 33.8667 9.86667 33.9333 9.66667 34.0667C9.46667 34.0667 9.26667 34.0667 9.2 34.0667Z" fill="#F2F2F2"/>
<path d="M16.6 34H15.4V32.1333C15.2667 32.2 15.0667 32.2666 14.8 32.4C14.5333 32.5333 14.2667 32.5333 14 32.5333C13.5333 32.5333 13.1333 32.4 12.8667 32.1333C12.6 31.8666 12.4667 31.4666 12.4667 30.9333V29.4H13.6667V30.8666C13.6667 31.2666 13.9333 31.4666 14.4667 31.4666C14.6 31.4666 14.8 31.4 15 31.3333C15.2 31.2666 15.3333 31.2 15.4 31.1333V29.3333H16.6V34Z" fill="#F2F2F2"/>
<path d="M21.6 33.1333C21.6 33.3999 21.6 33.5333 21.6666 33.6666C21.7333 33.7333 21.8 33.7999 21.8666 33.8666V33.9999H20.6C20.5333 33.7999 20.5333 33.6666 20.4666 33.4666C20.2666 33.6666 20.0666 33.7999 19.8666 33.9333C19.6666 34.0666 19.3333 34.1333 19 34.1333C18.7333 34.1333 18.5333 34.0666 18.3333 33.9999C18.1333 33.9333 17.9333 33.7333 17.8 33.5333C17.6666 33.3333 17.6 33.0666 17.6 32.7999C17.6 32.5333 17.6666 32.2666 17.8 32.0666C17.9333 31.8666 18.0666 31.7333 18.2666 31.5999C18.4666 31.4666 18.6666 31.3999 18.9333 31.3999L20 31.2666C20.2666 31.1999 20.4 31.1333 20.4 30.9333C20.4 30.7333 20.3333 30.5999 20.2 30.5333C20.0666 30.4666 19.8666 30.4666 19.6666 30.4666C19.4 30.4666 19.2 30.5333 19.1333 30.6666C19 30.7999 19 30.9333 18.9333 31.1333H17.8C17.8666 30.6666 17.9333 30.3333 18.1333 30.1333C18.3333 29.9333 18.5333 29.7333 18.8666 29.6666C19.1333 29.5999 19.4666 29.5333 19.8 29.5333C20.0666 29.5333 20.3333 29.5999 20.6 29.6666C20.8666 29.7333 21.1333 29.8666 21.3333 30.0666C21.5333 30.2666 21.6 30.5333 21.6 30.8666V33.1333ZM20.4666 31.7999C20.3333 31.9333 20.0666 31.9999 19.6666 32.0666C19.4666 32.0666 19.3333 32.1333 19.2666 32.1999C19.1333 32.2666 19.0666 32.3333 19 32.3999C18.9333 32.4666 18.8666 32.5999 18.8666 32.7999C18.8666 32.9999 18.9333 33.1333 19.0666 33.1999C19.2 33.2666 19.3333 33.3333 19.4666 33.3333C19.6666 33.3333 19.8 33.2666 20 33.1999C20.1333 33.1333 20.2666 32.9999 20.4 32.8666C20.5333 32.7333 20.5333 32.5999 20.5333 32.3999V31.7999H20.4666Z" fill="#F2F2F2"/>
<path d="M26.5334 32.3333C26.5334 32.4666 26.4667 32.6666 26.4 32.8666C26.3334 33.0666 26.2 33.2666 26.0667 33.4666C25.9334 33.6666 25.7334 33.8 25.4 33.9333C25.1334 34.0666 24.8 34.1333 24.4 34.1333C24 34.1333 23.6667 34.0666 23.4 33.9333C23.1334 33.8 22.9334 33.6 22.7334 33.4C22.6 33.2 22.4667 32.9333 22.4 32.6666C22.3334 32.4 22.3334 32.1333 22.3334 31.8666C22.3334 31.3333 22.4 30.9333 22.5334 30.5333C22.6667 30.1333 22.9334 29.8666 23.2667 29.6666C23.6 29.4666 24 29.3333 24.5334 29.3333C24.8 29.3333 25.1334 29.4 25.4 29.4666C25.6667 29.6 25.9334 29.7333 26.1334 30C26.3334 30.2666 26.4667 30.6 26.5334 31.0666H25.3334C25.2667 30.6 25 30.3333 24.5334 30.3333C24.3334 30.3333 24.1334 30.4 24 30.5333C23.8667 30.6666 23.7334 30.8 23.6667 31C23.6 31.2 23.6 31.4 23.6 31.6C23.6 31.8666 23.6 32.0666 23.6667 32.2666C23.7334 32.4666 23.8 32.6666 23.9334 32.8C24.0667 32.9333 24.2667 33.0666 24.5334 33.0666C24.7334 33.0666 24.8667 33 25 32.9333C25.1334 32.8666 25.2 32.7333 25.2667 32.6C25.3334 32.4666 25.3334 32.4 25.3334 32.2666H26.5334V32.3333Z" fill="#F2F2F2"/>
<path d="M28.3333 34.0001V30.4001H27V29.4667H30.9333V30.4001H29.6V34.0001H28.3333Z" fill="#F2F2F2"/>
<path d="M35.6666 34.0001H34.4666V32.2001H32.8V34.0001H31.6V29.4667H32.8V31.2667H34.4666V29.4667H35.6666V34.0001Z" fill="#F2F2F2"/>
<path d="M40.8 34.0001H39.6V31.2667L38 34.0001H36.7334V29.4667H37.9334V32.2001L39.5334 29.4667H40.8V34.0001Z" fill="#F2F2F2"/>
<path d="M43.0667 34.0001H41.8667V29.4667H43.0667V31.2001L44.6 29.4667H46.0667L44.4667 31.2001L46.1333 34.0001H44.6667L43.5333 32.0667L43.0667 32.6001V34.0001Z" fill="#F2F2F2"/>
</svg>
