<?xml version="1.0" encoding="UTF-8"?>
<svg width="102px" height="43px" viewBox="0 0 102 43" version="1.1" xmlns="http://www.w3.org/2000/svg" xmlns:xlink="http://www.w3.org/1999/xlink">
    <!-- Generator: Sketch 63.1 (92452) - https://sketch.com -->
    <title>Samsung</title>
    <desc>Created with Sketch.</desc>
    <g id="Footer" stroke="none" stroke-width="1" fill="none" fill-rule="evenodd">
        <g id="[PROD-812]-Assets" transform="translate(-56.000000, -635.000000)">
            <g id="Samsung" transform="translate(56.000000, 635.000000)">
                <rect id="backfround-copy" fill="#252930" x="0" y="0" width="102" height="42.5" rx="2.5051875"></rect>
                <path d="M25.2338959,17 C26.3772615,17 27.9566563,17.2775766 27.9566563,19.0573328 L27.9566563,19.0573328 L27.9566563,19.6304469 L25.9428472,19.6304469 L25.9428472,19.6304469 L25.9428472,19.1259105 C25.9428472,18.6801551 25.6634655,18.3846176 25.1919079,18.3846176 C24.686437,18.3846176 24.5104104,18.6719911 24.4538881,18.9316069 C24.434509,19.0246767 24.4232045,19.1993867 24.4619627,19.3626671 C24.6896668,20.3178573 27.7564059,20.8289248 28.0971546,22.5384704 C28.1294531,22.7131804 28.2037396,23.1752639 28.1052292,23.8806351 C27.9146683,25.2423934 26.7115506,25.7469298 25.2500452,25.7469298 C23.7304025,25.7469298 22.3125,25.1966749 22.3125,23.3760987 L22.3125,23.3760987 L22.3141149,22.7442037 L24.4813418,22.7442037 L24.4813418,23.5344807 C24.4813418,23.9818689 24.7881771,24.2757736 25.295263,24.2757736 C25.8314175,24.2757736 26.0139038,23.998197 26.0817306,23.7271515 C26.1188738,23.573668 26.1430977,23.3189506 26.0639664,23.1213813 C25.6473163,22.0633245 22.7792128,21.5800146 22.4255446,19.9129219 C22.3415686,19.5030882 22.3496432,19.1765274 22.4077805,18.8091466 C22.6225652,17.4800443 23.7966144,17 25.2338959,17 Z M51.5070802,17.0440857 C52.6407563,17.0440857 54.2072317,17.3200295 54.2072317,19.080192 L54.2072317,19.080192 L54.2072317,19.6484077 L52.2079569,19.6484077 L52.2079569,19.6484077 L52.2079569,19.1487698 C52.2079569,18.7046471 51.9350349,18.4172737 51.4667072,18.4172737 C50.966081,18.4172737 50.7932842,18.6964831 50.735147,18.9593645 C50.7157679,19.0475359 50.7044634,19.2189803 50.7432216,19.3822607 C50.9693108,20.3292869 54.0037514,20.8354561 54.3428852,22.5286736 C54.3784136,22.700118 54.4478553,23.1556702 54.3493449,23.856143 C54.1603989,25.2048389 52.9685857,25.7028441 51.5232295,25.7028441 C50.019736,25.7028441 48.6147529,25.1591204 48.6147529,23.3565051 L48.6147529,23.3565051 L48.6179828,22.732774 L50.7626007,22.732774 L50.7642156,23.5165198 C50.7642156,23.9541113 51.0694361,24.2480159 51.5684473,24.2480159 C52.101372,24.2480159 52.2822433,23.9753377 52.3484552,23.7042923 C52.3839835,23.5508087 52.4098223,23.3026226 52.330691,23.1066861 C51.9188856,22.0600589 49.0782359,21.5800146 48.7310274,19.92925 C48.6470514,19.521049 48.6535111,19.2010195 48.7116483,18.838537 C48.9215883,17.5175988 50.0859479,17.0440857 51.5070802,17.0440857 Z M58.3155961,17.2547174 L58.3155961,23.2977241 C58.3155961,23.4038564 58.318826,23.5230511 58.3349752,23.6095897 C58.3801931,23.8104245 58.54976,24.2039302 59.1149831,24.2039302 C59.6753614,24.2039302 59.8497731,23.8120573 59.8885313,23.6112225 C59.9046805,23.5230511 59.9095253,23.4054892 59.9079103,23.2993569 L59.9079103,17.2547174 L61.9507881,17.2547174 L61.9507881,23.1132173 C61.9556329,23.2634353 61.9410985,23.5720352 61.9330239,23.648777 C61.7892958,25.1738157 60.5974825,25.6685552 59.1133682,25.6685552 C57.6276389,25.6685552 56.4342107,25.1738157 56.2920975,23.648777 C56.2867144,23.5848255 56.2757239,23.3587275 56.2740791,23.1991512 L56.2743333,17.2547174 L58.3155961,17.2547174 Z M75.9780103,17.0359217 C77.4104472,17.0359217 78.6652424,17.52413 78.8138153,19.0540671 C78.8331944,19.248779 78.8334972,19.4545123 78.8324374,19.5452094 L78.8315795,19.8655706 L76.7951614,19.8655706 L76.7951614,19.4083856 C76.7967764,19.4100184 76.7919316,19.2140819 76.7693227,19.0981528 C76.7354093,18.9169116 76.5803767,18.5021795 75.963476,18.5021795 C75.3740291,18.5021795 75.2028472,18.8940524 75.1592443,19.0981528 C75.1350205,19.2059179 75.1253309,19.3512374 75.1253309,19.4834945 L75.1253309,23.2193496 C75.123716,23.3222162 75.1301757,23.4365125 75.1463249,23.5295823 C75.1786234,23.7434796 75.3821037,24.1173916 75.9667059,24.1173916 C76.5513081,24.1173916 76.7564033,23.7434796 76.7935465,23.5263167 C76.8032361,23.4642701 76.8086191,23.3927896 76.8106527,23.321551 L76.8113107,22.0306684 L75.9828551,22.0306684 L75.9828551,20.8387217 L78.8477287,20.8387217 L78.8477287,23.0315771 C78.8461138,23.1850607 78.842884,23.2977241 78.8186601,23.5704024 C78.6846215,25.0562538 77.4088322,25.586915 75.9780103,25.586915 C74.5439586,25.586915 73.2713992,25.0562538 73.1341307,23.5704024 C73.1115218,23.2977241 73.108292,23.1850607 73.1050621,23.0315771 L73.106677,19.5928924 C73.106677,19.4475729 73.1244412,19.1912227 73.1405904,19.0540671 C73.3198469,17.5273956 74.5439586,17.0359217 75.9780103,17.0359217 Z M34.5552322,17.257983 L36.0474212,25.4252675 L33.8737346,25.4252675 L32.7981958,18.0156039 L32.752978,18.0156039 L31.6467557,25.4252675 L29.4649945,25.4252675 L30.9620283,17.257983 L34.5552322,17.257983 Z M41.1328141,17.257983 L42.1292217,23.5018246 L42.1728246,23.5018246 L43.1708471,17.257983 L46.4652902,17.257983 L46.6397019,25.4252675 L44.621048,25.4252675 L44.5677556,18.0825489 L44.5257676,18.0825489 L43.1756918,25.4252675 L41.1263544,25.4252675 L39.7746637,18.0825489 L39.7310608,18.0825489 L39.6809982,25.4252675 L37.6574995,25.4252675 L37.836756,17.257983 L41.1328141,17.257983 Z M67.204133,17.257983 L69.0612946,23.6700034 L69.1048975,23.6700034 L68.9950828,17.257983 L70.9943576,17.257983 L70.9943576,25.3403617 L68.1197944,25.3403617 L66.1237494,18.7079127 L66.0801465,18.7079127 L66.1915762,25.3403617 L64.2036058,25.3403617 L64.2036058,17.257983 L67.204133,17.257983 Z" id="Combined-Shape" fill="#FFFFFF" fill-rule="nonzero"></path>
            </g>
        </g>
    </g>
</svg>
