<svg xmlns="http://www.w3.org/2000/svg" width="47" height="47" viewBox="0 0 47 47">
    <g fill="#E00518" fill-rule="evenodd" stroke="#E00518" stroke-width=".5">
        <path d="M22.69 1.605c-11.766 0-21.34 9.68-21.34 21.578 0 11.899 9.574 21.58 21.34 21.58 11.768 0 21.34-9.681 21.34-21.58 0-11.898-9.572-21.578-21.34-21.578m0 44.472C10.208 46.077.052 35.807.052 23.183.051 10.56 10.207.29 22.691.29c12.483 0 22.64 10.27 22.64 22.893 0 12.624-10.157 22.894-22.64 22.894" transform="translate(1)"/>
        <path d="M22.69 41.528a.653.653 0 01-.65-.657c0-.364.292-.658.65-.658 9.287 0 16.842-7.64 16.842-17.03 0-.363.291-.657.65-.657.359 0 .65.294.65.657 0 10.115-8.138 18.345-18.141 18.345M5.2 23.84a.653.653 0 01-.65-.657c0-10.115 8.138-18.343 18.14-18.343.36 0 .65.293.65.657a.653.653 0 01-.65.657c-9.286 0-16.84 7.639-16.84 17.03a.653.653 0 01-.65.656M14.776 20.481c-.574 0-1.149.22-1.585.662a2.264 2.264 0 00-.657 1.603c0 .605.234 1.174.657 1.603l5.565 5.627c.847.855 2.323.857 3.17 0l10.264-10.38c.424-.427.657-.997.657-1.602 0-.606-.233-1.175-.657-1.604a2.229 2.229 0 00-3.17 0l-8.22 8.314a.663.663 0 01-.918 0l-3.521-3.56a2.222 2.222 0 00-1.585-.663m5.565 11.473a3.498 3.498 0 01-2.504-1.049l-5.565-5.627a3.578 3.578 0 01-1.037-2.532c0-.957.368-1.856 1.037-2.532a3.517 3.517 0 015.008 0l3.061 3.096 7.76-7.849a3.519 3.519 0 015.008 0 3.578 3.578 0 011.038 2.533c0 .956-.368 1.855-1.038 2.532L22.845 30.905a3.497 3.497 0 01-2.504 1.05" transform="translate(1)"/>
    </g>
</svg>
