<svg xmlns="http://www.w3.org/2000/svg" width="57" height="47" viewBox="0 0 57 47">
    <g fill="#E00518" fill-rule="evenodd" stroke="#E00518" stroke-width=".5">
        <path d="M7.111 11.203v-7.48a2.406 2.406 0 012.403-2.405h5.228c1.112 0 2.07.755 2.332 1.837a.66.66 0 00.64.504h.386a.66.66 0 00.607-.404 3.146 3.146 0 012.908-1.937h25.476a3.157 3.157 0 013.153 3.156V20.479a3.157 3.157 0 01-3.153 3.155H21.615a3.147 3.147 0 01-2.908-1.936.659.659 0 00-.607-.404h-.386a.659.659 0 00-.64.503 2.393 2.393 0 01-2.332 1.837H9.514A2.406 2.406 0 017.11 21.23V11.203zM2.213 21.805l3.58-5.896v5.32a3.723 3.723 0 003.535 3.714c.004.614.152 1.22.469 1.766.083.143.186.27.287.399-.03.02-.064.033-.09.059a2.248 2.248 0 01-2.768.335L2.969 24.91a2.243 2.243 0 01-1.021-1.396 2.244 2.244 0 01.265-1.71h0zm31.351 21.726L12.821 30.908a2.967 2.967 0 01-1.413-2.748c.181.082.368.158.564.21l4.816 1.278a3.564 3.564 0 003.43-.914 4.284 4.284 0 002.9 2.594l18.377 4.876-3.846 6.33a2.975 2.975 0 01-4.085.997h0zm20.898-24.108l-3.904 14.742a2.977 2.977 0 01-3.636 2.114l-3.385-.898-.665-.176-.663-.176-18.753-4.976a2.97 2.97 0 01-2.183-2.469.658.658 0 00-.484-.546l-.354-.094a.66.66 0 00-.748.323 2.248 2.248 0 01-2.56 1.106l-4.817-1.278a2.241 2.241 0 01-1.374-1.049 2.239 2.239 0 01-.296-1.094h4.102a3.707 3.707 0 003.231-1.877 4.46 4.46 0 003.642 1.877h25.476a4.477 4.477 0 004.47-4.473v-4.904l.79.21a2.98 2.98 0 012.111 3.638h0zm-1.774-4.913l-1.127-.3V4.474A4.477 4.477 0 0047.091 0H21.615c-1.47 0-2.815.713-3.642 1.878A3.707 3.707 0 0014.743 0h-5.23a3.726 3.726 0 00-3.72 3.723v9.649L1.088 21.12a3.553 3.553 0 00-.419 2.706c.226.93.8 1.715 1.616 2.212l4.257 2.59a3.555 3.555 0 003.549.096 4.285 4.285 0 002.047 3.31L32.88 44.658a4.291 4.291 0 005.895-1.439l4.048-6.663 3.762.998a4.3 4.3 0 005.247-3.051l3.904-14.742a4.3 4.3 0 00-3.048-5.251h0z" transform="translate(0 1)"/>
        <path d="M23.45 13.831c.021.087.045.17.072.255.228.737.6 1.377 1.104 1.904.11.114.226.223.347.326.498.42 1.08.73 1.729.922.498.146 1.035.22 1.595.22.827 0 1.604-.172 2.349-.518a6.12 6.12 0 00.673-.362 7.13 7.13 0 00.458-.308c.045-.033.085-.072.129-.106.915-.703 1.682-1.6 2.373-2.473.183-.232.364-.468.546-.704l-.018-.02c.034-.03.073-.05.1-.088h.001l.057-.074c.188-.243.375-.486.564-.727.164-.208.332-.417.506-.623.157-.188.32-.372.486-.553.172-.188.35-.367.533-.54a7.63 7.63 0 01.723-.617c.853-.628 1.737-.932 2.7-.932.433 0 .845.056 1.223.167a3.406 3.406 0 011.498.896c.361.377.629.841.795 1.38.02.063.038.127.055.19.066.263.1.532.114.802.005.075.014.152.014.228 0 .156-.024.299-.038.447a4.076 4.076 0 01-.117.651c-.418 1.565-1.73 2.566-3.544 2.566-1.096 0-2.06-.38-3.038-1.197a8.962 8.962 0 01-.317-.281.652.652 0 00-.87-.01c-.02.017-.043.025-.06.044a.66.66 0 00.034.932c.12.112.244.221.368.326 1.21 1.012 2.48 1.504 3.883 1.504 2.397 0 4.248-1.426 4.825-3.544.057-.209.1-.426.13-.647.031-.218.051-.44.056-.668 0-.04.006-.081.006-.123a5.513 5.513 0 00-.242-1.61 4.744 4.744 0 00-1.105-1.903 4.716 4.716 0 00-2.076-1.248 5.632 5.632 0 00-1.594-.22c-1.254 0-2.392.388-3.48 1.187-.515.378-.979.822-1.412 1.29-.167.181-.33.366-.488.552-.157.187-.309.373-.458.56-.047.06-.097.119-.143.177-.183.232-.365.468-.547.704l-.027.035-.057.074s0 0 0 0c-.206.268-.412.536-.62.8-.667.844-1.4 1.71-2.248 2.334-.107.078-.216.137-.324.205a4.896 4.896 0 01-.677.36c-.27.118-.546.21-.827.268a4.294 4.294 0 01-.872.099c-.433 0-.845-.056-1.224-.168a3.413 3.413 0 01-1.497-.896 3.426 3.426 0 01-.796-1.379 4.163 4.163 0 01-.054-.19c-.016-.064-.023-.128-.036-.191a4.223 4.223 0 01-.092-.828v-.012c0-.251.024-.49.062-.722.055-.336.156-.645.286-.934.558-1.24 1.762-2.007 3.351-2.007h.001c.076.004.15.001.227.01a4.162 4.162 0 011.498.355c.444.196.877.469 1.312.833a8.362 8.362 0 01.321.283.645.645 0 00.565.15.64.64 0 00.3-.144c.02-.017.044-.026.063-.045a.642.642 0 00.156-.356.647.647 0 00-.192-.575c-.085-.079-.17-.152-.257-.226-.037-.033-.073-.068-.112-.1-1.21-1.012-2.479-1.504-3.882-1.504-1.21 0-2.276.367-3.115.998a4.66 4.66 0 00-.524.455 4.69 4.69 0 00-.493.598 4.842 4.842 0 00-.733 1.656 5.613 5.613 0 00-.152 1.275c0 .02.004.042.004.062.005.435.058.869.165 1.293M18.198 12.497a.658.658 0 100-1.319.651.651 0 00-.652.66c0 .363.29.66.652.66M18.198 15.794a.658.658 0 100-1.319.651.651 0 00-.652.66c0 .362.29.659.652.659M18.198 19.09a.658.658 0 100-1.319.651.651 0 00-.652.66c0 .363.29.659.652.659M18.198 9.2c.219 0 .402-.11.523-.27a.64.64 0 00.143-.388.642.642 0 00-.155-.41.642.642 0 00-.363-.22c-.049-.012-.095-.03-.148-.03a.643.643 0 00-.575.36.657.657 0 00-.077.3c0 .362.29.659.652.659M13.08 11.458a.66.66 0 00.66-.66V4.159a.66.66 0 10-1.318 0V10.8c0 .364.295.659.659.659M47.189 31.876l-1.312-.348-.664-.176-.663-.176-7.517-1.995a.659.659 0 00-.338 1.275l7.141 1.895.663.176.664.177 1.688.447a.659.659 0 00.338-1.275" transform="translate(0 1)"/>
    </g>
</svg>
