<svg xmlns="http://www.w3.org/2000/svg" width="44" height="54" viewBox="0 0 44 54">
    <g fill="#E00518" fill-rule="evenodd" stroke="#E00518" stroke-width=".5">
        <path d="M38.045 15.42a2.985 2.985 0 00-.815-.996 2.935 2.935 0 00-2.202-.604l-3.437.443c.408-.381.725-.855.897-1.406a3.286 3.286 0 00-.214-2.501l-1.832-3.562 2.042-1.796a1.646 1.646 0 011.211-.41c.445.03.85.234 1.144.574l5.32 6.165c.604.7.531 1.767-.163 2.377l-1.951 1.717zm-.874 2.035H25.784l2.801-1.469 6.61-.853a1.673 1.673 0 011.81 1.202c.024.083.046.168.057.257l.065.514.044.349zM26.945 2.87l1.857 3.608.31.605.312.605 1.685 3.277c.238.464.284.993.128 1.491a1.94 1.94 0 01-.955 1.147l-2.096 1.098-1.69.886-1.688.886-1.871.98H15.813h-.002H12.474l-2.835-5.51a1.959 1.959 0 01-.127-1.492c.156-.498.494-.905.954-1.145l1.569-.824.647-.338.646-.34 11.005-5.769c.284-.15.589-.22.889-.22.7 0 1.378.384 1.723 1.055h0zM1.947 14.669c-.063-.446.048-.89.315-1.25l4.852-6.548a1.66 1.66 0 012.335-.34l1.42 1.071-1.008.528a3.255 3.255 0 00-1.6 1.922 3.288 3.288 0 00.214 2.502l2.52 4.9H4.82L2.6 15.779a1.68 1.68 0 01-.653-1.11h0zm37.223 4.11l-.292 1.707-.38 2.22-.405 2.362c-.009.1-.024.2-.05.296l-.248 1.441-.144.842-4.045 23.616a.556.556 0 01-.548.466H7.548a.556.556 0 01-.549-.465L1.436 18.78h4.932l.09.739.112.91 3.595 29.35a.658.658 0 00.732.577.66.66 0 00.57-.74l-3.44-28.085-.112-.912-.111-.911-.114-.928h7.519l.094 2.3.027.661.027.666.084 2.045.028.69.028.684.978 23.9a.659.659 0 00.655.635h.028a.66.66 0 00.628-.69l-1.003-24.518-.039-.941-.042-1.048-.04-.953-.028-.715-.03-.72-.082-1.996H24.077l-.022.542-.039.963-.04.963-.286 7.011-.028.671-.027.671-.821 20.07a.659.659 0 00.629.69h.026c.35 0 .641-.28.656-.635l.83-20.295.027-.671.028-.671.22-5.389.04-.962.038-.963.082-1.995h7.526l-.158 1.29-.12.985-.122.984-.633 5.162-.084.68-.083.678-2.584 21.058a.66.66 0 00.652.744.659.659 0 00.65-.581l2.625-21.395.083-.678.084-.68.772-6.291.12-.985.12-.971h4.932zm2.704-6.138a3.007 3.007 0 00-.727-2.184l-5.319-6.165a2.948 2.948 0 00-2.043-1.027A2.94 2.94 0 0031.622 4L29.82 5.584 28.11 2.26a3.239 3.239 0 00-4.382-1.4L12.16 6.925 10.235 5.47a2.966 2.966 0 00-4.173.607l-4.85 6.547a3.013 3.013 0 00-.564 2.232c.114.797.528 1.5 1.165 1.982l.817.616H.656a.652.652 0 00-.502.236.667.667 0 00-.145.539l5.697 33.259a1.87 1.87 0 001.842 1.565h25.51a1.87 1.87 0 001.841-1.565l4.438-25.908c.024-.11.044-.22.057-.332l1.202-7.02a.667.667 0 00-.145-.538.653.653 0 00-.502-.236h-1.455l-.077-.606 2.441-2.146a3 3 0 001.016-2.062h0z" transform="translate(1)"/>
        <path d="M21.158 13.718l-.26.41c-.033.053-.085.083-.13.123-.035.03-.06.072-.101.093a.584.584 0 01-.309.067c-.027-.001-.052-.01-.078-.014a.587.587 0 01-.435-.317l-.443-.86-.695-1.353-.713-1.386a.607.607 0 01.027-.614.592.592 0 01.54-.284l4.013.181c.224.01.41.131.513.33.104.201.094.426-.027.616l-1.166 1.844-.736 1.164zm1.475-5.277h0l-4.014-.181a1.917 1.917 0 00-1.705.894 1.926 1.926 0 00-.286 1.143c.015.271.071.542.201.795l.156.302.695 1.352 1 1.945c.28.546.787.897 1.375 1 .082.014.16.04.244.043.03.002.059.002.088.002.108 0 .215-.02.32-.038.044-.007.088-.006.13-.016l.012-.003c.101-.024.195-.069.29-.109.044-.019.091-.028.133-.05.03-.016.054-.041.083-.059a1.94 1.94 0 00.34-.248c.118-.11.223-.234.31-.373l.114-.18.78-1.232 1.252-1.98.015-.025c.218-.344.305-.733.289-1.121a1.942 1.942 0 00-.203-.818 1.902 1.902 0 00-1.619-1.043h0z" transform="translate(1)"/>
    </g>
</svg>
