<?xml version="1.0" encoding="UTF-8"?>
<svg width="325px" height="120px" viewBox="0 0 325 120" version="1.1" xmlns="http://www.w3.org/2000/svg" xmlns:xlink="http://www.w3.org/1999/xlink">
    <!-- Generator: Sketch 63.1 (92452) - https://sketch.com -->
    <title>Haier</title>
    <desc>Created with Sketch.</desc>
    <g id="New-Grid" stroke="none" stroke-width="1" fill="none" fill-rule="evenodd">
        <g id="Haier">
            <rect id="backfround-copy" fill="#21252D" x="0" y="0" width="325" height="120"></rect>
            <g id="Haier_logo-2" transform="translate(104.000000, 42.000000)" fill="#F2F2F2" fill-rule="nonzero">
                <g id="Haier_logo">
                    <path d="M101.189682,24.3230694 C101.240816,23.856098 101.270792,23.3844245 101.270792,22.9068735 C101.270792,15.676751 95.2792163,9.81903673 87.8871673,9.81903673 C80.4971755,9.81903673 74.5064816,15.676751 74.5064816,22.9068735 C74.5064816,30.1346449 80.4973224,35.9901551 87.8871673,35.9901551 C93.508898,35.9901551 98.3143837,32.6074776 100.300702,27.8014041 L94.5323265,26.7907592 C93.2545469,29.1291429 90.8366694,30.7043265 88.072898,30.7043265 C84.4042776,30.7043265 81.3663184,27.9451102 80.7552,24.3229224 L101.189682,24.3229224 L101.189682,24.3230694 Z M88.0730449,15.2507755 C91.2056327,15.2507755 93.8812408,17.268098 94.9732898,20.1237061 L81.1644245,20.1237061 C82.2535347,17.2682449 84.9350204,15.2507755 88.0730449,15.2507755 Z" id="Shape"></path>
                    <rect id="Rectangle" x="64.0750041" y="10.3672653" width="6.83441633" height="25.1529796"></rect>
                    <path d="M67.4947102,0.111379592 C65.3849633,0.111379592 63.681649,1.82395102 63.681649,3.92488163 C63.681649,6.02257959 65.3849633,7.73059592 67.4947102,7.73059592 C69.5959347,7.73059592 71.3029224,6.02257959 71.3029224,3.92488163 C71.3029224,1.82395102 69.5959347,0.111379592 67.4947102,0.111379592" id="Path"></path>
                    <polygon id="Path" points="22.2449143 2.30267755 22.2449143 15.8432327 7.51342041 15.8432327 7.51342041 2.30267755 0.0427591837 2.30267755 0.0427591837 35.4977633 7.51342041 35.4977633 7.51342041 21.9566204 22.2449143 21.9566204 22.2449143 35.4977633 29.7217469 35.4977633 29.7217469 2.30267755"></polygon>
                    <path d="M53.0916245,10.3788735 L53.0916245,11.7285061 C51.1051592,10.5249306 48.7773551,9.83358367 46.2830694,9.83358367 C39.0378122,9.83358367 33.1614367,15.6876245 33.1614367,22.9120163 C33.1614367,30.1349388 39.0378122,35.990449 46.2830694,35.990449 C48.7125551,35.990449 50.9823184,35.3305469 52.9338122,34.1875102 L52.9338122,35.4979102 L59.6024816,35.4979102 L59.6024816,10.3788735 L53.0916245,10.3788735 Z M46.6163265,30.4762776 C42.3878694,30.4762776 38.9696327,27.0927184 38.9696327,22.9149551 C38.9696327,18.7336653 42.3877224,15.3476082 46.6163265,15.3476082 C50.8437551,15.3476082 54.2675755,18.7336653 54.2675755,22.9149551 C54.2675755,27.0927184 50.8436082,30.4762776 46.6163265,30.4762776 Z" id="Shape"></path>
                    <path d="M115.402188,8.03123265 C109.108506,9.12915918 104.323592,14.6046857 104.250122,21.2085551 L104.250122,35.520098 L110.794041,35.520098 L110.79742,20.9395102 C110.79742,17.601649 113.303167,14.8469878 116.532735,14.4517224 L115.402188,8.03123265 Z" id="Path"></path>
                </g>
            </g>
        </g>
    </g>
</svg>