<?xml version="1.0" encoding="UTF-8"?>
<svg width="325px" height="120px" viewBox="0 0 325 120" version="1.1" xmlns="http://www.w3.org/2000/svg" xmlns:xlink="http://www.w3.org/1999/xlink">
    <!-- Generator: Sketch 63.1 (92452) - https://sketch.com -->
    <title>Hisence</title>
    <desc>Created with Sketch.</desc>
    <g id="New-Grid" stroke="none" stroke-width="1" fill="none" fill-rule="evenodd">
        <g id="Hisence">
            <rect id="backfround-copy" fill="#21252D" x="0" y="0" width="325" height="120"></rect>
            <g id="Group-30" transform="translate(78.000000, 46.000000)" fill="#F2F2F2">
                <path d="M2.11417652,0.00868006776 C4.43564363,0.00868006776 6.6605002,-0.0164053281 8.8844188,0.0187142261 C10.0371796,0.0367757111 10.6731209,0.809405903 10.58589,1.98440584 C10.390793,4.55114355 10.1835024,7.16303496 9.97808775,9.76589563 L22.1219402,9.76589563 C22.3695633,6.55998205 22.6181245,3.29185668 22.8694995,0.0377791269 L31.4331337,0.0377791269 L29.3855528,27.4842124 C29.3677315,27.7922611 29.3508481,28.0029784 28.9493984,28 C26.2536827,27.9849169 23.5589049,27.9909374 20.7562609,27.9909374 C21.0639139,23.8739223 21.369691,19.7850027 21.678282,15.6579534 L9.53818146,15.6579534 C9.22959047,19.7368388 8.92006152,23.8147207 8.60771868,27.94177 L0,27.94177 L2.11417652,0.00868006776" id="Fill-1"></path>
                <path d="M95.3133733,26.962963 C95.7211494,20.6972495 96.1261132,14.4631133 96.5348268,8.19070156 C101.042862,7.68450692 104.085716,7.35246621 107.784761,7.29983728 C113.005232,7.22519989 119.650577,6.70178124 119.648703,13.1655709 L118.791904,26.9553078 L110.943854,26.9553078 L111.753782,13.7301358 C111.841899,11.4269024 109.401804,11.4125491 107.65446,11.4852727 C106.505187,11.534074 105.360602,11.6622973 104.159772,11.7618138 C103.840113,16.8534237 103.521391,21.8933615 103.200795,26.962963 L95.3133733,26.962963" id="Fill-2"></path>
                <path d="M75.9385789,19.2929289 C75.9829796,21.8720909 78.740544,23.0424751 80.8850014,23.4319492 C84.4162708,24.0725702 88.6645637,23.2592856 92.2969155,22.7668021 L91.6469655,26.9175949 C87.032131,28.245927 77.5776246,28.7187897 72.5735758,26.1739643 C68.1316204,23.9156034 66.9233557,18.8465543 68.7655107,14.5113255 C70.7984941,9.7267789 75.9650304,7.44094878 80.9190104,7.27024731 C84.6533892,7.14074963 88.4879058,8.15122389 90.8127999,10.5488929 C92.7607607,12.55905 93.7441881,15.5473068 93.0772335,19.2929289 C87.7274264,19.2929289 81.2883861,19.2929289 75.9385789,19.2929289 Z M86.2414324,15.4021125 C86.2470895,12.5737656 84.0695678,11.2209073 81.5576241,11.2729026 C79.2308406,11.3219548 76.687722,12.6237988 76.3211804,15.4021125 L86.2414324,15.4021125 L86.2414324,15.4021125 Z" id="Fill-3"></path>
                <path d="M151.986021,19.2929289 C152.030422,21.8720909 154.788946,23.0424751 156.932469,23.4319492 C160.463757,24.0725702 164.712072,23.2592856 168.344442,22.7668021 L167.694489,26.9175949 C163.07963,28.245927 153.625075,28.7187897 148.621001,26.1739643 C144.179967,23.9156034 142.970752,18.8465543 144.813861,14.5113255 C146.846855,9.7267789 152.012473,7.44094878 156.966478,7.27024731 C160.699932,7.14074963 164.535413,8.15122389 166.860319,10.5488929 C168.80829,12.55905 169.792667,15.5473068 169.124764,19.2929289 C163.774929,19.2929289 157.335856,19.2929289 151.986021,19.2929289 Z M162.288928,15.4021125 C162.294585,12.5737656 160.117052,11.2209073 157.605095,11.2729026 C155.2783,11.3219548 152.735168,12.6237988 152.368625,15.4021125 L162.288928,15.4021125 L162.288928,15.4021125 Z" id="Fill-4"></path>
                <path d="M66.3151547,12.5518872 C63.1622326,12.0033812 57.1137887,10.9776552 54.2429992,11.8657597 C52.5098997,12.5895104 55.0032912,13.7083042 55.5712202,13.980577 C58.0243071,15.1567957 61.2349381,16.2904407 63.5991716,17.7320016 C68.0079495,19.8200867 68.8131263,26.0566198 61.1442526,27.5645162 C56.9159296,28.4258884 49.2122474,27.8387692 44.6147705,27.2674913 L44.9573599,22.7289507 C50.7374116,23.6645792 52.5117317,23.6180453 56.7501309,23.6160651 C57.4353098,23.6160651 58.4951386,22.684397 57.5681319,22.1497521 C54.1202532,20.3507712 48.683707,18.952774 46.2379482,16.3122226 C44.332638,14.2578003 44.647747,11.15389 46.8928986,9.49649098 C51.4546509,6.12723843 62.175685,7.29949674 66.7246131,8.29750043 L66.3151547,12.5518872" id="Fill-5"></path>
                <path d="M142.362703,12.5518872 C139.210749,12.0033812 133.161488,10.9776552 130.291662,11.8657597 C128.557675,12.5895104 131.051941,13.7083042 131.618945,13.980577 C134.071992,15.1567957 137.28257,16.2904407 139.646765,17.7320016 C144.056386,19.8200867 144.860634,26.0566198 137.191886,27.5645162 C132.963632,28.4258884 125.260076,27.8387692 120.662675,27.2674913 L121.005258,22.7289507 C126.785215,23.6645792 128.559507,23.6180453 132.797836,23.6160651 C133.483004,23.6160651 134.542815,22.684397 133.61674,22.1497521 C130.168002,20.3507712 124.731545,18.952774 122.285826,16.3122226 C120.380547,14.2578003 120.695651,11.15389 122.940765,9.49649098 C127.502443,6.12723843 138.223301,7.29949674 142.772155,8.29750043 L142.362703,12.5518872" id="Fill-6"></path>
                <path d="M33.9958046,7.25925926 L42.5868263,7.25925926 C42.0702745,13.8433575 41.5546793,20.3973293 41.0390841,26.962963 L32.4471058,26.962963 C32.9646142,20.3740056 33.4792528,13.819062 33.9958046,7.25925926" id="Fill-7"></path>
                <path d="M34.4750499,5.18518519 C34.6175381,3.42777398 34.7531475,1.74483754 34.8926877,0.0232129163 L41.7940293,0 C44.3381804,0.00193440969 43.5225584,1.77095207 43.2945773,5.18518519 L34.4750499,5.18518519" id="Fill-8"></path>
            </g>
        </g>
    </g>
</svg>