<?xml version="1.0" encoding="UTF-8"?>
<svg width="325px" height="120px" viewBox="0 0 325 120" version="1.1" xmlns="http://www.w3.org/2000/svg" xmlns:xlink="http://www.w3.org/1999/xlink">
    <!-- Generator: Sketch 63.1 (92452) - https://sketch.com -->
    <title>LG</title>
    <desc>Created with Sketch.</desc>
    <g id="New-Grid" stroke="none" stroke-width="1" fill="none" fill-rule="evenodd">
        <g id="LG">
            <rect id="backfround-copy" fill="#21252D" x="0" y="0" width="325" height="120"></rect>
            <g id="Group-4" transform="translate(113.000000, 38.000000)" fill="#F2F2F2" fill-rule="nonzero">
                <path d="M21.6088889,0 C33.5331937,0 43.2177778,9.84771942 43.2177778,22.0048421 C43.2177778,34.1613952 33.5331937,44 21.6088889,44 C9.66613402,44 0,34.1613952 0,22.0048421 C0,9.84771942 9.66613402,0 21.6088889,0 Z M21.6131277,3.3 C11.5303035,3.3 3.32444444,11.6970629 3.32444444,22.0049143 C3.32444444,27.0117006 5.22627761,31.704551 8.67105417,35.2335838 C12.1299602,38.7545224 16.719793,40.7 21.6131277,40.7 C26.4878116,40.7 31.0765139,38.7545224 34.529203,35.2335838 C37.9824573,31.704551 39.8933333,27.0117006 39.8933333,22.0049143 L39.8933333,21.1729552 L26.8342673,21.1729552 L26.8342673,22.8946884 L38.1514463,22.8946884 L38.1481082,23.1058309 L38.1435338,23.1623723 C37.5681798,31.9745475 30.3734291,38.9539844 21.6131277,38.9539844 C17.1787197,38.9539844 13.0206851,37.1900462 9.89127937,33.9865124 C6.7517004,30.796276 5.02168218,26.5462892 5.02168218,22.0043361 C5.02168218,17.4883999 6.7517004,13.2164433 9.89127937,10.0163784 C12.9003233,6.94217243 16.8603925,5.19307369 21.1027346,5.06307528 L21.6131277,5.05526596 C21.8041588,5.05526596 22.2687374,5.05526596 22.4829409,5.06682898 L22.4829409,3.32601679 L21.9431481,3.30582776 C21.8153268,3.3023126 21.6960963,3.3 21.6131277,3.3 Z M22.9711612,12.1 L21.0548148,12.1 L21.0548148,31.9 L27.7037037,31.9 L27.7037037,30.1196536 L22.9711612,30.1196536 L22.9711612,12.1 Z M14.96,12.1 C13.4260922,12.1 12.1896296,13.341476 12.1896296,14.8529672 C12.1896296,16.3644584 13.4260922,17.6 14.96,17.6 C16.4939078,17.6 17.7303704,16.3632715 17.7303704,14.8529672 C17.7303704,13.341476 16.4939078,12.1 14.96,12.1 Z" id="Shape"></path>
                <path d="M60.7833809,7.02401522 L54.2992593,7.02401522 L54.2992593,35.8719684 L74.215015,35.8719684 L74.215015,30.2564921 L60.7833809,30.2564921 L60.7833809,7.02401522 L60.7833809,7.02401522 Z M88.4790777,24.8785561 L93.7600582,24.8785561 L93.7600582,29.9225586 C92.7863792,30.3035411 90.8875934,30.6833762 89.0809275,30.6833762 C83.2449947,30.6833762 81.3009865,27.637237 81.3009865,21.4502869 C81.3009865,15.5502212 83.1523165,12.0714603 88.9882493,12.0714603 C92.2314268,12.0714603 94.0838735,13.1191623 95.6102716,15.118747 L99.6417718,11.3094952 C97.1863587,7.69475108 92.8779407,6.6 88.8497904,6.6 C79.7695636,6.6 74.9999879,11.6927728 74.9999879,21.4020903 C74.9999879,31.0643587 79.3072893,36.3 88.8040096,36.3 C93.1570918,36.3 97.4186124,35.1581999 99.7333333,33.4925487 L99.7333333,19.4983251 L88.4790777,19.4983251 L88.4790777,24.8785561 Z" id="Shape"></path>
            </g>
        </g>
    </g>
</svg>