<?xml version="1.0" encoding="UTF-8"?>
<svg width="325px" height="120px" viewBox="0 0 325 120" version="1.1" xmlns="http://www.w3.org/2000/svg" xmlns:xlink="http://www.w3.org/1999/xlink">
    <!-- Generator: Sketch 63.1 (92452) - https://sketch.com -->
    <title>Philips</title>
    <desc>Created with Sketch.</desc>
    <g id="New-Grid" stroke="none" stroke-width="1" fill="none" fill-rule="evenodd">
        <g id="Philips">
            <rect id="backfround-copy" fill="#21252D" x="0" y="0" width="325" height="120"></rect>
            <path d="M228.110276,46 C231.556273,46 233.446373,46.3371186 235.554173,46.7905571 L235.554173,46.7905571 L236.224315,52.6344109 C234.333868,51.8487295 231.556273,51.2831503 229.004726,51.2831503 C226.673661,51.2831503 225.228352,51.9629597 225.228352,53.4225301 C225.228352,57.6946728 238,56.0076867 238,65.0050623 C238,71.7477829 232.447594,74 225.672795,74 C223.005442,74 219.669686,73.5465615 217.223859,72.6476946 L217.223859,72.6476946 L216.33706,66.4639361 C218.779061,67.701663 222.892767,68.5987885 225.557685,68.5987885 C228.55924,68.5987885 229.781284,67.701663 229.781284,66.0139803 C229.781284,61.6262143 217.114313,63.543054 217.114313,54.0932847 C217.114313,48.6154554 221.559786,46 228.110276,46 Z M121.669329,46.5631413 L121.669329,57.2440204 L130.11444,57.2440204 L130.11444,46.5631413 L138.224306,46.5631413 L138.224306,73.4365104 L130.11444,73.4365104 L130.11444,62.8639411 L121.669329,62.8639411 L121.669329,73.4365104 L113.554594,73.4365104 L113.554594,46.5631413 L121.669329,46.5631413 Z M166.443996,46.5631413 L166.443996,68.0384333 L174.218269,68.0384333 L173.003528,73.4365104 L158.334478,73.4365104 L158.334478,46.5631413 L166.443996,46.5631413 Z M152.336238,46.5631413 L152.336238,73.4365104 L144.222198,73.4365104 L144.222198,46.5631413 L152.336238,46.5631413 Z M185.223969,46.5631413 L185.223969,73.4365104 L177.110974,73.4365104 L177.110974,46.5631413 L185.223969,46.5631413 Z M201.223566,46 C209.560523,46 214.666747,48.6959042 214.666747,56.2281372 C214.666747,63.0903121 209.889508,67.0239431 202.340238,67.0239431 L202.340238,67.0239431 L199.448577,67.0239431 L199.448577,73.4365104 L191.333147,73.4365104 L191.333147,46.5631413 C194.110046,46.2225401 197.997704,46 201.223566,46 Z M96.886942,46 C105.224594,46 110.331514,48.6959042 110.331514,56.2281372 C110.331514,63.0903121 105.554274,67.0239431 98.0004836,67.0239431 L98.0004836,67.0239431 L95.1091704,67.0239431 L95.1091704,73.4365104 L87,73.4365104 L87,46.5631413 C89.7807242,46.2225401 93.669078,46 96.886942,46 Z M200.778776,51.0602619 C200.361458,51.0602619 199.920493,51.0602619 199.448229,51.088123 L199.448229,51.088123 L199.448229,62.1900521 L200.778776,62.1900521 C205.002027,62.1900521 206.667123,59.8295252 206.667123,56.343064 C206.667123,52.9697882 204.776328,51.0602619 200.778776,51.0602619 Z M96.4449335,51.0602619 C96.0276162,51.0602619 95.5814344,51.0602619 95.1091704,51.088123 L95.1091704,51.088123 L95.1091704,62.1900521 L96.4449335,62.1900521 C100.667489,62.1900521 102.33328,59.8295252 102.33328,56.343064 C102.33328,52.9697882 100.442485,51.0602619 96.4449335,51.0602619 Z" id="Combined-Shape" fill="#F2F2F2" fill-rule="nonzero"></path>
        </g>
    </g>
</svg>