<?xml version="1.0" encoding="UTF-8"?>
<svg width="325px" height="120px" viewBox="0 0 325 120" version="1.1" xmlns="http://www.w3.org/2000/svg" xmlns:xlink="http://www.w3.org/1999/xlink">
    <!-- Generator: Sketch 63.1 (92452) - https://sketch.com -->
    <title>Group 16</title>
    <desc>Created with Sketch.</desc>
    <g id="New-Grid" stroke="none" stroke-width="1" fill="none" fill-rule="evenodd">
        <g id="Group-16">
            <rect id="backfround-copy" fill="#21252D" x="0" y="0" width="325" height="120"></rect>
            <g id="Group-25" transform="translate(72.000000, 46.000000)" fill="#FFFFFF" fill-rule="nonzero">
                <g id="Group">
                    <polygon id="Shape" points="149.456556 21.3310987 149.105877 0.855121043 155.490308 0.855121043 155.490308 26.6651769 146.310754 26.6651769 139.936636 5.48528864 139.797396 5.48528864 140.153232 26.6651769 133.8049 26.6651769 133.8049 0.855121043 143.386705 0.855121043 149.317316 21.3310987"></polygon>
                    <polygon id="Shape" points="33.3712907 3.2744879 29.8387093 26.9363128 22.8715306 26.9363128 27.6521188 0.855121043 39.126562 0.855121043 43.891679 26.9363128 36.9502856 26.9363128 33.5156882 3.2744879"></polygon>
                    <polygon id="Shape" points="63.4523815 20.794041 66.6394403 0.855121043 77.1598287 0.855121043 77.7167904 26.9363128 71.270474 26.9363128 71.1002913 3.48826816 70.9662079 3.48826816 66.6549115 26.9363128 60.1106111 26.9363128 55.7941576 3.48826816 55.6549172 3.48826816 55.4950485 26.9363128 49.033261 26.9363128 49.6056939 0.855121043 60.1312393 0.855121043 63.3131411 20.794041"></polygon>
                    <path d="M12.0107767,19.5791434 C12.2634723,20.2100559 12.1861165,21.0234637 12.0675043,21.513594 C11.8509081,22.3791434 11.2681611,23.2655493 9.55601942,23.2655493 C7.93670474,23.2655493 6.95686465,22.3270019 6.95686465,20.898324 L6.95686465,18.3746741 L0.0360993718,18.3746741 L0.0309423187,20.3925512 C0.0309423187,26.2063315 4.55883495,27.9635009 9.41162193,27.9635009 C14.078755,27.9635009 17.9207596,26.3523277 18.5292918,22.0037244 C18.8438721,19.7512104 18.6066476,18.2756052 18.5035066,17.7176909 C17.4153684,12.258473 7.6221245,10.6264432 6.89498001,7.57616387 C6.77121074,7.0547486 6.80731011,6.49683426 6.86919475,6.19962756 C7.0496916,5.37057728 7.61181039,4.45288641 9.22596802,4.45288641 C10.7318275,4.45288641 11.6239977,5.39664804 11.6239977,6.82011173 C11.6239977,7.29981378 11.6239977,8.43128492 11.6239977,8.43128492 L18.0548429,8.43128492 L18.0548429,6.60111732 C18.0548429,0.917690875 13.011245,0.0312849162 9.3600514,0.0312849162 C4.77027413,0.0312849162 1.02109652,1.56424581 0.335208452,5.80856611 C0.14955454,6.98175047 0.123769275,8.02458101 0.391936037,9.33333333 C1.52133067,14.6569832 10.680257,16.2003724 12.0107767,19.5791434 Z" id="Shape"></path>
                    <path d="M95.8902456,19.532216 C96.1429412,20.1579143 96.0604283,20.9504655 95.9469732,21.4405959 C95.735534,22.3061453 95.157944,23.1769088 93.4561165,23.1769088 C91.8625871,23.1769088 90.8879041,22.2383613 90.8879041,20.8409683 L90.882747,18.338175 L84.0341805,18.338175 L84.0238664,20.3299814 C84.0238664,26.086406 88.5105026,27.8227188 93.311719,27.8227188 C97.9272816,27.8227188 101.733187,26.2324022 102.336562,21.9255121 C102.651142,19.6886406 102.429389,18.233892 102.315934,17.686406 C101.232953,12.2793296 91.5428498,10.6629423 90.8208624,7.63873371 C90.6970931,7.11731844 90.7331925,6.5698324 90.7950771,6.28826816 C90.980731,5.44878957 91.5325357,4.55716946 93.1312222,4.55716946 C94.6267676,4.55716946 95.4983095,5.47486034 95.4983095,6.89310987 C95.4983095,7.36759777 95.4983095,8.4886406 95.4983095,8.4886406 L101.882741,8.4886406 L101.882741,6.67411546 C101.882741,1.05325885 96.8803998,0.172067039 93.2601485,0.172067039 C88.7219417,0.172067039 85.0037065,1.68417132 84.3332895,5.90242086 C84.1476356,7.05996276 84.1270074,8.08193669 84.3951742,9.38547486 C85.5039406,14.6569832 94.575197,16.1899441 95.8902456,19.532216 Z" id="Shape"></path>
                    <path d="M117.555026,23.0361266 C119.344523,23.0361266 119.901485,21.78473 120.025254,21.1433892 C120.076825,20.861825 120.092296,20.486406 120.087139,20.147486 L120.087139,0.844692737 L126.610811,0.844692737 L126.610811,19.5530726 C126.626282,20.0327747 126.579869,21.0182495 126.554083,21.2633147 C126.095106,26.1333333 122.2892,27.7132216 117.549869,27.7132216 C112.80538,27.7132216 108.994318,26.1333333 108.540497,21.2633147 C108.519869,21.0182495 108.473455,20.0275605 108.483769,19.5530726 L108.483769,0.844692737 L115.002284,0.844692737 L115.002284,20.1422719 C115.002284,20.4811918 115.012599,20.861825 115.064169,21.138175 C115.208567,21.7795158 115.750057,23.0361266 117.555026,23.0361266 Z" id="Shape"></path>
                    <path d="M171.368875,22.7597765 C173.235728,22.7597765 173.890674,21.5657356 174.009286,20.8722533 C174.0557,20.5750466 174.071171,20.2100559 174.066014,19.8815642 L174.066014,16.0960894 L171.420445,16.0960894 L171.420445,12.2897579 L180.569058,12.2897579 L180.569058,19.292365 C180.563901,19.7824953 180.553587,20.1422719 180.476231,21.0130354 C180.048195,25.7579143 175.974123,27.452514 171.404974,27.452514 C166.825511,27.452514 162.761753,25.7579143 162.323404,21.0130354 C162.251205,20.1422719 162.240891,19.7824953 162.230577,19.292365 L162.235734,8.3113594 C162.235734,7.84729981 162.292461,7.02867784 162.344032,6.59068901 C162.916465,1.71545624 166.825511,0.145996276 171.404974,0.145996276 C175.97928,0.145996276 179.986311,1.70502793 180.46076,6.59068901 C180.543272,7.41973929 180.517487,8.3113594 180.517487,8.3113594 L180.517487,9.18212291 L174.014443,9.18212291 L174.014443,7.72216015 C174.0196,7.7273743 174.004129,7.10167598 173.93193,6.73147114 C173.823632,6.15270019 173.328555,4.8283054 171.358561,4.8283054 C169.476236,4.8283054 168.929589,6.07970205 168.790348,6.73147114 C168.712993,7.07560521 168.68205,7.5396648 168.68205,7.96201117 L168.68205,19.8919926 C168.676893,20.2204842 168.697521,20.5854749 168.749092,20.8826816 C168.852233,21.5657356 169.502022,22.7597765 171.368875,22.7597765 Z" id="Shape"></path>
                </g>
            </g>
        </g>
    </g>
</svg>