<?xml version="1.0" encoding="UTF-8"?>
<svg width="325px" height="120px" viewBox="0 0 325 120" version="1.1" xmlns="http://www.w3.org/2000/svg" xmlns:xlink="http://www.w3.org/1999/xlink">
    <!-- Generator: Sketch 63.1 (92452) - https://sketch.com -->
    <title>Sony</title>
    <desc>Created with Sketch.</desc>
    <g id="New-Grid" stroke="none" stroke-width="1" fill="none" fill-rule="evenodd">
        <g id="Sony">
            <rect id="backfround-copy" fill="#21252D" x="0" y="0" width="325" height="120"></rect>
            <g id="Group-28" transform="translate(87.000000, 46.000000)" fill="#F2F2F2" fill-rule="nonzero">
                <path d="M40.121896,23.0679532 C37.5443057,20.6472775 36.3057193,17.3592463 36.3057193,13.9750907 C36.3057193,10.6321312 37.5977193,7.32142613 40.1215908,4.91352449 C43.2900888,1.89215082 48.8841771,0 54.1510687,0 C59.9795666,0 64.6445626,1.53607518 68.2107634,4.9218276 C70.7480646,7.33100664 71.9747473,10.6270216 71.9747473,13.97541 C71.9747473,17.2209676 70.6729803,20.6772965 68.2107634,23.0679532 C64.8899602,26.292753 59.6712936,27.9996806 54.1510687,27.9996806 L54.1510687,24.3067132 C57.0735586,24.3067132 59.7845305,23.2509409 61.6778156,21.2799106 C63.5579763,19.3222929 64.4339602,16.915988 64.4339602,13.9750907 C64.4339602,11.1577819 63.4889963,8.5237802 61.6778156,6.65558065 C59.8098638,4.73053674 57.0341851,3.64730035 54.1510687,3.64730035 C51.2591008,3.64730035 48.4815908,4.71935947 46.6121129,6.65558065 C44.8106992,8.5231415 43.8632936,11.1648076 43.8632936,13.9750907 C43.8632936,16.7767513 44.8216872,19.4168206 46.6121129,21.2802299 C48.4831169,23.2276284 51.2508598,24.3070326 54.1510687,24.3070326 L54.1510687,28 C48.644884,27.9996806 43.5336551,26.2719953 40.121896,23.0679532 Z M4.7718239,1.91833755 C2.14783997,3.1433655 -3.16277679e-14,5.12461507 -3.16277679e-14,8.40913342 C-0.00122026165,11.3672757 1.79561507,13.0997514 1.74677973,13.0518488 C2.51105282,13.7879514 3.7413982,15.0414015 6.95812108,15.777504 C8.39571143,16.1064349 11.4692857,16.6116472 14.5300407,16.9463263 C17.5682094,17.2816442 20.5581531,17.6003558 21.7759845,17.9228997 C22.7435347,18.1806154 24.3688359,18.5315815 24.3688359,20.4393805 C24.3688359,22.339515 22.6565467,22.9194553 22.3589564,23.0452793 C22.0616712,23.1682292 20.0075347,24.1543831 16.3149724,24.1543831 C13.5887395,24.1543831 10.3112777,23.296608 9.11664315,22.8495176 C7.73948653,22.3366409 6.2948761,21.6583407 4.9473259,19.9360843 C4.61219337,19.5091129 4.08355081,18.3348617 4.08355081,17.172107 L0.741687366,17.172107 L0.741687366,26.9697758 L4.4562255,26.9697758 L4.4562255,25.6460686 C4.4562255,25.4953352 4.63630582,24.8754762 5.25987209,25.1702365 C6.03574357,25.5390862 8.31330179,26.4878761 10.6946351,27.0080978 C12.6471331,27.4353886 13.9061692,27.7416456 16.3335909,27.7416456 C20.2941371,27.7416456 22.4218319,27.0665389 23.8926913,26.6271128 C25.2783941,26.2119574 26.9906832,25.4665937 28.3815748,24.3060745 C29.1348599,23.6785511 30.7867154,22.0699833 30.7867154,19.1501631 C30.7867154,16.3475444 29.349125,14.6080431 28.843374,14.0788795 C28.1544905,13.3577864 27.3129965,12.7989233 26.4360969,12.3681197 C25.672129,11.991925 24.4665065,11.5400443 23.4800327,11.2874381 C21.5653821,10.7956386 17.2361291,10.1888729 15.1658158,9.96213417 C12.9947797,9.72485686 9.22865922,9.3984808 7.72453071,8.91147152 C7.26853071,8.76361231 6.33882791,8.30023495 6.33882791,7.17101211 C6.33882791,6.36784598 6.76400059,5.68699104 7.60427368,5.13675038 C8.93808894,4.26236912 11.6322737,3.71883483 14.440611,3.71883483 C17.7608038,3.70606081 20.5724985,4.50028513 22.3610929,5.33698305 C22.9693981,5.62120486 23.6811732,6.02933461 24.2464423,6.51219234 C24.8843539,7.05636534 25.779872,8.18718493 26.1037114,9.76445631 L29.1040326,9.76445631 L29.1040326,1.23588586 L25.7539282,1.23588586 L25.7539282,2.22714934 C25.7539282,2.54713839 25.4380246,2.96293255 24.8407073,2.61931157 C23.3414624,1.79634572 19.1025548,0.0207577728 13.905864,0.0134127147 C10.9610929,0.0134127147 7.61495641,0.589840097 4.7718239,1.91833755 Z M87.3224742,1.56321996 L103.664611,16.9942289 L103.496739,6.60480394 C103.480257,5.24245535 103.240354,4.67369237 101.832064,4.67369237 L98.7594058,4.67369237 L98.7594058,1.56577477 L112.732418,1.56577477 L112.732418,4.67369237 L109.735149,4.67369237 C108.298779,4.67369237 108.208129,5.15431465 108.190731,6.60480394 L108.444064,26.4565798 L103.658811,26.4565798 L84.8358396,8.87953649 L84.8398075,21.3539999 C84.8562894,22.7099614 84.9170284,23.3486622 86.2523697,23.3486622 L89.6082733,23.3486622 L89.6082733,26.4553024 L75.8855425,26.4553024 L75.8855425,23.3489815 L79.093414,23.3489815 C80.2917111,23.3489815 80.2440967,22.1536531 80.2440967,21.2834234 L80.2440967,6.72296357 C80.2440967,5.78311549 80.1180405,4.67592783 78.2366589,4.67592783 L75.6337353,4.67592783 L75.6337353,1.56321996 L87.3224742,1.56321996 Z M129.526586,23.289263 C129.849205,23.1838774 130.068048,22.9430872 130.169382,22.6920778 C130.212113,22.5866922 130.233478,22.1204407 130.233478,22.0192066 L130.23592,17.1075983 C130.23592,16.9894386 130.227679,16.9383426 130.036,16.6751979 C129.825398,16.3877826 121.47608,6.48792171 121.093944,6.05200849 C120.619325,5.51070964 119.786072,4.67401172 118.520016,4.67401172 L115.61645,4.67401172 L115.61645,1.56481672 L132.002843,1.56481672 L132.002843,4.67017952 L130.027454,4.67017952 C129.570538,4.67017952 129.266843,5.12365702 129.657221,5.62759187 C129.657221,5.62759187 135.170426,12.5277949 135.222619,12.5999681 C135.273896,12.6734186 135.317847,12.6909829 135.388048,12.6239193 C135.457028,12.555259 141.039518,5.69082324 141.08347,5.63653368 C141.349012,5.30377062 141.168932,4.67369237 140.596643,4.67369237 L138.570281,4.67369237 L138.570281,1.56481672 L152,1.56481672 L152,4.67369237 L148.999679,4.67369237 C147.911261,4.67369237 147.468386,4.88446361 146.649478,5.85305322 C146.274972,6.2963115 137.83653,16.3740505 137.607004,16.6470951 C137.486747,16.7898447 137.497125,16.9887999 137.497125,17.1069596 L137.497125,22.0179292 C137.497125,22.1175666 137.51849,22.5844568 137.561221,22.6892037 C137.662859,22.9414905 137.882924,23.1822806 138.205237,23.2863888 C138.318169,23.3227948 138.893205,23.3406784 139.024145,23.3406784 L142.093141,23.3406784 L142.093141,26.4492347 L125.791293,26.4492347 L125.791293,23.340359 L128.700048,23.3429138 C128.830683,23.3429138 129.413655,23.3253496 129.526586,23.289263 Z" id="path4258"></path>
            </g>
        </g>
    </g>
</svg>