<?xml version="1.0" encoding="UTF-8"?>
<svg width="325px" height="120px" viewBox="0 0 325 120" version="1.1" xmlns="http://www.w3.org/2000/svg" xmlns:xlink="http://www.w3.org/1999/xlink">
    <!-- Generator: Sketch 63.1 (92452) - https://sketch.com -->
    <title>TCL</title>
    <desc>Created with Sketch.</desc>
    <g id="New-Grid" stroke="none" stroke-width="1" fill="none" fill-rule="evenodd">
        <g id="TCL">
            <rect id="backfround-copy" fill="#21252D" x="0" y="0" width="325" height="120"></rect>
            <g id="TCL_(Elektronikkonzern)_logo" transform="translate(123.000000, 36.000000)" fill="#F2F2F2" fill-rule="nonzero">
                <path d="M79.4953846,1.3117712e-13 L79.4953846,47.3792308 L-2.62354241e-13,47.3792308 L-2.62354241e-13,11.7507692 C-2.62354241e-13,5.29038462 5.28923077,1.3117712e-13 11.7519231,1.3117712e-13 L79.4953846,1.3117712e-13 Z M40.9730769,14.9180769 C37.9211446,14.9180769 35.775,15.6 33.9923077,17.1103846 C32.1969323,18.6519231 31.2230769,21.06 31.2230769,23.4853846 L31.2230769,23.6296154 C31.2230769,26.2811538 32.0642308,28.2738462 33.9057692,29.9469231 C35.6273077,31.5115385 38.1253846,32.2061538 40.9153846,32.1971028 C43.3880677,32.1971028 45.5319231,31.6280769 47.0019231,30.5238462 C48.6219323,29.2996154 49.725,27.5688462 49.8576923,25.3026923 L44.8673077,25.3026923 L44.8416533,25.4618782 C44.6619723,26.4674856 43.9841903,28.3315385 40.9442308,28.3315385 C39.63924,28.3315385 38.6607692,27.9519231 37.8288462,27.1776923 C37.0153938,26.4196154 36.4153846,25.2634615 36.4153846,23.6873077 L36.4153846,23.4276923 C36.4153846,21.8596154 37.0153846,20.6907692 37.8288462,19.9373077 C38.6607785,19.1573077 39.6461538,18.8123077 40.9442308,18.8123077 C44.0111631,18.8123077 44.6434615,20.6226923 44.8384615,21.8123077 L49.8288462,21.8123077 C49.7065385,19.41 48.5619231,17.715 46.9442308,16.5911538 C45.3346154,15.4719231 43.4561538,14.9180769 40.9730769,14.9180769 Z M29.925,15.7834615 L11.7519231,15.7834615 L11.7519231,20.3123077 L18.0403846,20.3123077 L18.0403846,31.5623077 L23.6365385,31.5623077 L23.6365385,20.3123077 L29.925,20.3123077 L29.925,15.7834615 Z M58.2519231,15.7834615 L52.8576923,15.7834615 L52.8576923,31.5623077 L67.1365385,31.5623077 L67.1365385,27.2353846 L58.2519231,27.2353846 L58.2519231,15.7834615 Z" id="Shape"></path>
            </g>
        </g>
    </g>
</svg>