<?xml version="1.0" encoding="UTF-8"?>
<svg width="325px" height="120px" viewBox="0 0 325 120" version="1.1" xmlns="http://www.w3.org/2000/svg" xmlns:xlink="http://www.w3.org/1999/xlink">
    <!-- Generator: Sketch 63.1 (92452) - https://sketch.com -->
    <title>Xiaomi</title>
    <desc>Created with Sketch.</desc>
    <g id="New-Grid" stroke="none" stroke-width="1" fill="none" fill-rule="evenodd">
        <g id="Xiaomi">
            <rect id="backfround-copy" fill="#21252D" x="0" y="0" width="325" height="120"></rect>
            <g id="Group-15" transform="translate(83.000000, 36.000000)" fill="#F2F2F2">
                <path d="M94.9644939,14.974247 C92.9585113,14.974247 90.3026504,15.4851339 88.6122157,15.9922643 L88.6122157,18.9824557 C91.1253287,18.3325774 93.0524243,18.1146991 95.1823722,18.1146991 C98.4167374,18.1146991 99.551207,19.3205426 99.551207,21.2288557 L99.551207,21.4955687 C90.6858157,21.2063165 87.3800765,23.62176 87.3800765,27.171673 C87.3800765,30.7178296 90.133607,32.6749774 96.6060939,32.6749774 C98.5106504,32.6749774 101.215346,32.3143513 103.296459,31.5405078 L103.296459,21.6195339 C103.296459,16.9088557 101.072598,14.974247 94.9644939,14.974247 L94.9644939,14.974247 Z M99.6488765,29.3429426 C95.4453287,30.3572035 91.0501983,29.7073252 91.0501983,27.3407165 C91.0501983,25.09056 93.5858504,23.959847 99.6488765,24.2753948 L99.6488765,29.3429426 Z M80.37792,32.3368904 L84.1419548,32.3368904 L84.1419548,15.4325426 L80.37792,15.4325426 L80.37792,32.3368904 Z M115.005537,14.974247 C109.355729,14.974247 106.121363,18.1409948 106.121363,23.6668383 C106.143903,29.418073 109.378268,32.701273 115.005537,32.6751341 C120.681642,32.6751341 123.916007,29.3917774 123.916007,23.6668383 C123.916007,18.1409948 120.681642,14.974247 115.005537,14.974247 L115.005537,14.974247 Z M115.005537,29.8275339 C111.865085,29.8275339 110.076981,27.5773774 110.076981,23.6668383 C110.076981,19.9478817 111.865085,17.825447 115.005537,17.825447 C118.172285,17.825447 119.956633,19.9478817 119.956633,23.6668383 C119.956633,27.5773774 118.172285,29.8275339 115.005537,29.8275339 L115.005537,29.8275339 Z M154.68192,32.3368904 L158.449711,32.3368904 L158.449711,15.4325426 L154.68192,15.4325426 L154.68192,32.3368904 Z M139.757259,17.48736 C138.528877,15.8908383 136.305016,14.974247 133.649155,14.974247 C131.545503,14.974247 128.844563,15.6278817 126.816042,16.615847 L126.86112,32.3368904 L130.628911,32.3368904 L130.628911,18.7420383 C131.522963,18.3551165 132.706268,18.1409948 133.818198,18.1146991 C135.797885,18.0658643 137.101398,19.3468383 137.101398,21.2063165 L137.101398,32.3368904 L140.84665,32.3368904 L140.84665,17.9944904 L139.975137,19.8802643 C141.207277,18.790873 142.706129,18.186073 144.081016,18.186073 C146.064459,18.186073 147.33792,19.2980035 147.33792,21.1574817 L147.33792,32.3368904 L151.105711,32.3368904 L151.105711,19.9478817 C151.105711,16.9539339 148.739103,14.974247 145.121572,14.974247 C142.537085,14.974247 140.099103,15.7706296 138.453746,17.1981078 L139.757259,17.48736 Z M77.2374678,15.4325426 L72.940007,15.4325426 L68.5899548,21.1349426 L64.2924939,15.4325426 L59.8485287,15.4325426 L66.2721809,23.715673 L59.5367374,32.3368904 L63.8116591,32.3368904 L68.447207,26.3226991 L73.0113809,32.3368904 L77.4816417,32.3368904 L70.7687374,23.6931339 L77.2374678,15.4325426 Z" id="Fill-1"></path>
                <path d="M37.6591304,32.3812174 C37.6591304,32.5389913 37.5276522,32.6629565 37.3698783,32.6629565 L33.6208696,32.6629565 C33.4593391,32.6629565 33.3278609,32.5389913 33.3278609,32.3812174 L33.3278609,15.2740174 C33.3278609,15.1162435 33.4593391,14.9885217 33.6208696,14.9885217 L37.3698783,14.9885217 C37.5276522,14.9885217 37.6591304,15.1162435 37.6591304,15.2740174 L37.6591304,32.3812174 Z M29.9394783,32.3812174 C29.9394783,32.5389913 29.808,32.6629565 29.6502261,32.6629565 L25.9012174,32.6629565 C25.739687,32.6629565 25.6119652,32.5389913 25.6119652,32.3812174 L25.6119652,21.5323826 C25.6119652,20.4091826 24.9658435,18.6736696 22.6969043,18.6736696 L14.6166261,18.6736696 C14.4550957,18.6736696 14.3273739,18.8013913 14.3273739,18.9554087 L14.3273739,32.3812174 C14.3273739,32.5389913 14.1958957,32.6629565 14.0343652,32.6629565 L10.2853565,32.6629565 C10.1238261,32.6629565 9.99610435,32.5389913 9.99610435,32.3812174 L9.99610435,15.2740174 C9.99610435,15.1162435 10.1238261,14.9885217 10.2853565,14.9885217 L24.5676522,14.9885217 C25.9425391,14.9885217 27.1784348,15.2176696 28.5270261,16.5399652 C29.8192696,17.805913 29.9394783,19.2446609 29.9394783,20.2476522 L29.9394783,32.3812174 Z M22.2348522,32.3812174 C22.2348522,32.5389913 22.0996174,32.6629565 21.9418435,32.6629565 L18.0050087,32.6629565 C17.8472348,32.6629565 17.712,32.5389913 17.712,32.3812174 L17.712,22.0883478 C17.712,21.9305739 17.8472348,21.8028522 18.0050087,21.8028522 L21.9418435,21.8028522 C22.0996174,21.8028522 22.2348522,21.9305739 22.2348522,22.0883478 L22.2348522,32.3812174 Z M45.8445913,-5.93148719e-15 L1.80688696,-5.93148719e-15 C0.807652174,-5.93148719e-15 -5.93148719e-15,0.811408696 -5.93148719e-15,1.80688696 L-5.93148719e-15,45.8483478 C-5.93148719e-15,46.8475826 0.807652174,47.6552348 1.80688696,47.6552348 L45.8445913,47.6552348 C46.8438261,47.6552348 47.6552348,46.8475826 47.6552348,45.8483478 L47.6552348,1.80688696 C47.6552348,0.811408696 46.8438261,-5.93148719e-15 45.8445913,-5.93148719e-15 L45.8445913,-5.93148719e-15 Z" id="Fill-4"></path>
            </g>
        </g>
    </g>
</svg>