<?xml version="1.0" encoding="UTF-8"?>
<svg width="102px" height="43px" viewBox="0 0 102 43" version="1.1" xmlns="http://www.w3.org/2000/svg" xmlns:xlink="http://www.w3.org/1999/xlink">
    <!-- Generator: Sketch 63.1 (92452) - https://sketch.com -->
    <title>Hisense</title>
    <desc>Created with Sketch.</desc>
    <g id="Footer" stroke="none" stroke-width="1" fill="none" fill-rule="evenodd">
        <g id="[PROD-812]-Assets" transform="translate(-56.000000, -788.000000)">
            <g id="Hisense" transform="translate(56.000000, 788.000000)">
                <rect id="backfround-copy" fill="#252930" x="0" y="0" width="102" height="42.5" rx="2.5051875"></rect>
                <path d="M49.617431,19.1144713 C50.7757759,19.0760747 51.9657759,19.3776782 52.6871034,20.0943161 C53.2914828,20.6948851 53.5966034,21.5876782 53.3896724,22.7067472 L53.3896724,22.7067472 L48.0721897,22.7067472 C48.0859655,23.4773161 48.9418276,23.8269885 49.6071724,23.9433506 C50.7025,24.1347472 52.0202931,23.8920575 53.147569,23.7449196 L53.147569,23.7449196 L52.9459138,24.984454 C51.5141034,25.3819023 48.5807241,25.5228851 47.0281552,24.7625747 C45.6502759,24.0881437 45.2751034,22.5736782 45.8466552,21.2781609 C46.4774138,19.8486954 48.0803966,19.1654713 49.617431,19.1144713 Z M73.3591034,19.1144713 C74.5174483,19.0760747 75.7074483,19.3776782 76.4287759,20.0943161 C77.0331552,20.6948851 77.3382759,21.5876782 77.1313448,22.7067472 L77.1313448,22.7067472 L71.8138621,22.7067472 C71.8276379,23.4773161 72.6835,23.8269885 73.3485517,23.9433506 C74.4441724,24.1347472 75.7622586,23.8920575 76.8889483,23.7449196 L76.8889483,23.7449196 L76.6875862,24.984454 C75.2557759,25.3819023 72.3223966,25.5228851 70.7698276,24.7625747 C69.3919483,24.0881437 69.0167759,22.5736782 69.5886207,21.2781609 C70.2190862,19.8486954 71.822069,19.1654713 73.3591034,19.1144713 Z M38.85605,19.7508575 C40.3157052,18.7534265 43.7458948,19.1004609 45.2017397,19.3959092 L45.2017397,19.3959092 L45.0704293,20.6553747 C44.0618603,20.4927023 42.1262052,20.1893403 41.2079121,20.452254 C40.6533603,20.6665127 41.4511879,20.9977196 41.632619,21.0780299 C42.4178431,21.4265299 43.4448776,21.7618403 44.2013776,22.1885989 C45.6123776,22.806754 45.8697224,24.6533058 43.4158603,25.0997023 C42.0628948,25.3544092 39.5978948,25.180892 38.1268086,25.0117713 L38.1268086,25.0117713 L38.2364293,23.6681851 C39.7391341,23.8929954 40.3956892,23.9260531 41.3164968,23.9302319 L42.0098431,23.9305127 C42.2290845,23.9305127 42.5684983,23.6549954 42.2718776,23.4967196 C41.1683431,22.9641506 39.4290672,22.5499954 38.6461879,21.7685816 C38.0365328,21.160392 38.1373603,20.2412196 38.85605,19.7508575 Z M62.6094466,19.7508575 C64.0691017,18.7534265 67.4992914,19.1004609 68.9551362,19.3959092 L68.9551362,19.3959092 L68.824119,20.6553747 C67.8149638,20.4927023 65.8796017,20.1893403 64.9613086,20.452254 C64.4067569,20.6665127 65.2045845,20.9977196 65.3860155,21.0780299 C66.1712397,21.4265299 67.1982741,21.7618403 67.9547741,22.1885989 C69.365481,22.806754 69.623119,24.6533058 67.1692569,25.0997023 C65.8162914,25.3544092 63.3512914,25.180892 61.8802052,25.0117713 L61.8802052,25.0117713 L61.9898259,23.6681851 C63.4927687,23.8929954 64.1491751,23.9260531 65.0699185,23.9302319 L65.7632397,23.9305127 C65.982481,23.9305127 66.3218948,23.6549954 66.0252741,23.4967196 C64.9217397,22.9641506 63.1824638,22.5499954 62.3995845,21.7685816 C61.7899293,21.160392 61.89105,20.2412196 62.6094466,19.7508575 Z M57.7508172,19.193023 C59.3831103,19.1701609 61.4606276,19.0098334 61.4603345,20.9897472 L61.4603345,20.9897472 L61.1924379,25.2136609 L58.7385759,25.2136609 L58.9915241,21.1626782 C59.0190759,20.4568851 58.2564207,20.4527816 57.7097828,20.4750575 C57.350731,20.4897127 56.9928517,20.5292816 56.6173862,20.5597644 C56.5174379,22.1193678 56.4174897,23.6631437 56.3175414,25.2160058 L56.3175414,25.2160058 L53.851369,25.2160058 C53.978869,23.2964713 54.1054897,21.3871954 54.2332828,19.4659023 C55.6428172,19.3108506 56.594231,19.2091437 57.7508172,19.193023 Z M26.517818,17.0001424 L27.2137759,17.005592 C27.574,17.0108678 27.7727241,17.2365575 27.7454655,17.5797816 C27.6845,18.3295403 27.6197241,19.0921954 27.5555345,19.8527989 L27.5555345,19.8527989 L31.3503448,19.8527989 C31.4277241,18.9163334 31.5053966,17.9616954 31.5839483,17.0111609 L31.5839483,17.0111609 L34.2599828,17.0111609 L33.6201379,25.0284196 C33.614569,25.1181092 33.6092931,25.1796609 33.4838448,25.1790789 C33.2030517,25.177612 32.9223238,25.176862 32.6403691,25.176514 L30.9235862,25.1767299 C31.0197241,23.9738334 31.1152759,22.7794368 31.2117069,21.5739023 L31.2117069,21.5739023 L27.418069,21.5739023 C27.3216379,22.7653678 27.2249138,23.9562472 27.1273103,25.1620747 L27.1273103,25.1620747 L24.4375,25.1620747 L25.0981552,17.0026609 C25.8238793,17.0026609 26.5191207,16.9950403 27.2137759,17.005592 Z M37.6985552,19.2250592 C37.5399862,21.2108351 37.3820034,23.1875247 37.2240207,25.1677316 L37.2240207,25.1677316 L34.5913655,25.1677316 C34.7502276,23.1801972 34.9079172,21.2035075 35.0659,19.2250592 L35.0659,19.2250592 Z M49.815569,20.3106265 C49.0936552,20.3252816 48.3046207,20.7139368 48.1908966,21.5442989 L48.1908966,21.5442989 L51.2687793,21.5442989 C51.2705345,20.6992816 50.594931,20.2947989 49.815569,20.3106265 Z M73.5572414,20.3106265 C72.8353276,20.3252816 72.0462931,20.7139368 71.932569,21.5442989 L71.932569,21.5442989 L75.0104517,21.5442989 C75.0122069,20.6992816 74.3366034,20.2947989 73.5572414,20.3106265 Z M37.3130069,17.0034816 C38.0718517,17.0040678 37.8282828,17.540154 37.7602828,18.5748092 L37.7602828,18.5748092 L35.1299724,18.5748092 C35.1441391,18.3972862 35.1580778,18.2222709 35.1718971,18.0484931 L35.2542483,17.0105161 Z" id="Combined-Shape" fill="#F2F2F2"></path>
            </g>
        </g>
    </g>
</svg>
