<svg width="100" height="40" viewBox="0 0 100 40" fill="none" xmlns="http://www.w3.org/2000/svg">
<rect width="100" height="40" rx="2" fill="#252930"/>
<path fill-rule="evenodd" clip-rule="evenodd" d="M56.4685 27H43.5315C43.2379 27 43 26.7621 43 26.4685V13.5314C43 13.2378 43.2379 13 43.5315 13H56.4685C56.7621 13 57 13.2378 57 13.5314V26.4685C57 26.7621 56.7621 27 56.4685 27ZM50.2172 17.4033H46.0218C45.9746 17.4033 45.9367 17.4408 45.9367 17.4871V22.5124C45.9367 22.5582 45.9746 22.5957 46.0218 22.5957H47.1235C47.1704 22.5957 47.2092 22.5582 47.2092 22.5124V18.5683C47.2092 18.5227 47.2471 18.4849 47.2943 18.4849H49.6674C50.3347 18.4849 50.5242 18.996 50.5242 19.3258V22.5124C50.5242 22.5582 50.5625 22.5957 50.6097 22.5957H51.7107C51.7576 22.5957 51.796 22.5582 51.796 22.5124V18.9474C51.796 18.6533 51.7607 18.2305 51.3812 17.8583C50.9843 17.4698 50.6221 17.4033 50.2172 17.4033ZM49.4456 19.4048H48.2889C48.2418 19.4048 48.2031 19.4423 48.2031 19.4883V22.5127C48.2031 22.5583 48.2418 22.5959 48.2889 22.5959H49.4456C49.4923 22.5959 49.5306 22.5583 49.5306 22.5127V19.4883C49.5306 19.4423 49.4923 19.4048 49.4456 19.4048ZM53.9779 17.4033H52.8765C52.8294 17.4033 52.7912 17.4408 52.7912 17.4871V22.5124C52.7912 22.5582 52.8294 22.5957 52.8765 22.5957H53.9779C54.0247 22.5957 54.0634 22.5582 54.0634 22.5124V17.4871C54.0634 17.4408 54.0247 17.4033 53.9779 17.4033Z" fill="white"/>
</svg>
