<svg width="99" height="40" viewBox="0 0 99 40" fill="none" xmlns="http://www.w3.org/2000/svg">
<rect width="99" height="40" rx="2" fill="#252930"/>
<path fill-rule="evenodd" clip-rule="evenodd" d="M38.155 27H25.279C24.9868 27 24.75 26.7621 24.75 26.4685V13.5314C24.75 13.2378 24.9868 13 25.279 13H38.155C38.4471 13 38.684 13.2378 38.684 13.5314V26.4685C38.684 26.7621 38.4471 27 38.155 27ZM31.9332 17.4032H27.7575C27.7106 17.4032 27.6729 17.4407 27.6729 17.4869V22.5122C27.6729 22.5581 27.7106 22.5956 27.7575 22.5956H28.854C28.9007 22.5956 28.9394 22.5581 28.9394 22.5122V18.5681C28.9394 18.5226 28.9771 18.4848 29.024 18.4848H31.3859C32.0501 18.4848 32.2386 18.9959 32.2386 19.3256V22.5122C32.2386 22.5581 32.2768 22.5956 32.3237 22.5956H33.4195C33.4662 22.5956 33.5045 22.5581 33.5045 22.5122V18.9473C33.5045 18.6532 33.4693 18.2304 33.0916 17.8582C32.6965 17.4697 32.3361 17.4032 31.9332 17.4032ZM31.1647 19.4048H30.014C29.967 19.4048 29.9285 19.4423 29.9285 19.4883V22.5126C29.9285 22.5583 29.967 22.5958 30.014 22.5958H31.1647C31.2112 22.5958 31.2493 22.5583 31.2493 22.5126V19.4883C31.2493 19.4423 31.2112 19.4048 31.1647 19.4048ZM35.6757 17.4032H34.58C34.5331 17.4032 34.4951 17.4407 34.4951 17.4869V22.5122C34.4951 22.5581 34.5331 22.5956 34.58 22.5956H35.6757C35.7222 22.5956 35.7607 22.5581 35.7607 22.5122V17.4869C35.7607 17.4407 35.7222 17.4032 35.6757 17.4032Z" fill="white"/>
<path fill-rule="evenodd" clip-rule="evenodd" d="M52.8611 23.8182V17.7906L50.3986 23.8182H50.1757L47.7031 17.7906V23.8182H47.1254V17.027H47.9868L50.2872 22.6575L52.5774 17.027H53.4489V23.8182H52.8611ZM55.3404 18.0655C55.1277 18.0655 54.9352 17.8822 54.9352 17.6582C54.9352 17.4342 55.1277 17.251 55.3404 17.251C55.5633 17.251 55.7456 17.4342 55.7456 17.6582C55.7456 17.8822 55.5633 18.0655 55.3404 18.0655ZM55.0771 18.9003V23.8181H55.6039V18.9003H55.0771ZM59.8231 23.8182V17.027H62.5998C63.7348 17.027 64.4644 17.6888 64.4644 18.7579C64.4644 19.6132 63.8868 20.1935 63.2788 20.3157C63.9983 20.4277 64.5962 21.1812 64.5962 21.9855C64.5962 23.1157 63.8665 23.8182 62.6606 23.8182H59.8231ZM62.5288 20.0713H60.4008V17.5564H62.5288C63.4003 17.5564 63.8563 18.1266 63.8563 18.8189C63.8563 19.5215 63.4003 20.0713 62.5288 20.0713ZM60.4008 23.2887H62.5693C63.4611 23.2887 63.9881 22.7694 63.9881 21.9447C63.9881 21.2523 63.5118 20.6007 62.5693 20.6007H60.4008V23.2887ZM65.7075 21.3542C65.7075 22.7898 66.6297 23.9403 68.0585 23.9403C69.5076 23.9403 70.4197 22.7898 70.4197 21.3542C70.4197 19.9186 69.5076 18.7782 68.0585 18.7782C66.6297 18.7782 65.7075 19.9186 65.7075 21.3542ZM68.0585 23.4618C69.2137 23.4618 69.8522 22.4538 69.8522 21.3542C69.8522 20.2647 69.2137 19.2567 68.0585 19.2567C66.9236 19.2567 66.275 20.2647 66.275 21.3542C66.275 22.4538 66.9236 23.4618 68.0585 23.4618ZM72.9903 21.6494L74.6117 23.8181H75.24L73.3045 21.293L75.1285 18.9003H74.5002L72.9903 20.9264L71.4703 18.9003H70.842L72.666 21.293L70.7305 23.8181H71.3588L72.9903 21.6494Z" fill="white"/>
</svg>
