<?xml version="1.0" encoding="UTF-8"?>
<svg width="102px" height="43px" viewBox="0 0 102 43" version="1.1" xmlns="http://www.w3.org/2000/svg" xmlns:xlink="http://www.w3.org/1999/xlink">
    <!-- Generator: Sketch 63.1 (92452) - https://sketch.com -->
    <title>Sony</title>
    <desc>Created with Sketch.</desc>
    <g id="Footer" stroke="none" stroke-width="1" fill="none" fill-rule="evenodd">
        <g id="[PROD-812]-Assets" transform="translate(-56.000000, -737.000000)">
            <g id="Sony" transform="translate(56.000000, 737.000000)">
                <rect id="backfround-copy" fill="#252930" x="0" y="0" width="102" height="42.5" rx="2.5051875"></rect>
                <path d="M40.1891092,24.2236935 C39.3819409,23.4656627 38.9940795,22.4360209 38.9940795,21.3762778 C38.9940795,20.3294353 39.3986673,19.2926932 40.1890137,18.5386625 C41.1812239,17.5925241 42.9330039,17 44.5823227,17 C46.4075078,17 47.868344,17.4810195 48.9850942,18.5412626 C49.7796461,19.2956933 50.1637799,20.3278352 50.1637799,21.3763778 C50.1637799,22.3927191 49.7561335,23.4750631 48.9850942,24.2236935 C47.9451898,25.2335345 46.3109725,25.7680562 44.5823227,25.7680562 L44.5823227,24.6116093 C45.4974959,24.6116093 46.3464325,24.2809958 46.9393118,23.6637707 C47.5280812,23.0507458 47.8023942,22.2972152 47.8023942,21.3762778 C47.8023942,20.494042 47.5064802,19.6692084 46.9393118,19.0841847 C46.3543656,18.4813602 45.4851662,18.1421464 44.5823227,18.1421464 C43.6767075,18.1421464 42.8069346,18.47786 42.2215105,19.0841847 C41.6574006,19.6690084 41.3607221,20.4962421 41.3607221,21.3762778 C41.3607221,22.2536135 41.6608415,23.080347 42.2215105,23.6638708 C42.8074125,24.2736955 43.6741269,24.6117093 44.5823227,24.6117093 L44.5823227,25.7681562 C42.8580696,25.7680562 41.2574963,25.2270343 40.1891092,24.2236935 Z M29.1192894,17.6007244 C28.2975929,17.98434 27.6250002,18.6047652 27.6250002,19.633307 C27.6246181,20.5596446 28.1872942,21.1021667 28.1720015,21.0871661 C28.4113325,21.3176754 28.7966132,21.7101914 29.8039249,21.9407007 C30.2541041,22.0437049 31.2165891,22.2019114 32.1750597,22.3067156 C33.1264575,22.4117199 34.0627537,22.5115239 34.4441157,22.612528 C34.7471025,22.6932313 35.2560631,22.8031358 35.2560631,23.4005601 C35.2560631,23.9955842 34.7198624,24.1771916 34.6266724,24.2165932 C34.5335781,24.2550948 33.8903284,24.5639073 32.7340083,24.5639073 C31.8802927,24.5639073 30.8539607,24.2952964 30.4798628,24.1552907 C30.0486083,23.9946842 29.5962308,23.7822756 29.1742476,23.2429537 C29.0693013,23.1092482 28.9037577,22.7415333 28.9037577,22.3774185 L27.8572584,22.3774185 L27.8572584,25.4455431 L29.0204602,25.4455431 L29.0204602,25.0310263 C29.0204602,24.9838244 29.0768521,24.7897165 29.2721209,24.8820202 C29.5150839,24.9975249 30.2282977,25.294637 30.9740085,25.4575436 C31.5854302,25.5913491 31.9796954,25.687253 32.7398387,25.687253 C33.9800775,25.687253 34.6463618,25.4758444 35.1069591,25.3382388 C35.5408898,25.2082335 36.0770905,24.974824 36.512646,24.6114093 C36.7485361,24.4149013 37.265812,23.9111808 37.265812,22.9968437 C37.265812,22.119208 36.8156328,21.5744859 36.6572577,21.4087791 C36.4415349,21.18297 36.1780224,21.0079628 35.9034226,20.8730574 C35.6641873,20.7552526 35.2866485,20.6137468 34.9777357,20.5346436 C34.3781659,20.3806374 33.0224671,20.1906296 32.3741517,20.1196268 C31.6942951,20.0453237 30.5149404,19.9431196 30.0439249,19.7906134 C29.9011292,19.7443115 29.6099942,19.5992056 29.6099942,19.2455912 C29.6099942,18.994081 29.7431364,18.7808724 30.0062666,18.6085654 C30.4239488,18.3347542 31.2676285,18.1645473 32.147055,18.1645473 C33.1867681,18.1605472 34.067246,18.4092573 34.6273415,18.6712679 C34.8178313,18.7602715 35.0407226,18.8880767 35.2177357,19.0392829 C35.4174967,19.2096898 35.6979268,19.5638042 35.7993366,20.0577242 L36.7388825,20.0577242 L36.7388825,17.3870157 L35.6898026,17.3870157 L35.6898026,17.6974283 C35.6898026,17.7976324 35.5908779,17.9278377 35.4038289,17.8202333 C34.9343427,17.5625229 33.6069354,17.0065003 31.9795998,17.0042002 C31.0574493,17.0042002 30.0096119,17.1847075 29.1192894,17.6007244 Z M54.9698965,17.4895199 L60.087411,22.3217162 L60.0348423,19.068284 C60.0296811,18.6416667 59.9545556,18.4635595 59.5135521,18.4635595 L58.5513538,18.4635595 L58.5513538,17.4903199 L62.9269807,17.4903199 L62.9269807,18.4635595 L61.9883906,18.4635595 C61.5385937,18.4635595 61.5102066,18.6140656 61.5047586,19.068284 L61.5840895,25.2848366 L60.085595,25.2848366 L54.1912108,19.780613 L54.1924534,23.6869717 C54.1976146,24.1115889 54.216635,24.3115971 54.634795,24.3115971 L55.685691,24.3115971 L55.685691,25.2844366 L51.3884393,25.2844366 L51.3884393,24.3116971 L52.3929792,24.3116971 C52.7682241,24.3116971 52.7533137,23.9373819 52.7533137,23.6648708 L52.7533137,19.1052855 C52.7533137,18.8109736 52.7138394,18.4642595 52.1246877,18.4642595 L51.3095862,18.4642595 L51.3095862,17.4895199 L54.9698965,17.4895199 Z M68.1860484,24.2929963 C68.2870758,24.259995 68.3556063,24.1845919 68.3873387,24.1059887 C68.4007198,24.0729874 68.4074103,23.9269814 68.4074103,23.8952802 L68.408175,22.3572177 C68.408175,22.3202162 68.4055943,22.3042155 68.3455704,22.2218122 C68.2796206,22.1318085 65.665045,19.0316825 65.5453795,18.895177 C65.3967535,18.7256701 65.1358216,18.4636595 64.7393581,18.4636595 L63.8301108,18.4636595 L63.8301108,17.4900199 L68.9614844,17.4900199 L68.9614844,18.4624594 L68.3428942,18.4624594 C68.1998118,18.4624594 68.1047102,18.6044652 68.2269564,18.7622716 C68.2269564,18.7622716 69.9534078,20.9230594 69.9697519,20.9456603 C69.9858093,20.9686612 69.9995727,20.9741615 70.021556,20.9531606 C70.0431569,20.9316597 71.7913049,18.7820724 71.8050684,18.7650717 C71.8882225,18.6608675 71.8318306,18.4635595 71.6526191,18.4635595 L71.0180672,18.4635595 L71.0180672,17.4900199 L75.2235627,17.4900199 L75.2235627,18.4635595 L74.2840168,18.4635595 C73.9431805,18.4635595 73.8044947,18.5295621 73.5480551,18.8328745 C73.4307791,18.9716801 70.7882943,22.1275083 70.7164185,22.2130118 C70.6787602,22.2577136 70.6820099,22.3200162 70.6820099,22.3570177 L70.6820099,23.8948801 C70.6820099,23.9260814 70.6887005,24.0722873 70.7020816,24.1050887 C70.7339095,24.1840919 70.8028223,24.259495 70.9037542,24.2920963 C70.9391186,24.3034967 71.1191903,24.309097 71.1601939,24.309097 L72.1212452,24.309097 L72.1212452,25.2825365 L67.0163471,25.2825365 L67.0163471,24.308997 L67.9272192,24.309797 C67.9681272,24.309797 68.150684,24.3042968 68.1860484,24.2929963 Z" id="path4258" fill="#F2F2F2" fill-rule="nonzero"></path>
            </g>
        </g>
    </g>
</svg>
