<?xml version="1.0" encoding="UTF-8"?>
<svg width="175px" height="89px" viewBox="0 0 175 89" version="1.1" xmlns="http://www.w3.org/2000/svg" xmlns:xlink="http://www.w3.org/1999/xlink">
    <!-- Generator: Sketch 63.1 (92452) - https://sketch.com -->
    <title>Beeline</title>
    <desc>Created with Sketch.</desc>
    <g id="Symbols" stroke="none" stroke-width="1" fill="none" fill-rule="evenodd">
        <g id="Partners-logos-/-Desktop" transform="translate(-748.000000, 0.000000)">
            <g id="Beeline" transform="translate(748.000000, 0.000000)">
                <g id="Bg-2" transform="translate(0.000000, -0.000000)" fill="#282D35" fill-rule="nonzero">
                    <rect id="Rectangle-Copy" x="0" y="0" width="175" height="89" rx="2.16383412"></rect>
                </g>
                <path d="M55.7781538,30 C63.3862564,30 69.552,36.1678974 69.552,43.7774359 C69.552,51.3855385 63.3862564,57.5534359 55.7781538,57.5534359 C48.1671795,57.5534359 42,51.3855385 42,43.7774359 C42,36.1678974 48.1671795,30 55.7781538,30 Z M45.6220513,52.5191795 C48.0795897,55.3708718 51.7181538,57.1757949 55.7781538,57.1757949 C59.8345641,57.1757949 63.4702564,55.3730256 65.9270769,52.525641 C65.0777436,52.6433846 62.3710769,52.9241026 55.7846154,52.9241026 C49.013641,52.9241026 46.3952821,52.6326154 45.6220513,52.5191795 Z M116.320831,41.0569846 C116.503908,41.0569846 116.662574,41.2163692 116.662574,41.3980103 L116.662574,41.3980103 L116.662574,46.2463179 C116.662574,47.8171897 117.209651,48.4317538 118.324626,48.4317538 C119.121549,48.4317538 120.191292,47.8861128 120.782882,47.2478564 L120.782882,47.2478564 L120.782882,41.3980103 C120.782882,41.2163692 120.92001,41.0569846 121.124626,41.0569846 L121.124626,41.0569846 L122.217344,41.0569846 C122.421241,41.0569846 122.558369,41.2163692 122.558369,41.3980103 L122.558369,41.3980103 L122.558369,49.7298051 C122.558369,49.9121641 122.398985,50.0485744 122.2396,50.0485744 L122.2396,50.0485744 L121.443395,50.0485744 C121.306267,50.0485744 121.192831,49.9566769 121.146882,49.843959 L121.146882,49.843959 L120.965241,49.0240615 C120.418882,49.5022154 119.303908,50.1849846 118.028831,50.1849846 C115.956831,50.1849846 114.887087,48.7964718 114.887087,46.8163692 L114.887087,46.8163692 L114.887087,41.3980103 C114.887087,41.2163692 115.046472,41.0569846 115.228831,41.0569846 L115.228831,41.0569846 Z M88.2605231,41.0569846 C88.4421641,41.0569846 88.6015487,41.2163692 88.6015487,41.3980103 L88.6015487,41.3980103 L88.6015487,46.2463179 C88.6015487,47.8171897 89.1479077,48.4317538 90.2628821,48.4317538 C91.0605231,48.4317538 92.1295487,47.8861128 92.7218564,47.2478564 L92.7218564,47.2478564 L92.7218564,41.3980103 C92.7218564,41.2163692 92.8582667,41.0569846 93.0636,41.0569846 L93.0636,41.0569846 L94.1563179,41.0569846 C94.3609333,41.0569846 94.4973436,41.2163692 94.4973436,41.3980103 L94.4973436,41.3980103 L94.4973436,49.7298051 C94.4973436,49.9121641 94.337959,50.0485744 94.1785744,50.0485744 L94.1785744,50.0485744 L93.3816513,50.0485744 C93.245241,50.0485744 93.1318051,49.9566769 93.0858564,49.843959 L93.0858564,49.843959 L92.9042154,49.0240615 C92.3578564,49.5022154 91.2428821,50.1849846 89.9678051,50.1849846 C87.8958051,50.1849846 86.8260615,48.7964718 86.8260615,46.8163692 L86.8260615,46.8163692 L86.8260615,41.3980103 C86.8260615,41.2163692 86.9854462,41.0569846 87.1670872,41.0569846 L87.1670872,41.0569846 Z M109.540523,40.7382154 C111.908318,40.7382154 113.046985,41.7627282 113.046985,43.9022154 L113.046985,43.9022154 L113.046985,49.7298051 C113.046985,49.9121641 112.886882,50.0485744 112.728215,50.0485744 L112.728215,50.0485744 L112.067703,50.0485744 C111.931292,50.0485744 111.817138,49.9566769 111.77119,49.843959 L111.77119,49.843959 L111.612523,49.5022154 C110.884523,49.9566769 110.041651,50.1849846 109.289959,50.1849846 C106.899908,50.1849846 105.899087,49.0240615 105.899087,47.1344205 C105.899087,46.4968821 106.058472,44.4263179 109.245446,44.1980103 L109.245446,44.1980103 L111.225549,44.0616 L111.225549,43.879241 C111.225549,42.8554462 110.974985,42.4225231 109.540523,42.4225231 C108.380318,42.4225231 107.674574,42.6271385 107.059292,42.8317538 C106.968831,42.8554462 106.877651,42.8317538 106.786472,42.7865231 C106.718985,42.7412923 106.650779,42.6271385 106.650779,42.5366769 L106.650779,42.5366769 L106.650779,41.5114462 C106.650779,41.3980103 106.740523,41.2616 106.855395,41.2163692 C107.560421,40.9205744 108.538985,40.7382154 109.540523,40.7382154 Z M103.964215,41.0569846 C104.122882,41.0569846 104.305959,41.2163692 104.305959,41.3980103 L104.305959,41.3980103 L104.305959,49.7061128 C104.305959,49.8891897 104.122882,50.0485744 103.964215,50.0485744 L103.964215,50.0485744 L102.871497,50.0485744 C102.689138,50.0485744 102.529754,49.8891897 102.529754,49.7061128 L102.529754,49.7061128 L102.529754,42.7412923 L101.050062,42.7412923 C99.7074974,42.7412923 99.4117026,43.1964718 99.2745744,44.6754462 L99.2745744,44.6754462 L99.069241,46.7933949 C98.8653436,49.1604718 97.8630872,50.1160615 95.8600103,50.1160615 C95.7013436,50.1160615 95.541959,49.9566769 95.541959,49.7750359 L95.541959,49.7750359 L95.541959,48.8653949 C95.541959,48.6823179 95.7013436,48.5229333 95.8600103,48.499959 C96.8838051,48.3865231 97.2025744,48.0907282 97.3174462,46.8838564 L97.3174462,46.8838564 L97.5443179,44.5167795 C97.7496513,42.4907282 98.4776513,41.0569846 100.958882,41.0569846 L100.958882,41.0569846 Z M83.9442154,37.3466256 C84.1258564,37.3466256 84.285959,37.5052923 84.285959,37.6876513 L84.285959,37.6876513 L84.285959,38.7121641 C84.285959,38.895241 84.1258564,39.0539077 83.9442154,39.0539077 L83.9442154,39.0539077 L78.685959,39.0539077 L78.685959,41.8302154 L80.9618564,41.8302154 C85.0369333,41.8302154 85.4913949,44.7450872 85.4913949,45.9734974 C85.4913949,47.3620103 84.8768308,50.0708308 80.7794974,50.0708308 L80.7794974,50.0708308 L80.4384718,50.0708308 C77.5709846,50.0708308 76.8415487,48.5459077 76.8415487,46.2463179 L76.8415487,46.2463179 L76.8415487,37.6876513 C76.8415487,37.5052923 77.0009333,37.3466256 77.1832923,37.3466256 L77.1832923,37.3466256 Z M126.064113,41.0569846 C126.245754,41.0569846 126.405138,41.2163692 126.405138,41.3980103 L126.405138,41.3980103 L126.405138,44.6309333 L130.480215,44.6309333 L130.480215,41.3980103 C130.480215,41.2163692 130.6396,41.0569846 130.821959,41.0569846 L130.821959,41.0569846 L131.936933,41.0569846 C132.096318,41.0569846 132.255703,41.2163692 132.255703,41.3980103 L132.255703,41.3980103 L132.255703,49.7061128 C132.255703,49.8891897 132.096318,50.0485744 131.936933,50.0485744 L131.936933,50.0485744 L130.821959,50.0485744 C130.6396,50.0485744 130.480215,49.8891897 130.480215,49.7061128 L130.480215,49.7061128 L130.480215,46.2463179 L126.405138,46.2463179 L126.405138,49.7061128 C126.405138,49.8891897 126.245754,50.0485744 126.064113,50.0485744 L126.064113,50.0485744 L124.948421,50.0485744 C124.766062,50.0485744 124.629651,49.8891897 124.629651,49.7061128 L124.629651,49.7061128 L124.629651,41.3980103 C124.629651,41.2163692 124.766062,41.0569846 124.948421,41.0569846 L124.948421,41.0569846 Z M111.202574,45.5412923 L109.222472,45.7229333 C107.902164,45.8370872 107.788728,46.4968821 107.788728,47.1344205 C107.788728,48.2278564 108.561959,48.5229333 109.312933,48.5229333 C110.086882,48.5229333 110.58801,48.3183179 111.225549,47.9313436 L111.225549,47.9313436 L111.202574,45.5412923 Z M81.0300615,43.515241 L78.685959,43.515241 L78.685959,46.4293949 C78.685959,47.8408821 79.1870872,48.3642667 80.4384718,48.3642667 L80.4384718,48.3642667 L81.0300615,48.3642667 C82.6921128,48.3642667 83.6254462,47.5213949 83.6254462,45.9734974 C83.6254462,44.4263179 82.6921128,43.515241 81.0300615,43.515241 L81.0300615,43.515241 Z M57.2190448,40.2769909 L54.9027912,40.2764497 C48.0006921,40.2831164 44.0553803,40.3621233 42.8091282,40.3937436 C42.5262564,41.4728205 42.3769231,42.6071795 42.3769231,43.7774359 C42.3769231,44.8170256 42.4961026,45.8293333 42.7201026,46.8007179 C44.3110769,46.8272821 50.5708718,46.9220513 55.9547692,46.9220513 C61.4169231,46.9220513 67.4433846,46.7935385 68.8419487,46.7633846 C69.061641,45.8034872 69.1750769,44.8041026 69.1750769,43.7774359 C69.1750769,42.6071795 69.0271795,41.4728205 68.7450256,40.3901538 C67.5022717,40.3619247 63.7659158,40.286504 57.2190448,40.2769909 Z M135.956234,41 C135.972519,41 135.986542,41.0087356 135.994082,41.0219157 L136,41.0444828 L136,41.4324138 C136,41.4482759 135.991405,41.4627586 135.978437,41.4706513 L135.956234,41.4768966 L135.242748,41.4768966 L135.242748,43.9555172 C135.242748,43.972069 135.234606,43.9863218 135.222241,43.9939847 L135.201018,44 L134.8,44 C134.783715,44 134.769692,43.9912644 134.762152,43.9780843 L134.756234,43.9555172 L134.756234,41.4768966 L134.042748,41.4768966 C134.027142,41.4768966 134.013345,41.4677011 134.005881,41.4545211 L134,41.4324138 L134,41.0444828 C134,41.027931 134.008595,41.0136782 134.021261,41.0060153 L134.042748,41 L135.956234,41 Z M137.2616,41.023 C137.2786,41.023 137.2946,41.033 137.3006,41.049 C137.3006,41.049 138.0156,42.722 138.0876,42.887 C138.1576,42.722 138.8736,41.049 138.8736,41.049 C138.8776,41.0383333 138.886489,41.0303333 138.897007,41.0261852 L138.9136,41.023 L139.3896,41.023 C139.4056,41.023 139.419378,41.0314444 139.426785,41.0441852 L139.4326,41.066 L139.4326,43.88 C139.4326,43.896 139.424156,43.9097778 139.411415,43.9171852 L139.3896,43.923 L139.0026,43.923 C138.9916,43.923 138.9806,43.919 138.9726,43.911 C138.9646,43.902 138.9606,43.892 138.9606,43.88 C138.9606,43.88 138.9746,42.244 138.9776,41.902 C138.8446,42.209 138.2756,43.523 138.2756,43.523 L138.26035,43.541125 L138.26035,43.541125 L138.2376,43.548 L137.9366,43.548 C137.9196,43.548 137.9046,43.538 137.8976,43.523 C137.8976,43.523 137.3306,42.209 137.1966,41.902 C137.200129,42.2037647 137.210666,43.5129689 137.213096,43.8168402 L137.2136,43.88 C137.2136,43.892 137.2096,43.902 137.2016,43.911 L137.187725,43.92 L137.187725,43.92 L137.1716,43.923 L136.7846,43.923 C136.769933,43.923 136.756156,43.9145556 136.7486,43.9018148 L136.7426,43.88 L136.7426,41.066 C136.7426,41.05 136.751489,41.0362222 136.763933,41.0288148 L136.7846,41.023 L137.2616,41.023 Z M122.172113,37.3466256 C122.376728,37.3466256 122.535395,37.5052923 122.535395,37.6876513 L122.535395,38.7121641 C122.535395,38.895241 122.376728,39.0539077 122.172113,39.0539077 L115.228831,39.0539077 C115.046472,39.0539077 114.887087,38.895241 114.887087,38.7121641 L114.887087,37.6876513 C114.887087,37.5052923 115.046472,37.3466256 115.228831,37.3466256 L122.172113,37.3466256 Z M55.7781538,30.377641 C51.7784615,30.377641 48.188,32.1301538 45.7333333,34.9071795 C46.6372308,34.7851282 49.336,34.5187692 55.7537436,34.5187692 C62.1291282,34.5187692 64.8558974,34.7750769 65.813641,34.9007179 C63.3589744,32.1265641 59.7728205,30.377641 55.7781538,30.377641 Z" id="Combined-Shape" fill="#F2F2F2"></path>
            </g>
        </g>
    </g>
</svg>