<?xml version="1.0" encoding="UTF-8"?>
<svg width="175px" height="89px" viewBox="0 0 175 89" version="1.1" xmlns="http://www.w3.org/2000/svg" xmlns:xlink="http://www.w3.org/1999/xlink">
    <!-- Generator: Sketch 63.1 (92452) - https://sketch.com -->
    <title>Dom RU</title>
    <desc>Created with Sketch.</desc>
    <g id="Symbols" stroke="none" stroke-width="1" fill="none" fill-rule="evenodd">
        <g id="Partners-logos-/-Desktop" transform="translate(-935.000000, -101.000000)">
            <g id="Dom-RU" transform="translate(935.000000, 101.000000)">
                <g id="Bg-2" fill="#282D35" fill-rule="nonzero">
                    <rect id="Rectangle-Copy" x="0" y="0" width="175" height="89" rx="2.16383412"></rect>
                </g>
                <path d="M84.6163594,26.1166928 C87.2073421,25.9931968 89.8090434,26.0435638 92.3902819,26.3065377 C94.051668,26.4745891 95.7062331,26.7346572 97.3296168,27.1279072 C97.7939279,27.2296098 98.295267,27.3526216 98.6251081,27.7197195 C98.9885668,28.1279828 99.0475192,28.7028446 99.0392366,29.2258866 C99.0426471,34.098894 99.0397238,38.9719014 99.0406983,43.8449088 C99.0382622,44.3471259 98.9690784,44.9026159 98.6056197,45.2827899 C98.3430136,45.5801489 97.9503223,45.7099408 97.5756578,45.8009888 C94.2567834,46.6179997 90.8273123,46.9168116 87.4144063,46.9333303 C84.1315854,46.9376364 80.840482,46.6712725 77.620024,46.0242502 C76.9817789,45.8673377 76.2724011,45.8189078 75.7432911,45.390304 C75.29993,45.0343449 75.1683833,44.4372054 75.1654601,43.897213 C75.1635112,39.0857115 75.1654601,34.2746942 75.1644856,29.4631926 C75.1562031,28.8897837 75.1683833,28.2539003 75.5518176,27.7880055 C75.8792227,27.3821637 76.4010246,27.2213768 76.8931067,27.1182213 C79.4300091,26.5496553 82.021479,26.2489062 84.6163594,26.1166928 Z M83.3233041,27.4920994 C83.1303689,27.5061441 82.9359721,27.5114713 82.7459602,27.5521524 C82.696752,27.5473094 82.648031,27.5473094 82.59931,27.5516681 C81.3715409,27.6654781 80.146695,27.8194849 78.9320805,28.0325761 C78.2572946,28.1555878 77.5761751,28.2747251 76.9155183,28.4514939 C76.7138134,28.4795832 76.5223399,28.6316528 76.4911584,28.8389324 C76.4682596,28.981316 76.4706956,29.1256369 76.4691554,29.2694734 C76.4702084,34.162337 76.4682596,39.0552007 76.4697212,43.9480643 C76.478491,44.108367 76.4570537,44.3180681 76.6144226,44.4163806 C76.7664321,44.5258319 76.9593672,44.5485939 77.1371989,44.594118 C77.5347622,44.6822602 77.9318384,44.7800884 78.3357354,44.8357827 L78.3410948,44.8348141 C79.0251376,44.9912424 79.7233095,45.0861648 80.4180709,45.1854459 C81.8879835,45.3811024 83.3666658,45.5312348 84.8492458,45.5782117 C84.9739715,45.5985522 85.1011333,45.6024266 85.2278079,45.6053324 C87.2633712,45.6789457 89.3057555,45.6581209 91.3344979,45.4736033 C93.1245074,45.3520445 94.9028238,45.0726045 96.6567798,44.6992107 L96.6553182,44.6832288 C96.9145139,44.6381891 97.1707863,44.574746 97.4241355,44.5025856 C97.5215775,44.4769178 97.5892997,44.3984615 97.6623812,44.3350185 C97.6886906,44.2362217 97.7135383,44.1374249 97.7330267,44.0376595 C97.7398476,39.7453255 97.7340011,35.4529915 97.7359499,31.1611418 C97.7296162,30.3756103 97.7491046,29.5895945 97.7252313,28.8040629 C97.689665,28.6379487 97.5508101,28.5120312 97.3875948,28.472803 C97.1498363,28.4108129 96.9115906,28.349307 96.6709089,28.3028144 C95.1322997,27.9439495 93.564458,27.7187509 91.9927186,27.5618383 C91.8947894,27.5555425 91.7924753,27.530359 91.6969821,27.5628069 C91.6794426,27.4858035 91.5230482,27.4993639 91.467019,27.5381077 C91.369577,27.4896779 91.253621,27.4925837 91.1478965,27.4993639 C91.0650708,27.4862878 90.9817579,27.4761176 90.8989322,27.470306 C88.3781077,27.2930529 85.8436413,27.3022546 83.3233041,27.4920994 Z M92.0740827,30.654566 C92.4453367,30.3499425 92.9237769,30.1634877 93.409038,30.1814067 C93.7958828,30.1833439 94.1715217,30.315073 94.4964907,30.5194468 C94.8755401,30.8032455 95.1785847,31.194074 95.3013616,31.6551258 C95.4080606,32.0808238 95.3871106,32.5442971 95.2034324,32.9467488 C94.9549553,33.5467942 94.3824836,33.9899269 93.7461873,34.1158444 C93.1556888,34.2209371 92.5096484,34.0645088 92.063364,33.6581827 C91.643389,33.3041608 91.3846805,32.7685271 91.3754235,32.2203017 C91.3525247,31.6284894 91.6209774,31.0371615 92.0740827,30.654566 Z M82.8097848,51.6716503 C83.0197723,51.5878667 83.2589924,51.5994899 83.4733648,51.6619643 C83.6882244,51.7317033 83.8144117,51.9346242 83.9191619,52.1201103 C84.6704397,53.6417749 85.4119733,55.1682825 86.1637383,56.6899471 C86.4200108,56.2589218 86.6197669,55.7978701 86.8575253,55.3566745 C87.3179388,54.4408668 87.7846859,53.5279649 88.2475354,52.6136101 C88.3961345,52.3244841 88.5262195,52.0155019 88.7625164,51.7835232 C88.9257317,51.6270949 89.1732344,51.5844766 89.3890684,51.6329065 C89.7340131,51.71669 89.9829774,52.0663532 89.9508215,52.418438 C89.9537448,54.6631596 89.9503343,56.907397 89.9493599,59.1521186 C89.9415645,59.3715057 89.9785925,59.6063903 89.868483,59.8083426 C89.7301154,60.0509759 89.4558162,60.2248389 89.1693367,60.1996554 C88.7990571,60.1851265 88.4731136,59.8616154 88.469216,59.4916116 C88.4628822,57.9902875 88.471652,56.4884791 88.4653183,54.987155 C88.4234182,55.0539882 88.3785949,55.1198527 88.3055134,55.1566594 C88.2129435,55.1978247 88.3513111,55.2888728 88.2811529,55.3528001 C87.829022,56.3291451 87.3798144,57.3074272 86.9335301,58.286678 C86.858987,58.4566666 86.7669043,58.6290767 86.6075866,58.7356223 C86.3552118,58.931763 85.9800601,58.9259514 85.7159923,58.7559628 C85.4704385,58.58888 85.3700732,58.2953953 85.25363,58.0377487 C84.7786003,57.0047409 84.3025962,55.9727017 83.8334129,54.9372723 C83.838285,56.4758874 83.8319513,58.0149867 83.8353618,59.5540861 C83.7851791,59.8814716 83.5123416,60.1705975 83.1727562,60.195781 C82.8073487,60.2422737 82.4429156,59.9652551 82.3766551,59.6088117 C82.404426,58.9889102 82.383476,58.3685243 82.3878609,57.7481385 C82.3951691,55.9412223 82.3820144,54.1328532 82.3946818,52.3264213 C82.3912714,52.2925205 82.3844504,52.2256873 82.38104,52.1917865 C82.4185551,51.9569019 82.6002845,51.7714157 82.8097848,51.6716503 Z M76.7264809,51.6837578 C77.4689889,51.575275 78.2592435,51.643561 78.9335421,51.9908027 C79.6093023,52.3370759 80.1369508,52.9284039 80.4721512,53.6006096 C80.9281798,54.5043098 81.0368276,55.5503937 80.9159995,56.545142 C80.7859145,57.6357813 80.2378032,58.6944569 79.3491322,59.3627883 C78.6928604,59.852898 77.8446278,60.0374156 77.035372,59.9676766 C76.3069931,59.9216683 75.6005386,59.6175291 75.0665564,59.1235451 C74.4326962,58.5264055 73.9990793,57.7268294 73.8392745,56.8734961 C73.6668021,55.9610785 73.7091894,54.9982939 74.0146701,54.1173557 C74.274353,53.4112491 74.7021234,52.7521193 75.306751,52.2910676 C75.7140585,51.9665878 76.2144232,51.7709314 76.7264809,51.6837578 Z M75.9430472,53.5613815 C75.4266046,54.1304317 75.251209,54.918869 75.2258741,55.6651724 C75.2058985,56.421646 75.3281882,57.2168635 75.7666772,57.8522626 C76.0599776,58.2682746 76.5281864,58.569508 77.0412185,58.6203593 C77.6463333,58.6983313 78.3381715,58.5578849 78.7449918,58.0735868 C78.8248943,58.1467158 78.9418247,58.0033636 78.8628966,57.9355618 C78.9505944,57.8483882 79.0134445,57.740874 79.0709353,57.6328755 C79.4494975,56.9475937 79.5181941,56.137363 79.4543696,55.3707191 C79.39493,54.7052936 79.1698389,54.0267919 78.7030918,53.5323236 C78.3586343,53.1540868 77.8363452,52.9647262 77.3281852,52.9787709 C76.812717,52.9705378 76.2831198,53.1671628 75.9430472,53.5613815 Z M100.026324,51.8760241 C100.48625,51.6803677 101.010975,51.6716503 101.495749,51.7704471 C101.833386,51.8469662 102.184664,52.0402011 102.306954,52.3821156 C102.435577,52.7366218 102.378087,53.1574769 102.146662,53.4591946 C101.954701,53.7333073 101.610731,53.8984529 101.274069,53.8403372 C100.786859,53.7434775 100.26457,53.6965006 99.7885656,53.8708479 C99.4080546,53.9962811 99.1176774,54.3488502 99.0601867,54.7411316 C99.067982,56.210492 99.067982,57.680821 99.0558018,59.1501815 C99.0709053,59.5240596 98.8414294,59.8819559 98.5184092,60.0625991 C98.2723681,60.2044984 97.9712723,60.2306505 97.6974603,60.1672074 C97.244355,60.0533974 96.8867429,59.6209192 96.8930766,59.1516343 C96.8843069,57.1650436 96.9003848,55.1789371 96.8818708,53.1923463 C96.8838197,52.8363872 96.8794348,52.4586347 97.0543431,52.1370608 C97.1912492,51.8934588 97.4777286,51.7859447 97.7456941,51.7714157 C98.0735864,51.7510752 98.4316858,51.7980521 98.6889327,52.018892 C98.9033051,52.1908179 98.977361,52.4663835 99.0382622,52.7211243 C99.3271777,52.399066 99.6170677,52.0508557 100.026324,51.8760241 Z M103.318402,52.2218129 C103.503542,51.9089564 103.85482,51.6886007 104.2251,51.6973181 C104.80488,51.6648701 105.341785,52.1879121 105.335451,52.761321 C105.335939,54.1163871 105.333015,55.4709688 105.336913,56.8255506 C105.34617,57.1529361 105.370043,57.5234242 105.611699,57.7723534 C105.858715,58.0174082 106.23143,58.0503405 106.561759,58.0416231 C107.047507,58.0227355 107.532768,57.7883352 107.800734,57.3771661 C107.795862,55.8864966 107.799759,54.3958271 107.798298,52.9051575 C107.796836,52.6993309 107.807555,52.4843025 107.910843,52.3007535 C108.103291,51.9273597 108.519856,51.65809 108.950062,51.6992553 C109.498173,51.7108784 109.97905,52.2135799 109.964921,52.7588995 C109.968331,54.7120737 109.961023,56.6652479 109.969305,58.6184221 C109.958587,59.0479946 109.9581,59.5240596 109.681364,59.8809873 C109.481608,60.1187776 109.144459,60.1725347 108.850184,60.1439611 C108.584655,60.1294322 108.301586,60.0553346 108.120344,59.8490236 C107.915228,59.6160762 107.887457,59.2925651 107.846044,58.9995647 C107.080637,60.2335563 105.188314,60.4902343 104.06432,59.6015473 C103.84605,59.435433 103.644345,59.238808 103.527902,58.9879416 C103.251167,58.4251872 103.162008,57.7878509 103.168341,57.1664965 C103.167367,55.7939957 103.168341,54.4214949 103.168341,53.0489941 C103.167837,52.8804583 103.164931,52.7114383 103.181496,52.5438712 C103.217549,52.4324826 103.264322,52.3249684 103.318402,52.2218129 Z M66.3221116,51.9772424 C66.5486642,51.8682753 66.8068855,51.877477 67.0524393,51.8702125 C68.3825226,51.8682753 69.7130931,51.8692439 71.0431764,51.8697282 C71.2653441,51.8624637 71.5123596,51.93753 71.6361109,52.1331864 C71.7272192,52.2930048 71.7515797,52.4804281 71.7584006,52.6615556 C71.7608367,54.6515365 71.7549901,56.6420016 71.7613239,58.6319825 C72.060958,58.6319825 72.3610794,58.6252023 72.6607135,58.639247 C72.812723,58.6508701 72.995914,58.679928 73.0792269,58.8237645 C73.1830026,58.9758341 73.172284,59.1666476 73.1742328,59.3424478 C73.172284,60.1517099 73.1771561,60.960972 73.172284,61.7697498 C73.1786177,62.023522 73.0660722,62.2942447 72.8166207,62.3959473 C72.6558414,62.4206465 72.4926261,62.4153192 72.3313596,62.4022431 C72.3337956,62.3770596 72.3381805,62.3271769 72.3406165,62.3019934 C72.3357444,62.3262083 72.325513,62.3751225 72.3206409,62.3998217 C72.1998129,62.3436431 72.0658301,62.2927918 71.9907998,62.1755916 C71.8602275,62.0041501 71.8577915,61.7794358 71.8597403,61.5740934 C71.8641252,61.0127919 71.8577915,60.4514904 71.8626636,59.8901889 C69.7574292,59.8814716 67.6526821,59.8809873 65.5474477,59.8901889 C65.541114,60.5517401 65.5630384,61.2142599 65.5362419,61.8753268 C65.5104197,62.0971353 65.3559742,62.3097422 65.1347808,62.3731853 C64.919434,62.436144 64.6573151,62.4501887 64.4780218,62.2927918 C64.2967797,62.1620313 64.234904,61.9285996 64.2397761,61.7159927 C64.2402633,60.8767042 64.2383145,60.0374156 64.2407505,59.198127 C64.2383145,59.0044077 64.2821634,58.780662 64.4668159,58.6789594 C64.7065233,58.5806469 64.9754632,58.6712106 65.221017,58.6034089 C65.3623079,58.5583692 65.4587755,58.4372947 65.5401395,58.3210631 C65.6906874,58.0886 65.7715643,57.8198146 65.8353888,57.5529663 C65.963525,57.0478434 66.0195542,56.5257701 66.0171181,56.0051496 C66.0180925,55.0694857 66.0176053,54.1338218 66.0176053,53.1981579 C66.0200414,52.9211394 66.0054251,52.6407308 66.0629159,52.368071 C66.1014055,52.2160014 66.16523,52.0435912 66.3221116,51.9772424 Z M67.5045702,53.2964704 C67.4690039,53.5032657 67.4850818,53.7129668 67.4826458,53.9216992 C67.4816713,54.6486307 67.4841074,55.3755621 67.4811841,56.1024936 C67.4797225,56.5722627 67.4524387,57.0430005 67.3744851,57.506958 C67.3335595,57.8067385 67.2531699,58.0992546 67.1654721,58.3883806 C67.1250336,58.4673211 67.0904417,58.5496518 67.0602347,58.6334354 C68.1101722,58.619875 69.160597,58.6445742 70.2100473,58.6208436 C70.2266124,58.6232651 70.2597427,58.6285924 70.2758206,58.6310139 C70.2855648,56.7950398 70.2782567,54.9580972 70.2797183,53.1216388 C69.4797195,53.1114685 68.6797207,53.1192173 67.8802091,53.1167958 C67.7394054,53.1148586 67.5347772,53.1264818 67.5045702,53.2964704 Z M92.9919863,57.2434999 C93.0397329,57.3422967 93.1089167,57.2454371 93.1556888,57.2028188 C93.4791963,57.1679494 93.8212177,57.2202536 94.0930808,57.4067083 C94.492593,57.6503103 94.7571481,58.1007075 94.7542248,58.5690237 C94.7717644,59.0528375 94.5047733,59.5259968 94.0930808,59.779769 C93.8066014,59.9730039 93.4431427,60.0228866 93.1055062,59.9754254 C92.7469197,59.9197311 92.4302332,59.7047028 92.2090398,59.4242942 C91.9006359,59.0208739 91.8533765,58.4455277 92.0682361,57.9893189 C92.2509399,57.6280325 92.5890636,57.3297049 92.9919863,57.2434999 L92.9919863,57.2434999 Z" id="Fill-6" fill="#FEFEFE"></path>
            </g>
        </g>
    </g>
</svg>