<?xml version="1.0" encoding="UTF-8"?>
<svg width="175px" height="89px" viewBox="0 0 175 89" version="1.1" xmlns="http://www.w3.org/2000/svg" xmlns:xlink="http://www.w3.org/1999/xlink">
    <!-- Generator: Sketch 63.1 (92452) - https://sketch.com -->
    <title>Hot</title>
    <desc>Created with Sketch.</desc>
    <g id="Symbols" stroke="none" stroke-width="1" fill="none" fill-rule="evenodd">
        <g id="Partners-logos-/-Desktop" transform="translate(-748.000000, -202.000000)" fill-rule="nonzero">
            <g id="Hot" transform="translate(748.000000, 202.000000)">
                <g id="Bg-2" transform="translate(-0.000000, -0.000000)" fill="#282D35">
                    <rect id="Rectangle-Copy" x="0" y="0" width="175" height="89" rx="2.16383412"></rect>
                </g>
                <path d="M81.1233891,43.6120173 C83.2778457,43.6120173 85.3440621,44.4678678 86.8674927,45.9912988 C88.3909234,47.5147298 89.2467732,49.5809463 89.2467732,51.7354029 C89.2467732,53.8898594 88.3909234,55.956076 86.8674927,57.4795069 C85.3440621,59.0029379 83.2778457,59.8587884 81.1233891,59.8587884 C78.9689317,59.8587884 76.902714,59.0029399 75.3792822,57.4795087 C73.8558504,55.9560776 73,53.8898603 73,51.7354029 C73,49.5809455 73.8558504,47.5147281 75.3792822,45.991297 C76.902714,44.4678659 78.9689317,43.6120173 81.1233891,43.6120173 Z M101.315298,44.6242277 C101.568619,44.6242277 101.772542,44.8281509 101.772542,45.081471 L101.772542,45.081471 L101.772542,48.167114 L97.7231019,48.167114 L97.7231019,58.7482556 L93.9989142,58.7482556 L93.9989142,48.167114 L89.9504705,48.167114 L89.9504705,45.081471 C89.9504705,44.8281509 90.1543896,44.6242277 90.4077113,44.6242277 L90.4077113,44.6242277 Z M81.0936028,47.2621916 C78.6274968,47.2621916 76.6283594,49.261427 76.6283594,51.727533 C76.6283594,54.1936391 78.6274966,56.1928748 81.0936028,56.1928748 C82.2778864,56.1928748 83.4136661,55.7224266 84.2510809,54.8850115 C85.0884957,54.0475964 85.5589431,52.9118165 85.5589431,51.727533 C85.5589431,50.5432495 85.0884955,49.4074697 84.2510807,48.5700547 C83.4136659,47.7326397 82.2778863,47.2621916 81.0936028,47.2621916 Z M78.5288557,28.000007 L78.5288557,33.2027154 L83.640116,33.2027154 L83.640116,28.000007 L86.9978123,28.000007 C87.1940503,28.000007 87.3520505,28.158012 87.3520505,28.3542458 L87.3520505,28.3542458 L87.3520505,41.7071367 C87.3520505,41.9033705 87.1940503,42.0613759 86.9978123,42.0613759 L86.9978123,42.0613759 L83.640116,42.0613759 L83.640116,36.7274713 L78.5288557,36.7274713 L78.5288557,42.0613759 L75.1711593,42.0613759 C74.9749265,42.0613759 74.817018,41.9033705 74.817018,41.7071367 L74.817018,41.7071367 L74.817018,28.3542458 C74.817018,28.158012 74.9749265,28.000007 75.1711593,28.000007 L75.1711593,28.000007 L78.5288557,28.000007 Z M101.772515,28 L101.772515,42.0613382 L89.9504742,42.0613382 L89.9504742,28 L101.772515,28 Z" id="Combined-Shape" fill="#F2F2F2"></path>
            </g>
        </g>
    </g>
</svg>