<svg width="175" height="89" viewBox="0 0 175 89" fill="none" xmlns="http://www.w3.org/2000/svg">
<path d="M172.836 0H2.16383C0.968781 0 0 0.968781 0 2.16383V86.8362C0 88.0312 0.968781 89 2.16383 89H172.836C174.031 89 175 88.0312 175 86.8362V2.16383C175 0.968781 174.031 0 172.836 0Z" fill="#282D35"/>
<g clip-path="url(#clip0_1_17)">
<path d="M108.624 32.6444C108.162 29.2643 105.81 26.9492 102.582 26.6251C95.0191 25.7916 80.2617 25.7916 72.6985 26.6251C69.5164 26.9955 67.2106 29.2643 66.6572 32.6444C65.7809 38.2006 65.7809 49.4521 66.6572 55.2862C67.1645 58.6199 69.4703 60.8888 72.6985 61.3055C76.4801 61.7685 82.0602 62 87.6404 62C93.2205 62 98.8468 61.7685 102.628 61.3055C105.903 60.8888 108.209 58.5736 108.67 55.2862C109.454 49.4058 109.454 38.2006 108.624 32.6444ZM106.41 54.9158C106.087 57.2309 104.565 58.7588 102.352 59.0367C95.0652 59.9627 80.2617 59.9627 72.9752 59.0367C70.7616 58.7588 69.2397 57.2309 68.9169 54.9158C68.0868 49.3595 68.0407 38.2932 68.9169 32.9685C69.2858 30.6071 70.8077 29.0791 72.9752 28.8476C76.6184 28.4309 82.1524 28.2457 87.6865 28.2457C93.2205 28.2457 98.7545 28.4309 102.398 28.8476C104.611 29.0791 106.133 30.6071 106.456 32.9685C107.148 38.247 107.148 49.3595 106.41 54.9158Z" fill="white"/>
<path d="M73.6209 52.3229C73.1596 52.3229 72.7446 52.508 72.3757 52.8321C72.0529 53.1563 71.8684 53.573 71.8684 54.0823C71.8684 54.5917 72.0529 54.9621 72.3757 55.3325C72.6985 55.6566 73.1135 55.8418 73.6209 55.8418C74.082 55.8418 74.497 55.6566 74.866 55.3325C75.1888 55.0083 75.3733 54.5917 75.3733 54.0823C75.3733 53.6193 75.1888 53.2026 74.866 52.8321C74.5432 52.508 74.1281 52.3229 73.6209 52.3229Z" fill="white"/>
<path d="M84.5044 42.7383H81.4607V39.8212C81.4607 39.6823 81.4146 39.5434 81.2762 39.4971C81.184 39.4045 81.0457 39.4045 80.9073 39.4508L79.3393 39.9138C79.1549 39.9601 79.0626 40.1453 79.0626 40.3306V42.7846H76.9874C76.7568 42.7846 76.5723 42.9698 76.5723 43.2013V44.7293C76.5723 44.9608 76.7568 45.146 76.9874 45.146H79.0626V51.9987C79.0626 53.5267 79.5238 54.5917 80.4923 55.1936C81.0918 55.564 81.9219 55.7492 82.9364 55.7492C83.4437 55.7492 83.9972 55.7029 84.5967 55.6103C84.7811 55.564 84.9656 55.3788 84.9656 55.1936V53.8045C84.9656 53.7119 84.9194 53.573 84.8272 53.4804C84.735 53.3878 84.6428 53.3415 84.5044 53.3415C83.7665 53.3878 83.1209 53.3878 82.6136 53.3878C82.1986 53.3878 81.968 53.2952 81.7835 53.11C81.599 52.9247 81.5068 52.508 81.5068 51.9987V45.0997H84.5506C84.7811 45.0997 84.9656 44.9145 84.9656 44.683V43.155C84.9656 42.9235 84.735 42.7383 84.5044 42.7383Z" fill="white"/>
<path d="M97.8783 42.7383H96.2181C96.0336 42.7383 95.8953 42.8309 95.8492 43.0161L92.0215 52.3691L88.2399 42.9698C88.1938 42.8309 88.0093 42.692 87.8709 42.692H86.1646C86.0263 42.692 85.8879 42.7846 85.7957 42.8771C85.7034 43.0161 85.7034 43.155 85.7496 43.2939L90.638 55.2862C90.6841 55.4251 90.8686 55.564 91.0069 55.564H92.8977C93.0822 55.564 93.2205 55.4714 93.2666 55.2862L98.155 43.2939C98.2011 43.155 98.2011 43.0161 98.1089 42.8771C98.155 42.8309 98.0167 42.7383 97.8783 42.7383Z" fill="white"/>
</g>
<defs>
<clipPath id="clip0_1_17">
<rect width="43.5484" height="36" fill="white" transform="translate(66 26)"/>
</clipPath>
</defs>
</svg>
