<?xml version="1.0" encoding="UTF-8"?>
<svg width="175px" height="89px" viewBox="0 0 175 89" version="1.1" xmlns="http://www.w3.org/2000/svg" xmlns:xlink="http://www.w3.org/1999/xlink">
    <!-- Generator: Sketch 63.1 (92452) - https://sketch.com -->
    <title>Megafon</title>
    <desc>Created with Sketch.</desc>
    <g id="Symbols" stroke="none" stroke-width="1" fill="none" fill-rule="evenodd">
        <g id="Partners-logos-/-Desktop" transform="translate(-935.000000, 0.000000)" fill-rule="nonzero">
            <g id="Megafon" transform="translate(935.000000, 0.000000)">
                <g id="Bg-2" fill="#282D35">
                    <rect id="Rectangle-Copy" x="0" y="0" width="175" height="89" rx="2.16383412"></rect>
                </g>
                <path d="M47.7812846,36.0333473 L47.7812846,45.3039004 C47.7812846,45.7374154 47.45847,46.0375412 47.0710923,46.0375412 L46.0058039,46.0375412 C45.941241,46.0375412 45.9089595,46.1042358 45.9089595,46.1375832 L45.9089595,53.9075071 C46.1672112,53.9075071 46.425463,53.9742017 46.7159962,53.9742017 C51.5259348,53.9742017 55.4319924,49.9391769 55.4319924,44.9704272 C55.4319924,40.4018453 52.1070013,36.5669043 47.7812846,36.0333473 Z M47.5875958,49.9058295 C46.974248,49.9058295 46.5223074,49.3722725 46.5223074,48.8053682 C46.5223074,48.1717693 47.0388109,47.7049069 47.5875958,47.7049069 C48.2009437,47.7049069 48.6528842,48.2384639 48.6528842,48.8053682 C48.7174472,49.4056199 48.2009437,49.9058295 47.5875958,49.9058295 Z M50.1378318,49.9058295 C49.5244839,49.9058295 49.0725433,49.3722725 49.0725433,48.8053682 C49.0725433,48.1717693 49.5890468,47.7049069 50.1378318,47.7049069 C50.7511796,47.7049069 51.2031202,48.2384639 51.2031202,48.8053682 C51.2031202,49.3722725 50.7834611,49.9058295 50.1378318,49.9058295 Z M52.7203491,49.9058295 C52.1070013,49.9058295 51.6550607,49.3722725 51.6550607,48.8053682 C51.6550607,48.1717693 52.1715642,47.7049069 52.7203491,47.7049069 C53.333697,47.7049069 53.7856376,48.2384639 53.7856376,48.8053682 C53.7856376,49.3722725 53.333697,49.9058295 52.7203491,49.9058295 Z M46.7159962,36 L46.6837147,44.837038 C46.6837147,44.8703853 46.6514333,44.9370799 46.5868703,44.9370799 L45.876678,44.9370799 L45.5215819,44.9370799 C45.1987672,45.0037745 44.8759526,45.3039004 44.8759526,45.6707208 L44.8759526,53.7741179 C40.9376135,52.940435 38,49.3722725 38,45.0037745 C38,40.0350249 41.9060576,36 46.7159962,36 Z M45.0373599,43.4031035 C45.6184263,43.4031035 46.1026483,42.8695465 46.1026483,42.3026422 C46.1026483,41.7357378 45.6507078,41.2021808 45.0373599,41.2021808 C44.488575,41.2021808 43.9720715,41.6690432 43.9720715,42.3026422 C43.9720715,42.8695465 44.424012,43.4031035 45.0373599,43.4031035 Z M133.972803,40.902055 L136.135661,40.902055 L136.135661,49.9058295 L133.972803,49.9058295 L133.972803,46.2709724 L129.582523,46.2709724 L129.582523,49.9058295 L127.355102,49.9058295 L127.355102,40.902055 L129.582523,40.902055 L129.582523,44.3034809 L133.972803,44.3034809 L133.972803,40.902055 Z M97.688433,41.9358217 L101.336239,49.9391769 L99.0119732,49.9391769 L98.2372182,48.03838 L93.7178126,48.03838 L92.9430576,49.9391769 L90.6187917,49.9391769 L94.137472,41.9358217 C94.4602865,41.1354862 95.2027604,40.7019711 95.9129523,40.7019711 C96.6231447,40.7019711 97.3333371,41.1354862 97.688433,41.9358217 Z M94.3311608,46.2376251 L97.3010555,46.2376251 L95.9775154,42.9362411 C95.9775154,42.8361992 95.8806712,42.8361992 95.8161082,42.8361992 C95.7515451,42.8361992 95.7192636,42.8361992 95.6547009,42.9362411 L94.3311608,46.2376251 Z M71.7341335,39.301384 C72.7025775,39.301384 73.6710215,40.0350249 73.703303,41.6023486 L73.703303,49.9725242 L71.5404446,49.9725242 L71.5404446,41.8024325 L68.667394,48.5052424 C68.3122979,49.4723145 67.69895,50.0392188 66.7627875,50.0392188 C65.8911879,50.0392188 65.213277,49.4723145 64.8581809,48.5052424 L61.9851303,41.8024325 L61.9851303,49.8724822 L59.822272,49.8724822 L59.822272,41.5023067 C59.822272,39.9349829 60.790716,39.2680367 61.75916,39.2680367 C62.792167,39.2680367 63.4700778,39.8682883 63.9220183,40.9687496 L66.7627875,47.7716015 L69.5712751,41.002097 C70.0554971,39.8682883 70.7011265,39.301384 71.7341335,39.301384 Z M77.5125161,48.0050327 L77.5125161,47.9049907 L82.9035211,47.9049907 L82.9035211,49.8057876 L76.4472277,49.8057876 C75.7047539,49.8057876 75.155969,49.1388413 75.155969,48.4718951 L75.155969,42.1692529 C75.155969,41.4689593 75.6724725,40.8353604 76.4472277,40.8353604 L82.9035211,40.8353604 L82.9035211,42.7361573 L77.5125161,42.7361573 C77.3833903,42.7361573 77.2865458,42.8695465 77.2865458,42.9695884 L77.2865458,44.3368283 L82.7098323,44.3368283 L82.7098323,46.1709305 L77.2865458,46.1709305 L77.2865458,47.7716015 C77.2865458,47.9049907 77.4156717,48.0050327 77.5125161,48.0050327 Z M86.5513271,49.9058295 L84.42075,49.8724822 L84.42075,42.2359475 C84.42075,41.535654 84.9372536,40.902055 85.712009,40.902055 L92.1683021,40.902055 L92.1683021,42.8028519 L86.7772974,42.8028519 C86.6481713,42.8028519 86.5513271,42.9362411 86.5513271,43.0362831 L86.5513271,49.9058295 Z M125.934717,45.4372896 C125.934717,48.5052424 124.611177,49.9725242 121.253904,50.0392188 L120.543712,50.0392188 C117.251002,50.0392188 115.927462,48.5052424 115.927462,45.4372896 C115.927462,42.3359895 117.251002,40.8353604 120.543712,40.8353604 L121.318467,40.8353604 C124.611177,40.8353604 125.934717,42.3026422 125.934717,45.4372896 Z M121.253904,48.138422 C123.093948,48.138422 123.771859,47.2713918 123.771859,45.4372896 C123.771859,43.6365347 123.093948,42.7361573 121.253904,42.7361573 L120.543712,42.7361573 C118.639106,42.7361573 118.025758,43.6365347 118.025758,45.4372896 C118.025758,47.3047391 118.768231,48.138422 120.543712,48.138422 L121.253904,48.138422 Z M109.890828,39.5014679 C113.054412,39.5014679 114.377952,41.2021808 114.410233,44.1033971 C114.410233,44.5702594 114.377952,45.0037745 114.313389,45.370595 C113.990574,47.4381284 112.79616,48.7053263 109.761702,48.7053263 L108.825539,48.7053263 L108.825539,49.8724822 L106.662681,49.8724822 L106.662681,48.7053263 L105.694237,48.7053263 C102.692061,48.7053263 101.497646,47.4381284 101.14255,45.370595 C101.110269,45.0037745 101.045706,44.5702594 101.045706,44.1033971 C101.045706,41.2021808 102.336964,39.5014679 105.565111,39.5014679 L109.890828,39.5014679 Z M106.598118,46.8378768 L106.6304,46.8378768 L106.6304,41.3689174 L105.30686,41.3689174 C104.080164,41.3689174 103.208564,42.1692529 103.208564,44.0700498 C103.208564,44.5369122 103.208564,45.0037745 103.305409,45.3372476 C103.628223,46.2709724 104.144727,46.8378768 105.629674,46.8378768 L106.598118,46.8378768 Z M112.150531,45.4372896 C112.247375,45.0371218 112.247375,44.6369541 112.279657,44.1367444 C112.279657,42.2359475 111.408057,41.435612 110.181361,41.435612 L108.857821,41.435612 L108.857821,46.9379187 L109.826265,46.9379187 C111.278931,46.9379187 111.827716,46.3376671 112.150531,45.4372896 Z" id="Combined-Shape" fill="#FFFFFF"></path>
            </g>
        </g>
    </g>
</svg>