<?xml version="1.0" encoding="UTF-8"?>
<svg width="175px" height="89px" viewBox="0 0 175 89" version="1.1" xmlns="http://www.w3.org/2000/svg" xmlns:xlink="http://www.w3.org/1999/xlink">
    <!-- Generator: Sketch 63.1 (92452) - https://sketch.com -->
    <title>Megogo</title>
    <desc>Created with Sketch.</desc>
    <g id="Symbols" stroke="none" stroke-width="1" fill="none" fill-rule="evenodd">
        <g id="Partners-logos-/-Desktop">
            <g id="Megogo">
                <g id="Bg-2" fill="#282D35" fill-rule="nonzero">
                    <rect id="Rectangle-Copy" x="0" y="0" width="175" height="89" rx="2.16965528"></rect>
                </g>
                <path d="M106.563072,28.058731 C106.757068,27.9768074 106.976951,27.9806931 107.168034,28.0697404 L107.168034,28.0697404 L113.95367,31.2263863 C113.988457,31.2422529 114.022272,31.2610338 114.054794,31.2824051 C114.263675,31.4206713 114.389391,31.654461 114.389391,31.9049267 L114.389391,31.9049267 L114.389391,61.2537836 C114.389391,61.6658298 114.055279,62 113.64318,62 L113.64318,62 L62.3566903,62 C61.9445915,62 61.6104791,61.6658298 61.6104791,61.2537836 L61.6104791,61.2537836 L61.6104791,31.9049267 C61.6104791,31.654461 61.736196,31.4206713 61.9452387,31.2824051 C61.9763038,31.2620052 62.0088252,31.2441958 62.0421555,31.228653 L62.0421555,31.228653 L62.0419937,31.2283291 L68.8319982,28.0697404 C69.0230813,27.9808551 69.2428027,27.9768074 69.43696,28.058731 L69.43696,28.058731 L88.0000162,35.895541 Z M106.570191,55.9808882 L69.4298409,55.9808882 L64.323342,60.5075672 L111.67669,60.5075672 L106.570191,55.9808882 Z M112.897131,33.0335608 L107.599387,35.2893718 L107.599387,45.1645555 C108.635054,45.2673646 109.496142,45.8162198 109.968268,46.5682647 L109.968268,46.5682647 L108.75883,47.2618623 C108.501086,46.8527304 107.94078,46.5326458 107.238416,46.5326458 C106.189158,46.5326458 105.406542,47.3063859 105.406542,48.4000487 C105.406542,49.4582544 106.1534,50.2318326 107.362839,50.2318326 C108.189787,50.2318326 108.732295,49.8672244 108.954605,49.2715789 L108.954605,49.2715789 L107.291648,49.2715789 L107.291648,48.0265357 L110.412888,48.0265357 L110.412888,48.5601719 C110.412888,50.3689654 109.214776,51.5006757 107.599387,51.6083419 L107.599387,51.6083419 L107.599387,54.8992064 L112.897131,59.5952372 L112.897131,33.0335608 Z M63.1029016,33.0335608 L63.1029016,59.5952372 L68.4006454,54.8992064 L68.4006454,51.4945233 L66.2603847,51.4945233 L66.2603847,45.2699551 L68.4006454,45.2699551 L68.4006454,35.2893718 L63.1029016,33.0335608 Z M106.107126,35.9248457 L88.2927083,43.5102185 C88.1040521,43.590523 87.8925825,43.5890659 87.707324,43.5098947 L87.707324,43.5098947 L87.7071622,43.5102185 L69.8929061,35.9248457 L69.8929061,45.2699551 L70.8518813,45.2699551 L70.8518813,46.6395026 L67.6832342,46.6395026 L67.6832342,47.6708322 L70.8518813,47.6708322 L70.8518813,49.0225702 L67.6832342,49.0225702 L67.6832342,50.1251377 L70.8518813,50.1251377 L70.8518813,51.4945233 L69.8929061,51.4945233 L69.8929061,54.4886174 L106.107126,54.4886174 L106.107126,51.4049903 C104.82407,50.9422681 103.983693,49.7718628 103.983693,48.3911439 C103.983693,46.9838728 104.855621,45.8018103 106.107126,45.3475072 L106.107126,45.3475072 L106.107126,35.9248457 Z M80.8401258,45.1455155 C82.0317663,45.1455155 83.0365303,45.7324182 83.5610787,46.5681676 L83.5610787,46.5681676 L82.3518022,47.2617651 C82.0938966,46.8527951 81.533591,46.5327106 80.831227,46.5327106 C79.7819685,46.5327106 78.9993528,47.3062888 78.9993528,48.4001134 C78.9993528,49.4581573 79.746373,50.2318973 80.9556494,50.2318973 C81.7827596,50.2318973 82.3251056,49.8672891 82.5474157,49.2714817 L82.5474157,49.2714817 L80.8846202,49.2714817 L80.8846202,48.0266005 L84.0056989,48.0266005 L84.0056989,48.5602367 C84.0056989,50.4630965 82.6807371,51.6190924 80.9378517,51.6190924 C78.9815551,51.6190924 77.5766652,50.1786309 77.5766652,48.3912087 C77.5766652,46.586139 79.0082517,45.1455155 80.8401258,45.1455155 Z M94.0347326,45.1455155 C95.8221124,45.1455155 97.2716584,46.55052 97.2716584,48.3821421 C97.2716584,50.2140879 95.8221124,51.6190924 94.0347326,51.6190924 C92.2475146,51.6190924 90.7979685,50.2140879 90.7979685,48.3821421 C90.7979685,46.55052 92.2475146,45.1455155 94.0347326,45.1455155 Z M120.763236,45.1455317 C122.550454,45.1455317 124,46.5505362 124,48.3821582 C124,50.2141041 122.550454,51.6191086 120.763236,51.6191086 C118.975856,51.6191086 117.52631,50.2141041 117.52631,48.3821582 C117.52631,46.5505362 118.975856,45.1455317 120.763236,45.1455317 Z M53.4228494,45.2699713 L55.1123416,48.0354566 L56.8018337,45.2699713 L58.2246831,45.2699713 L58.2246831,51.4945395 L56.8018337,51.4945395 L56.8018337,47.8753334 L55.1924315,50.5164763 L55.0322517,50.5164763 L53.4228494,47.8753334 L53.4228494,51.4945395 L52,51.4945395 L52,45.2699713 L53.4228494,45.2699713 Z M94.0347326,46.5327106 C93.0210697,46.5327106 92.2206562,47.2706698 92.2206562,48.3821421 C92.2206562,49.4939381 93.0210697,50.2318973 94.0347326,50.2318973 C95.0483955,50.2318973 95.848809,49.4939381 95.848809,48.3821421 C95.848809,47.2706698 95.0483955,46.5327106 94.0347326,46.5327106 Z M120.763236,46.5327268 C119.749411,46.5327268 118.948998,47.270686 118.948998,48.3821582 C118.948998,49.4937924 119.749411,50.2319135 120.763236,50.2319135 C121.776899,50.2319135 122.577151,49.4937924 122.577151,48.3821582 C122.577151,47.270686 121.776899,46.5327268 120.763236,46.5327268 Z M69.8929061,29.8710864 L69.8929061,34.3028896 L87.2542903,41.6952727 L87.2542903,37.2004887 L69.8929061,29.8710864 Z M106.107126,29.8710864 L88.746551,37.2001649 L88.746551,41.6949488 L106.107126,34.3028896 L106.107126,29.8710864 Z M68.4006454,29.9162577 L64.1905061,31.8748125 L68.4006454,33.6674157 L68.4006454,29.9162577 Z M107.599387,29.9162577 L107.599387,33.6674157 L111.809364,31.8748125 L107.599387,29.9162577 Z" id="Combined-Shape" fill="#F2F2F2"></path>
            </g>
        </g>
    </g>
</svg>