<?xml version="1.0" encoding="UTF-8"?>
<svg width="175px" height="89px" viewBox="0 0 175 89" version="1.1" xmlns="http://www.w3.org/2000/svg" xmlns:xlink="http://www.w3.org/1999/xlink">
    <!-- Generator: Sketch 63.1 (92452) - https://sketch.com -->
    <title>MGTS</title>
    <desc>Created with Sketch.</desc>
    <g id="Symbols" stroke="none" stroke-width="1" fill="none" fill-rule="evenodd">
        <g id="Partners-logos-/-Desktop" transform="translate(-748.000000, -101.000000)">
            <g id="MGTS" transform="translate(748.000000, 101.000000)">
                <g id="Bg-2" fill="#282D35" fill-rule="nonzero">
                    <rect id="Rectangle-Copy" x="0" y="0" width="175" height="89" rx="2.16383412"></rect>
                </g>
                <path d="M72.2898871,34 C73.4099839,34 74.3210052,34.9125605 74.3210052,36.0352958 L74.3210052,52.3341705 C74.3210052,53.4616226 73.4099839,54.373212 72.2898871,54.373212 L56.0308414,54.373212 C54.9089458,54.373212 54,53.4616226 54,52.3341705 L54,36.0352958 C54,34.9125605 54.9089458,34 56.0308414,34 L72.2898871,34 Z M64.1787218,36.6394613 L64.1575277,36.6394613 L64.1575277,36.6394613 C62.3739936,36.6394613 60.4166486,38.9697324 59.3879474,41.8118125 C59.1204225,42.550529 58.9155983,43.3238227 58.7928244,44.0997615 C58.775326,44.2109493 58.7595001,44.3221725 58.7454013,44.4333287 C58.6906053,44.8609828 58.6619273,45.2876467 58.6619273,45.707494 C58.6619273,48.7130616 60.3594378,51.748456 64.1568358,51.748456 C67.4843329,51.748456 69.2021836,49.4212739 69.578132,46.8250962 C69.6329262,46.4526084 69.6603232,46.0763748 69.6603232,45.6973667 C69.6603232,41.4753727 66.7442291,36.6652747 64.1787218,36.6394613 Z M117.337842,38.9382038 C118.66314,38.9382038 120.209413,39.1514305 120.209413,39.1514305 L120.209413,39.1514305 L120.034238,41.6507754 C120.034238,41.6507754 118.821988,41.4741731 117.569749,41.4741731 C115.829897,41.4741731 115.5378,42.001344 115.5378,43.3850288 L115.5378,43.3850288 L115.5378,45.0048307 C115.5378,46.351891 115.869332,46.8982065 117.569749,46.8982065 C118.96174,46.8982065 120.169286,46.7407489 120.169286,46.7407489 L120.169286,46.7407489 L120.366462,49.2373191 C120.366462,49.2373191 118.626611,49.4531817 117.316949,49.4531817 C114.071089,49.4531817 112.50752,48.575581 112.50752,45.4337813 L112.50752,45.4337813 L112.50752,42.9567718 C112.50752,40.1086618 113.797395,38.9382038 117.337842,38.9382038 Z M83.7862729,39.091777 L86.3402874,44.8771998 L86.5164311,44.8771998 L88.9716501,39.091777 L91.8231578,39.091777 L92.4941089,49.2781055 L89.5457429,49.2781055 L89.2090912,44.3473931 L89.0311487,44.3473931 L87.4072505,48.2549778 L85.4685629,48.2549778 L83.6465203,44.3473931 L83.4695464,44.3473931 L83.1719147,49.2781055 L80.3020039,49.2781055 L80.9747538,39.091777 L83.7862729,39.091777 Z M100.922024,39.0914995 L100.743113,41.6710298 L97.5712815,41.6710298 L97.5712815,49.2769957 L94.521491,49.2769957 L94.521491,39.0914995 L100.922024,39.0914995 Z M111.243519,39.0914995 L111.067376,41.6713073 L108.134507,41.6713073 L108.134507,49.2769957 L105.08693,49.2769957 L105.08693,41.6713073 L102.494588,41.6713073 L102.318444,39.0914995 L111.243519,39.0914995 Z" id="Combined-Shape" fill="#FFFFFF"></path>
            </g>
        </g>
    </g>
</svg>