<?xml version="1.0" encoding="UTF-8"?>
<svg width="175px" height="89px" viewBox="0 0 175 89" version="1.1" xmlns="http://www.w3.org/2000/svg" xmlns:xlink="http://www.w3.org/1999/xlink">
    <!-- Generator: Sketch 63.1 (92452) - https://sketch.com -->
    <title>MTS</title>
    <desc>Created with Sketch.</desc>
    <g id="Symbols" stroke="none" stroke-width="1" fill="none" fill-rule="evenodd">
        <g id="Partners-logos-/-Desktop" transform="translate(0.000000, -202.000000)">
            <g id="MTS" transform="translate(0.000000, 202.000000)">
                <g id="Bg-2" transform="translate(-0.000000, 0.000000)" fill="#282D35" fill-rule="nonzero">
                    <rect id="Rectangle-Copy" x="0" y="0" width="175" height="89" rx="2.16383412"></rect>
                </g>
                <path d="M61.3436271,34.0325099 L77.3721544,34.0339004 C78.4771313,34.0339004 79.3757203,34.9145154 79.3757203,36.0018431 L79.3757203,51.7690226 C79.3757203,52.8558869 78.4771313,53.7392827 77.3721544,53.7392827 L61.3436271,53.7392827 C60.238179,53.7392827 59.3400612,52.8558869 59.3400612,51.7680956 L59.3400612,36.0018431 C59.3400612,34.9145154 60.238179,34.0325099 61.3436271,34.0325099 Z M69.3564771,36.5849029 C66.8289307,36.5849029 63.9371424,41.2526258 63.9371424,45.347022 C63.9371424,48.2544418 65.6132204,51.1887437 69.3564771,51.1887437 C73.1053883,51.1887437 74.7814664,48.2544418 74.7814664,45.347022 C74.7814664,41.2526258 71.8910917,36.5849029 69.3564771,36.5849029 Z M112.189955,38.7882016 C113.500849,38.7882016 115.022842,38.9949144 115.022842,38.9949144 L115.022842,38.9949144 L114.849439,41.4128977 C114.849439,41.4128977 113.654462,41.2423365 112.423673,41.2423365 C110.706129,41.2423365 110.416808,41.7507758 110.416808,43.090701 L110.416808,43.090701 L110.416808,44.6586591 C110.416808,45.9605789 110.744296,46.4889479 112.423673,46.4889479 C113.789698,46.4889479 114.986088,46.3359989 114.986088,46.3359989 L114.986088,46.3359989 L115.17834,48.7544458 C115.17834,48.7544458 113.46221,48.9611585 112.17252,48.9611585 C108.969736,48.9611585 107.428423,48.1102064 107.428423,45.0716212 L107.428423,45.0716212 L107.428423,42.6763485 C107.428423,39.921414 108.699736,38.7882016 112.189955,38.7882016 Z M106.484645,38.958392 L106.313127,41.4556307 L103.421338,41.4556307 L103.421338,48.8138641 L100.414105,48.8138641 L100.414105,41.4556307 L97.5209027,41.4556307 L97.3474991,38.958392 L106.484645,38.958392 Z M87.820006,38.9596898 L90.3404844,44.5562297 L90.5134168,44.5562297 L92.934942,38.9596898 L95.743327,38.9596898 L96.408198,48.8137714 L93.4989751,48.8137714 L93.1700736,44.0464 L92.9938427,44.0464 L91.3926863,47.8233113 L89.4800631,47.8233113 L87.6833564,44.0464 L87.510424,44.0464 L87.216863,48.8137714 L84.3868026,48.8137714 L85.0474327,38.9596898 L87.820006,38.9596898 Z" id="Combined-Shape" fill="#FFFFFF"></path>
            </g>
        </g>
    </g>
</svg>