<?xml version="1.0" encoding="UTF-8"?>
<svg width="175px" height="89px" viewBox="0 0 175 89" version="1.1" xmlns="http://www.w3.org/2000/svg" xmlns:xlink="http://www.w3.org/1999/xlink">
    <!-- Generator: Sketch 63.1 (92452) - https://sketch.com -->
    <title>Odnoklassiki</title>
    <desc>Created with Sketch.</desc>
    <g id="Symbols" stroke="none" stroke-width="1" fill="none" fill-rule="evenodd">
        <g id="Partners-logos-/-Desktop" transform="translate(-561.000000, -202.000000)" fill-rule="nonzero">
            <g id="Odnoklassiki" transform="translate(561.000000, 202.000000)">
                <g id="Bg-2" fill="#282D35">
                    <rect id="Rectangle-Copy" x="0" y="0" width="175" height="89" rx="2.16383412"></rect>
                </g>
                <path d="M56.0314469,45.0750125 C56.5206566,45.8284363 56.2867458,46.8243261 55.5099854,47.2990456 C54.4843765,47.9246476 53.3701599,48.3680706 52.2152041,48.6233847 L55.3870889,51.7016494 C56.0375578,52.3308752 56.0375578,53.3524611 55.3870889,53.9826752 C54.7383174,54.6125599 53.6858885,54.6125599 53.0377961,53.9826752 L49.9192117,50.9577794 L46.8030038,53.9826752 C46.4784483,54.2972881 46.0530633,54.4547593 45.6269994,54.4547593 C45.2019539,54.4547593 44.7772479,54.2972881 44.452353,53.9826752 C43.8029025,53.3524611 43.8029025,52.3315341 44.451674,51.7016494 L47.6232193,48.6233847 C46.468603,48.3680706 45.3543863,47.9239887 44.3287774,47.2990456 C43.5523565,46.8243261 43.3187852,45.8290952 43.8079949,45.0750125 C44.2965256,44.3199416 45.3221345,44.0929591 46.0999134,44.5680081 C48.4227257,45.9852486 51.4150187,45.9859074 53.739189,44.5680081 C54.5166284,44.0929591 55.5425768,44.3199416 56.0314469,45.0750125 Z M70.0501133,40.8258243 C70.3490831,40.8258243 70.4451566,40.9200717 70.4451566,41.2028141 L70.4451566,45.0890383 L70.7441264,45.0890383 C71.0219332,45.0890383 71.1395057,45.1832857 71.1395057,45.4765732 L71.1072572,46.8382181 C71.1072572,47.12129 70.9900207,47.2155375 70.7122139,47.2155375 L70.5093175,47.2155375 C70.2103477,47.2155375 70.1250237,47.12129 70.1142742,46.8382181 L70.0823617,46.0631482 L66.8148565,46.0631482 L66.7933576,46.8382181 C66.7826081,47.12129 66.7080336,47.2155375 66.3983143,47.2155375 L66.2061674,47.2155375 C65.917947,47.2155375 65.8111241,47.12129 65.8111241,46.8382181 L65.7896251,45.4765732 C65.7896251,45.1832857 65.8856986,45.0890383 66.1846684,45.0890383 L66.4943877,45.0890383 C66.7933576,43.9785002 66.974755,42.3759641 66.974755,41.2028141 C66.974755,40.9200717 67.0711644,40.8258243 67.3486353,40.8258243 L70.0501133,40.8258243 Z M79.9060404,40.7312473 C81.454301,40.7312473 82.2766362,41.8417854 82.2766362,43.350074 L82.2766362,43.6015104 C82.2766362,45.1101286 81.454301,46.2203372 79.9060404,46.2203372 C78.3470302,46.2203372 77.5246952,45.1101286 77.5246952,43.6015104 L77.5246952,43.350074 C77.5246952,41.8417854 78.3470302,40.7312473 79.9060404,40.7312473 Z M95.8589368,40.6999413 C97.2469629,40.6999413 98.1012106,41.3283675 98.1012106,42.9101428 L98.1012106,45.6756133 C98.1012106,45.9583556 98.0051371,46.0736934 97.7169166,46.0736934 L97.6850041,46.0736934 C97.3856981,46.0736934 97.289625,45.8011667 97.1935515,45.5500599 C96.8626689,45.9583556 96.3181409,46.2203372 95.6452906,46.2203372 C94.3959997,46.2203372 93.5951638,45.5078792 93.5951638,44.4500669 C93.5951638,43.3711644 94.4067493,42.6903419 95.6560402,42.6903419 C96.381966,42.6903419 96.8519197,42.9519939 97.1189769,43.2245206 L97.1189769,43.0673317 C97.0867285,42.0615862 96.5422004,41.6951416 95.7736125,41.6951416 C95.4316448,41.6951416 94.9939395,41.820695 94.7483812,41.9360328 C94.4494115,42.0408255 94.2680141,41.9884291 94.1396922,41.7580831 L94.0328691,41.590349 C93.8622213,41.2446652 94.1077796,41.1398726 94.2572645,41.0456251 C94.545485,40.9095265 95.1326751,40.6999413 95.8589368,40.6999413 Z M63.0239862,40.7312473 C64.5829963,40.7312473 65.4053313,41.8417854 65.4053313,43.350074 L65.4053313,43.6015104 C65.4053313,45.1101286 64.5829963,46.2203372 63.0239862,46.2203372 C61.4757255,46.2203372 60.6533905,45.1101286 60.6533905,43.6015104 L60.6533905,43.350074 C60.6533905,41.8417854 61.4757255,40.7312473 63.0239862,40.7312473 Z M106.570119,40.7352017 C107.765998,40.7352017 108.49226,41.531362 108.609496,42.4112245 C108.641745,42.6521157 108.513423,42.7882143 108.257115,42.7882143 L107.968895,42.7882143 C107.669925,42.7882143 107.627263,42.6415705 107.531189,42.4319853 C107.328293,41.9815089 107.007824,41.7406177 106.570119,41.7406177 C105.758533,41.7406177 105.448814,42.5160171 105.448814,43.4060952 L105.448814,43.5632842 C105.448814,44.4223859 105.822694,45.208001 106.602031,45.208001 C107.14656,45.208001 107.445529,44.8936231 107.616514,44.464237 C107.680674,44.2546518 107.755249,44.1080081 108.054219,44.1080081 L108.289363,44.1080081 C108.577584,44.1080081 108.70557,44.2128007 108.673657,44.4853273 C108.577584,45.2603973 107.872821,46.2134169 106.602031,46.2134169 C105.07527,46.2134169 104.284847,45.1242987 104.284847,43.5843745 L104.284847,43.3642441 C104.284847,41.8559554 105.021858,40.7352017 106.570119,40.7352017 Z M101.475538,40.7312473 C102.671418,40.7312473 103.39768,41.5274075 103.514916,42.4072701 C103.547164,42.6481613 103.418843,42.7845894 103.162535,42.7845894 L102.874314,42.7845894 C102.575344,42.7845894 102.532682,42.6379456 102.436609,42.4283604 C102.233713,41.977884 101.913244,41.7369928 101.475538,41.7369928 C100.663953,41.7369928 100.354234,42.5120627 100.354234,43.4024704 L100.354234,43.5596593 C100.354234,44.418761 100.728114,45.2043761 101.507451,45.2043761 C102.051979,45.2043761 102.350949,44.8899982 102.521933,44.4606121 C102.586094,44.2510269 102.660668,44.1043831 102.959638,44.1043831 L103.194783,44.1043831 C103.483004,44.1043831 103.61099,44.2091757 103.579077,44.4813729 C103.483004,45.2567724 102.778241,46.209792 101.507451,46.209792 C99.9806892,46.209792 99.1902666,45.1203442 99.1902666,43.5807496 L99.1902666,43.3606192 C99.1902666,41.8523305 99.9272779,40.7312473 101.475538,40.7312473 Z M92.1110642,40.8258243 C92.3992846,40.8258243 92.4953581,40.9200717 92.4953581,41.2028141 L92.4953581,45.6756133 C92.4953581,45.9583556 92.3992846,46.0631482 92.1110642,46.0631482 L91.7798457,46.0631482 C91.4916256,46.0631482 91.3955521,45.9583556 91.3955521,45.6756133 L91.3955521,41.7788439 L89.9860268,41.7788439 L89.9860268,42.7845894 C89.9860268,43.9995905 89.9218658,45.0260968 89.5587352,45.5602755 C89.2705147,45.9794459 88.8969704,46.1366349 88.4377662,46.1366349 C88.1495458,46.1366349 88.0427227,46.0423874 88.0427227,45.7490999 L88.0427227,45.4660281 C88.0427227,45.1832857 88.1495458,45.0890383 88.4377662,45.0890383 C88.9607955,45.0890383 88.9396325,43.507263 88.9396325,41.2028141 C88.9396325,40.9200717 89.035706,40.8258243 89.3239261,40.8258243 L92.1110642,40.8258243 Z M121.78634,40.8294492 C122.07456,40.8294492 122.181383,40.9236966 122.181383,41.206439 L122.181383,42.9454032 L122.661751,42.9454032 L123.900628,41.1227367 C124.082025,40.8713003 124.135437,40.8294492 124.508981,40.8294492 L125.043096,40.8294492 C125.256742,40.8294492 125.288654,40.9760929 125.20333,41.1227367 L123.654734,43.3118478 L125.363229,45.7003285 C125.470051,45.8677331 125.42739,46.0667731 125.181831,46.0667731 L124.658466,46.0667731 C124.284922,46.0667731 124.24226,46.024922 124.050113,45.7734856 L122.811236,44.0032154 L122.181383,44.0032154 L122.181383,45.6792382 C122.181383,45.9623101 122.07456,46.0667731 121.78634,46.0667731 L121.455122,46.0667731 C121.177651,46.0667731 121.070828,45.9623101 121.070828,45.6792382 L121.070828,41.206439 C121.070828,40.9236966 121.177651,40.8294492 121.455122,40.8294492 L121.78634,40.8294492 Z M110.403651,40.8294492 C110.691872,40.8294492 110.787945,40.9236966 110.787945,41.206439 L110.787945,42.9559483 L112.869985,42.9559483 L112.869985,41.206439 C112.869985,40.9236966 112.976807,40.8294492 113.254614,40.8294492 L113.585497,40.8294492 C113.873717,40.8294492 113.969791,40.9236966 113.969791,41.206439 L113.969791,45.6792382 C113.969791,45.9623101 113.873717,46.0667731 113.585497,46.0667731 L113.254614,46.0667731 C112.976807,46.0667731 112.869985,45.9623101 112.869985,45.6792382 L112.869985,43.9824546 L110.787945,43.9824546 L110.787945,45.6792382 C110.787945,45.9623101 110.691872,46.0667731 110.403651,46.0667731 L110.083182,46.0667731 C109.784213,46.0667731 109.67739,45.9623101 109.67739,45.6792382 L109.67739,41.206439 C109.67739,40.9236966 109.784213,40.8294492 110.083182,40.8294492 L110.403651,40.8294492 Z M116.073665,40.8294492 C116.361885,40.8294492 116.457959,40.9236966 116.457959,41.206439 L116.457959,41.7093117 C116.457959,42.3693733 116.404547,43.647316 116.351136,44.2441066 L117.835235,42.1910941 L118.593409,41.206439 C118.785556,40.9444574 118.881966,40.8294492 119.180935,40.8294492 L119.26626,40.8294492 C119.565229,40.8294492 119.661303,40.9236966 119.661303,41.206439 L119.661303,45.6792382 C119.661303,45.9623101 119.565229,46.0667731 119.26626,46.0667731 L118.96729,46.0667731 C118.679069,46.0667731 118.582996,45.9623101 118.582996,45.6792382 L118.582996,45.1763654 C118.582996,44.5271785 118.646821,43.2594515 118.689483,42.6415705 C118.29444,43.2070552 117.664587,44.0974629 117.216132,44.7051282 L116.447209,45.6792382 C116.265812,45.9412197 116.158989,46.0667731 115.881182,46.0667731 L115.774359,46.0667731 C115.486139,46.0667731 115.390065,45.9623101 115.390065,45.6792382 L115.390065,41.206439 C115.390065,40.9236966 115.486139,40.8294492 115.774359,40.8294492 L116.073665,40.8294492 Z M126.936348,40.8294492 C127.214154,40.8294492 127.320977,40.9236966 127.320977,41.206439 L127.320977,41.7093117 C127.320977,42.3693733 127.246067,43.647316 127.203405,44.2441066 C127.587699,43.6891671 128.23905,42.7882143 128.687505,42.1910941 L129.445678,41.206439 C129.627412,40.9444574 129.744649,40.8294492 130.011706,40.8294492 L130.129278,40.8294492 C130.406749,40.8294492 130.513572,40.9236966 130.513572,41.206439 L130.513572,45.6792382 C130.513572,45.9623101 130.406749,46.0667731 130.129278,46.0667731 L129.819559,46.0667731 C129.541752,46.0667731 129.434929,45.9623101 129.434929,45.6792382 L129.434929,45.1763654 C129.434929,44.5271785 129.49909,43.2594515 129.552502,42.6415705 C129.146709,43.2070552 128.516856,44.0974629 128.046903,44.7051282 L127.310228,45.6792382 C127.118081,45.9412197 127.011258,46.0667731 126.712288,46.0667731 L126.616215,46.0667731 C126.338408,46.0667731 126.231585,45.9623101 126.231585,45.6792382 L126.231585,41.206439 C126.231585,40.9236966 126.338408,40.8294492 126.616215,40.8294492 L126.936348,40.8294492 Z M84.1238664,40.8258243 C84.4013373,40.8258243 84.51891,40.9200717 84.51891,41.2028141 L84.51891,42.9417783 L84.9781141,42.9417783 L86.2485679,41.1191118 C86.419552,40.8676754 86.4622137,40.8258243 86.8253447,40.8258243 L87.3591232,40.8258243 C87.5835186,40.8258243 87.6046815,40.972468 87.5193576,41.1191118 L85.9818466,43.3082229 L87.6688424,45.6967036 C87.7864151,45.8641082 87.7541667,46.0631482 87.4874451,46.0631482 L86.9855788,46.0631482 C86.6116986,46.0631482 86.5690368,46.0212971 86.3980528,45.7698607 L85.127599,43.9995905 L84.51891,43.9995905 L84.51891,45.6756133 C84.51891,45.9583556 84.4013373,46.0631482 84.1238664,46.0631482 L83.7926483,46.0631482 C83.4936783,46.0631482 83.3868555,45.9583556 83.3868555,45.6756133 L83.3868555,41.2028141 C83.3868555,40.9200717 83.4936783,40.8258243 83.7926483,40.8258243 L84.1238664,40.8258243 Z M72.8372512,40.8258243 C73.1254716,40.8258243 73.221545,40.9200717 73.221545,41.2028141 L73.221545,42.9519939 L75.3039204,42.9519939 L75.3039204,41.2028141 C75.3039204,40.9200717 75.3999938,40.8258243 75.6882142,40.8258243 L76.008347,40.8258243 C76.3076528,40.8258243 76.4141398,40.9200717 76.4141398,41.2028141 L76.4141398,45.6756133 C76.4141398,45.9583556 76.3076528,46.0631482 76.008347,46.0631482 L75.6882142,46.0631482 C75.3999938,46.0631482 75.3039204,45.9583556 75.3039204,45.6756133 L75.3039204,43.9785002 L73.221545,43.9785002 L73.221545,45.6756133 C73.221545,45.9583556 73.1254716,46.0631482 72.8372512,46.0631482 L72.506033,46.0631482 C72.2178126,46.0631482 72.1217391,45.9583556 72.1217391,45.6756133 L72.1217391,41.2028141 C72.1217391,40.9200717 72.2178126,40.8258243 72.506033,40.8258243 L72.8372512,40.8258243 Z M95.9123481,43.5807496 C95.2502474,43.5807496 94.7591307,43.9158883 94.7591307,44.4500669 C94.7591307,44.9634848 95.2502474,45.3088391 95.9123481,45.3088391 C96.5744488,45.3088391 97.0867285,44.9634848 97.0867285,44.4500669 C97.0867285,43.9158883 96.5744488,43.5807496 95.9123481,43.5807496 Z M79.9060404,41.7159024 C78.9876319,41.7159024 78.667499,42.5015175 78.667499,43.4024704 L78.667499,43.5702045 C78.667499,44.4500669 79.0410433,45.2462272 79.9060404,45.2462272 C80.7495384,45.2462272 81.1338322,44.5232241 81.1338322,43.5702045 L81.1338322,43.4024704 C81.1338322,42.5015175 80.8136994,41.7159024 79.9060404,41.7159024 Z M63.0239862,41.7159024 C62.1163272,41.7159024 61.7854448,42.5015175 61.7854448,43.4024704 L61.7854448,43.5702045 C61.7854448,44.4500669 62.1697386,45.2462272 63.0239862,45.2462272 C63.8782337,45.2462272 64.2521139,44.5232241 64.2521139,43.5702045 L64.2521139,43.4024704 C64.2521139,42.5015175 63.9423946,41.7159024 63.0239862,41.7159024 Z M69.3668496,41.7580831 L68.0214853,41.7580831 C67.9573244,42.7216479 67.839752,44.1043831 67.6049431,45.0890383 L69.3668496,45.0890383 L69.3668496,41.7580831 Z M49.9198334,32.736435 C53.0299907,32.736435 55.5594189,35.2534478 55.5594189,38.3482622 C55.5594189,41.4417338 53.0299907,43.9577394 49.9198334,43.9577394 C46.809676,43.9577394 44.2799104,41.4417338 44.2799104,38.3482622 C44.2799104,35.2534478 46.809676,32.736435 49.9198334,32.736435 Z M49.9198334,36.0249691 C48.6328484,36.0249691 47.584769,37.0667579 47.584769,38.3482622 C47.584769,39.6280879 48.6328484,40.6705482 49.9198334,40.6705482 C51.2071557,40.6705482 52.2548978,39.6280879 52.2548978,38.3482622 C52.2548978,37.0667579 51.2071557,36.0249691 49.9198334,36.0249691 Z" id="Combined-Shape" fill="#FFFFFF"></path>
            </g>
        </g>
    </g>
</svg>