<?xml version="1.0" encoding="UTF-8"?>
<svg width="175px" height="89px" viewBox="0 0 175 89" version="1.1" xmlns="http://www.w3.org/2000/svg" xmlns:xlink="http://www.w3.org/1999/xlink">
    <!-- Generator: Sketch 63.1 (92452) - https://sketch.com -->
    <title>OKKO</title>
    <desc>Created with Sketch.</desc>
    <g id="Symbols" stroke="none" stroke-width="1" fill="none" fill-rule="evenodd">
        <g id="Partners-logos-/-Desktop" transform="translate(-187.000000, -202.000000)">
            <g id="OKKO" transform="translate(187.000000, 202.000000)">
                <g id="Bg-2" fill="#282D35" fill-rule="nonzero">
                    <rect id="Rectangle-Copy" x="0" y="0" width="175" height="89" rx="2.16383412"></rect>
                </g>
                <path d="M58.7114529,32.2655415 C59.2032838,32.0975166 59.9703101,32.2720173 60.396188,32.5563759 C60.9375423,32.9320901 61.2552198,33.5920473 61.2116814,34.242522 C61.1829297,34.7640581 60.9296796,35.2695203 60.5251601,35.6073046 C60.1229877,35.9464766 59.5784648,36.1173924 59.0509582,36.0607288 C58.5857667,36.0178264 58.13677,35.8043551 57.819914,35.4647206 C57.3361805,34.9806517 57.1654304,34.233849 57.357539,33.5856871 C57.5393204,32.9548712 58.0699956,32.4384232 58.7114529,32.2656571 L58.7114529,32.2655415 Z M64.8414429,32.3033557 C65.2830463,32.4570412 65.6642123,32.7721601 65.8942263,33.1742402 C66.1744678,33.6510237 66.2198839,34.2479571 66.0417404,34.7671804 C65.8585507,35.2978521 65.4295042,35.7393654 64.8978902,35.9391913 C64.3635771,36.1466493 63.7373758,36.1073317 63.2354524,35.8322243 C62.8453675,35.6237255 62.5341445,35.2791184 62.365272,34.8750725 C62.144881,34.3535363 62.1704642,33.736019 62.4375621,33.2355293 C62.6458656,32.8374966 63.0003922,32.518446 63.4177033,32.344061 C63.8121303,32.1792741 64.4534704,32.1682883 64.8414429,32.3033557 Z M69.9584326,32.3755151 C70.5650358,32.6564045 71.0169663,33.2617796 71.075526,33.9257842 C71.1381931,34.4929981 70.9372829,35.0853059 70.5239618,35.4876173 C70.1115796,35.9176822 69.4853783,36.1288408 68.891684,36.0574909 C68.3383596,35.9975894 67.8174249,35.6910279 67.5029159,35.2384132 C67.1577776,34.7535349 67.0589655,34.1094204 67.242742,33.5454444 C67.3741785,33.1198894 67.6660381,32.75227 68.0409844,32.5091948 C68.578466,32.160656 69.3825761,32.108965 69.9584326,32.3755151 Z M74.231177,32.3876573 C75.5359196,32.3981805 76.8412489,32.3904326 78.1459915,32.3918203 C78.1437618,35.14116 78.1459915,37.8908466 78.14517,40.6401863 C78.1502163,41.9264494 78.1349602,43.2127125 78.1530328,44.4979349 C78.2160519,44.4559576 78.2554829,44.3896959 78.2981998,44.3293318 C79.7560894,42.25001 81.2251277,40.1785516 82.6787926,38.0965701 C84.2722262,38.0906724 85.865073,38.095645 87.4583893,38.0937947 C87.4463018,38.1176165 87.4227136,38.1656071 87.4110956,38.189429 C85.3904932,41.0621565 83.3648445,43.9316461 81.3484668,46.807149 C83.6135178,49.2936391 85.8840844,51.7760818 88.1504262,54.2616467 C88.1592278,54.2799179 88.1774177,54.3169226 88.1862192,54.3356563 C86.4309544,54.3269833 84.6752201,54.3342686 82.9200726,54.3320715 C81.6755326,52.9680983 80.4286456,51.606438 79.1859833,50.2411928 C79.1354037,50.1890392 79.0945645,50.1168798 79.0162893,50.1054315 C78.7782953,50.4673845 78.520351,50.8170797 78.2722645,51.17221 C78.2221543,51.2531579 78.1349602,51.3248547 78.1445833,51.4291619 C78.1414147,52.3967213 78.1525634,53.3653215 78.1395371,54.3329966 C76.8310391,54.3288336 75.5220718,54.337044 74.213926,54.3288336 C74.213926,47.1463209 74.2134565,39.9636926 74.213926,32.7816425 C74.2158036,32.6500443 74.2013691,32.5170584 74.231177,32.3876573 Z M89.1746926,32.4146014 L89.1987502,32.3922829 C90.5007936,32.3927454 91.8028371,32.3904326 93.1048805,32.3935549 C93.1067582,36.4341302 93.0993649,40.474243 93.1086358,44.514934 C94.6287231,42.3866964 96.1204108,40.2366029 97.6334568,38.1029303 C99.0143622,38.0819994 100.398084,38.1002706 101.780398,38.0937947 C101.994217,38.1001549 102.208975,38.0796866 102.422324,38.1057056 C100.402309,40.9679099 98.3919162,43.8361275 96.3717832,46.6983318 C96.3514809,46.7394996 96.276257,46.7933878 96.327306,46.838603 C98.4954225,49.2136162 100.662013,51.5900171 102.830013,53.9650303 C102.931641,54.0865679 103.05545,54.1907595 103.140414,54.3260582 C101.388905,54.3384317 99.6359867,54.3320715 97.8844772,54.3288336 C97.6478914,54.1153622 97.4512059,53.859451 97.2299935,53.6294432 C96.1584335,52.4507252 95.0763116,51.2814897 94.0126143,50.0962959 C93.971423,50.1213898 93.9360994,50.1538846 93.911103,50.1945899 C93.6498728,50.5785145 93.3706875,50.9509908 93.1132126,51.3372282 C93.092793,52.3336976 93.1095747,53.3328267 93.1048805,54.3306838 C91.8826378,54.3347312 90.6603952,54.3302212 89.4381525,54.3329966 C89.3476725,54.3347312 89.2576619,54.3336292 89.1685902,54.3220108 C89.1802082,47.0196952 89.1676514,39.716917 89.1746926,32.4146014 Z M109.637605,37.6974966 C111.552823,37.609379 113.492686,38.164682 115.049388,39.269853 C116.478057,40.2712949 117.587639,41.7097402 118.174762,43.3384132 C118.87337,45.2453159 118.845558,47.3954094 118.101063,49.2849661 C117.488827,50.8573224 116.387107,52.2367913 114.98719,53.2007659 C113.357729,54.3320715 111.319524,54.8768513 109.333775,54.7100985 C107.55903,54.5760718 105.834042,53.8808444 104.473439,52.7496545 C102.726154,51.3212699 101.592983,49.1875972 101.410615,46.9560932 C101.257116,45.2256571 101.64767,43.4508152 102.535102,41.9479585 C103.621448,40.0867335 105.444779,38.6583489 107.535441,38.0481169 C108.217738,37.8451688 108.925618,37.7295289 109.637605,37.6974966 Z M109.767516,41.5717817 C109.226162,41.6028889 108.689971,41.7253516 108.191333,41.9351224 C107.04185,42.4119059 106.103487,43.3576094 105.645219,44.4997851 C105.195284,45.599521 105.202208,46.8715604 105.660945,47.9672489 C106.058071,48.9242851 106.78907,49.7420908 107.701028,50.2526411 C108.732218,50.8390513 109.995652,51.0122799 111.150651,50.7266493 C111.951827,50.5354964 112.696204,50.1269405 113.290485,49.5646991 C113.955179,48.9366585 114.429641,48.1143429 114.631021,47.2285409 C114.862912,46.2207388 114.739573,45.1360361 114.278841,44.2068691 C113.947316,43.5212399 113.438351,42.9196809 112.817314,42.4699572 C111.947133,41.8335905 110.849168,41.5114177 109.767516,41.5717817 Z M61.8206317,38.0106496 C63.4428171,37.5590756 65.1998423,37.5850946 66.8066542,38.0878971 C68.2923568,38.5527697 69.6449798,39.4221508 70.6733536,40.5767 C71.7680324,41.7943886 72.4958623,43.3283525 72.7365555,44.9381762 C73.0617437,47.0265179 72.567683,49.228765 71.3594055,50.9762003 C70.3403027,52.4725812 68.8263178,53.6354564 67.1030906,54.2406003 C64.8691385,55.0331965 62.3035437,54.8700285 60.1985637,53.7831287 C58.8803254,53.1092947 57.7433992,52.0951324 56.9340081,50.8678456 C56.1323625,49.670394 55.6635329,48.2683753 55.552516,46.8396438 C55.5180139,46.3947769 55.5218866,45.9096673 55.5620217,45.4672289 C55.7125869,43.8094147 56.3570955,42.1969313 57.4177416,40.8988729 C58.5329574,39.5158191 60.0947054,38.4882426 61.8206317,38.0106496 Z M63.8922832,41.5740945 C62.6157056,41.6462538 61.3846613,42.2637711 60.5696373,43.2336434 C59.779727,44.1524027 59.375677,45.3841994 59.4810609,46.5845421 C59.5585146,47.5745356 59.973596,48.5330751 60.6411059,49.2758305 C61.2390249,49.9504739 62.0400838,50.4491134 62.9158973,50.6895288 C64.0040043,50.9930837 65.204067,50.8910893 66.2212921,50.4025105 C67.2506047,49.9175166 68.0896863,49.0522985 68.5303508,48.0143143 C68.8963782,47.164592 68.9974201,46.20559 68.8085974,45.3010543 C68.5818693,44.1692862 67.9041495,43.1350025 66.9569848,42.4585088 C66.0811713,41.8236455 64.9772216,41.5045949 63.8922832,41.5740945 L63.8922832,41.5740945 Z" id="okko" fill="#FFFFFF"></path>
            </g>
        </g>
    </g>
</svg>