<svg width="175" height="89" viewBox="0 0 175 89" fill="none" xmlns="http://www.w3.org/2000/svg">
<path d="M172.836 0H2.16383C0.968781 0 0 0.968781 0 2.16383V86.8362C0 88.0312 0.968781 89 2.16383 89H172.836C174.031 89 175 88.0312 175 86.8362V2.16383C175 0.968781 174.031 0 172.836 0Z" fill="#282D35"/>
<path fill-rule="evenodd" clip-rule="evenodd" d="M32.8045 39.583C34.3322 39.583 35.4905 40.0854 36.2903 40.8802L34.722 42.685C34.3285 42.1219 33.6856 41.776 32.8045 41.776C31.2547 41.776 30.4346 42.8468 30.4346 44.2916C30.4346 45.7363 31.2547 46.8069 32.8045 46.8069C33.6247 46.8069 34.2381 46.505 34.6369 46.0086L35.9891 47.9737C35.2097 48.6095 34.1493 49 32.8045 49C29.6015 49 28 46.8069 28 44.2916C28 41.776 29.6015 39.583 32.8045 39.583ZM61.1171 39.4873C64.3202 39.4873 65.9216 41.6804 65.9216 44.196C65.9216 46.7113 64.3202 48.9044 61.1171 48.9044C57.914 48.9044 56.3143 46.7113 56.3143 44.196C56.3143 41.6804 57.914 39.4873 61.1171 39.4873ZM43.7148 39.7424L46.4432 43.9737L49.1715 39.7424H51.4141V48.7724H49.0442V43.9737L47.123 46.9406H45.7653L43.8423 43.9605V48.7724H41.4724V39.7424H43.7148ZM99.7278 39.5511C103.295 39.5511 104.444 42.3862 103.869 44.95H97.8083C98.0949 46.2139 99.4227 46.7377 100.84 46.7377C101.824 46.7377 102.704 46.5391 103.439 46.2139V48.1824C102.632 48.5254 101.573 48.7238 100.282 48.7238C97.5573 48.7238 95.2982 47.1531 95.2982 44.1375C95.2982 40.8692 97.7898 39.5511 99.7278 39.5511ZM86.9348 39.6786C89.1499 39.6786 90.8418 40.4009 90.8418 42.7746C90.8418 45.148 89.1499 45.8578 86.9348 45.8706H85.7564V48.7086H83.3864V39.6786H86.9348ZM127.639 39.6786V43.0972H128.765L130.803 39.6786H133.428L130.611 44.0776L133.557 48.7086H130.93L128.752 45.2257H127.639V48.7086H125.269V39.6786H127.639ZM111.172 39.6786V46.5802H113.478V39.6786H115.848V46.5802H118.155V39.6786H120.523V48.7086H108.802V39.6786H111.172ZM78.1892 39.6786V41.8071H75.4903V48.7086H73.1204V41.8071H71.0218L69.8822 39.6786H78.1892ZM143.106 39.6786L146.629 48.7084H144.196L143.684 47.2895H139.968L139.456 48.7084H137.021L140.544 39.6786H143.106ZM61.1171 41.6804C59.5672 41.6804 58.7471 42.7511 58.7471 44.196C58.7471 45.6407 59.5672 46.7113 61.1171 46.7113C62.6669 46.7113 63.487 45.6407 63.487 44.196C63.487 42.7511 62.6669 41.6804 61.1171 41.6804ZM141.826 41.8329C141.748 42.31 141.672 42.5296 141.595 42.7488L140.673 45.3544H142.978L142.057 42.7488C141.979 42.5296 141.903 42.31 141.826 41.8329ZM87.0495 41.7426H85.7564V43.8068H87.0495C87.7661 43.8068 88.4072 43.5872 88.4072 42.7746C88.4072 41.962 87.7661 41.7426 87.0495 41.7426ZM99.8164 41.4654C98.758 41.4654 97.8267 42.1332 97.7898 43.3249H101.629C101.717 42.729 101.377 41.4654 99.8164 41.4654ZM101.618 37C102.165 37 102.604 37.4164 102.604 37.9184C102.604 38.4203 102.165 38.8247 101.618 38.8247C101.057 38.8247 100.617 38.4203 100.617 37.9184C100.617 37.4164 101.057 37 101.618 37ZM98.0194 37C98.5663 37 99.0077 37.4164 99.0077 37.9184C99.0077 38.4203 98.5663 38.8247 98.0194 38.8247C97.4726 38.8247 97.0181 38.4203 97.0181 37.9184C97.0181 37.4164 97.4726 37 98.0194 37Z" fill="white"/>
</svg>
