<?xml version="1.0" encoding="UTF-8"?>
<svg width="175px" height="89px" viewBox="0 0 175 89" version="1.1" xmlns="http://www.w3.org/2000/svg" xmlns:xlink="http://www.w3.org/1999/xlink">
    <!-- Generator: Sketch 63.1 (92452) - https://sketch.com -->
    <title>SPB TV</title>
    <desc>Created with Sketch.</desc>
    <g id="Symbols" stroke="none" stroke-width="1" fill="none" fill-rule="evenodd">
        <g id="Partners-logos-/-Desktop" transform="translate(-374.000000, -202.000000)">
            <g id="SPB-TV" transform="translate(374.000000, 202.000000)">
                <g id="Bg-2" fill="#282D35" fill-rule="nonzero">
                    <rect id="Rectangle-Copy" x="0" y="0" width="175" height="89" rx="2.16383412"></rect>
                </g>
                <path d="M52.0861078,44.4834573 L52.0861078,50.3076922 L59.3395806,50.3076922 L59.3395806,52.8382776 L49.5445979,52.8382776 L49.5445979,44.4834573 L52.0861078,44.4834573 Z M70.3912701,44.4816625 L70.3912701,52.8382776 L60.6048385,52.8382776 L60.6048385,50.3145721 L67.8638085,50.3145721 L67.8638085,44.4816625 L70.3912701,44.4816625 Z M81.298507,38.1653693 C82.427558,38.1653693 83.6384552,38.5291036 84.4782957,39.3032354 L83.7514519,40.5837833 C83.1223351,40.0145512 82.1377367,39.6038545 81.2340684,39.6038545 C80.0714238,39.6038545 79.1836361,40.2200491 79.1836361,41.1844235 C79.1836361,43.5723269 84.6716117,42.9393814 84.6716117,46.5285651 C84.6716117,48.2844204 83.3651253,49.7061547 81.0401416,49.7061547 C79.667995,49.7061547 78.2796624,49.1847824 77.2947586,48.2359624 L78.1993431,47.051134 C78.893204,47.6993347 79.9904937,48.251816 81.0725136,48.251816 C82.2672248,48.251816 83.073777,47.620067 83.073777,46.6559917 C83.073777,44.1885214 77.5693101,44.7424983 77.5693101,41.2636912 C77.5693101,39.382204 79.1836361,38.1653693 81.298507,38.1653693 Z M89.7793686,38.3547145 C91.8615621,38.3547145 93.3464,39.7303838 93.3464,41.8499734 C93.3464,43.96717 91.8615621,45.390699 89.7793686,45.390699 L87.1960193,45.390699 L87.1960193,49.5177069 L85.5978793,49.5177069 L85.5978793,38.3547145 L89.7793686,38.3547145 Z M98.0388176,38.3547145 C99.9759478,38.3547145 101.347484,39.3980575 101.347484,41.2008753 C101.347484,42.2911807 100.798686,43.1619294 99.9273897,43.604034 L99.9273897,43.6366385 C101.138592,43.9833227 101.815962,45.0900799 101.815962,46.3389208 C101.815962,48.4423577 100.136586,49.5174078 98.1359337,49.5174078 L94.0512552,49.5174078 L94.0512552,38.3547145 L98.0388176,38.3547145 Z M116.156772,38.3547145 L118.99757,46.2443977 C119.191497,46.8450378 119.433677,47.7780042 119.433677,47.7780042 L119.433677,47.7780042 L119.466049,47.7780042 C119.466049,47.7780042 119.692042,46.8450378 119.901239,46.2443977 L119.901239,46.2443977 L122.758529,38.3547145 L124.45409,38.3547145 L120.289092,49.5177069 L118.610328,49.5177069 L114.952899,39.7148294 L110.717049,39.7148294 L110.717049,49.5177069 L109.1354,49.5177069 L109.1354,39.7148294 L105.212277,39.7148294 L105.212277,38.3547145 L116.156772,38.3547145 Z M66.4754759,38.6951172 L66.4754759,49.0711154 L53.3962589,49.0711154 L53.3962589,38.6951172 L66.4754759,38.6951172 Z M98.2165584,44.3476552 L95.6493952,44.3476552 L95.6493952,48.1584894 L98.2165584,48.1584894 C99.4430308,48.1584894 100.169875,47.3984164 100.169875,46.2443977 C100.169875,45.1220861 99.4109642,44.3476552 98.2165584,44.3476552 Z M89.5374945,39.7145303 L87.1960193,39.7145303 L87.1960193,44.0302851 L89.5210031,44.0302851 C90.8772691,44.0302851 91.7323793,43.19244 91.7323793,41.8496743 C91.7323793,40.5197709 90.8775745,39.7145303 89.5374945,39.7145303 Z M59.3359159,34.8899663 L59.3359159,37.4193551 L52.0821376,37.4193551 L52.0821376,43.2468805 L49.5406277,43.2468805 L49.5406277,34.8899663 L59.3359159,34.8899663 Z M70.3876054,34.8830864 L70.3876054,43.2310269 L67.8601437,43.2310269 L67.8601437,37.4121762 L60.6014791,37.4121762 L60.6014791,34.8830864 L70.3876054,34.8830864 Z M98.0223262,39.7145303 L95.6493952,39.7145303 L95.6493952,43.0503563 L98.0385122,43.0503563 C99.0716686,43.0503563 99.7169715,42.3390404 99.7169715,41.3591116 C99.7169715,40.3785846 99.1034299,39.7145303 98.0223262,39.7145303 Z" id="Combined-Shape" fill="#FFFFFF"></path>
            </g>
        </g>
    </g>
</svg>