<?xml version="1.0" encoding="UTF-8"?>
<svg width="175px" height="91px" viewBox="0 0 175 91" version="1.1" xmlns="http://www.w3.org/2000/svg" xmlns:xlink="http://www.w3.org/1999/xlink">
    <!-- Generator: Sketch 63.1 (92452) - https://sketch.com -->
    <title>Tele2</title>
    <desc>Created with Sketch.</desc>
    <g id="Symbols" stroke="none" stroke-width="1" fill="none" fill-rule="evenodd">
        <g id="Partners-logos-/-Desktop" transform="translate(-374.000000, -101.000000)">
            <g id="Tele2" transform="translate(374.000000, 101.000000)">
                <g id="Bg-2" fill="#282D35" fill-rule="nonzero">
                    <rect id="Rectangle-Copy" x="0" y="0" width="175" height="90.0113636" rx="2.16383412"></rect>
                </g>
                <path d="M54.4402502,40.6237832 L54.4402502,44.1495005 L64.0305451,43.1032334 L64.0305451,39.2868633 L54.4402502,40.6237832 Z M110.355251,32.2397759 C105.560103,33.2520922 103.205735,36.7515183 103.477072,42.4608577 L108.589892,42.0110084 C108.357168,38.7852595 109.351305,38.0203294 110.357755,37.5996695 L110.355251,32.2397759 Z M103.262089,51.433002 L103.264594,56.4467622 L119.768551,56.4467622 L119.768551,50.939472 L103.262089,51.433002 Z M117.542545,33.7967556 C116.010118,32.3602602 113.762197,31.771088 111.303886,32.1215688 L111.303886,37.3845782 C112.299066,37.3297185 113.106188,37.6965538 113.465814,38.4335366 C114.033117,39.5967687 113.447864,41.3421344 112.066551,42.9589421 C109.93447,45.4537117 104.265618,50.5606297 104.265618,50.5606297 L112.403635,50.2954401 C117.375986,45.4775187 119.1618,42.5525665 119.481351,38.9028456 C119.650415,36.971578 118.943687,35.1109035 117.542545,33.7967556 Z M81.471031,52.089662 L81.471031,56.4469692 L87.5886322,56.4469692 L87.5886322,51.9068654 L81.471031,52.089662 Z M76.470085,37.5526765 L76.470085,56.4471762 L80.6845717,56.4471762 L80.6845717,36.9651605 L76.470085,37.5526765 Z M94.6287786,51.6946723 L94.6287786,56.4467622 L101.696893,56.4467622 L101.696893,51.4835143 L94.6287786,51.6946723 Z M94.6287786,43.3295037 L94.6287786,48.1623304 L99.2611239,47.911425 L99.2611239,42.9359632 L94.6287786,43.3295037 Z M94.6287786,35.0154684 L94.6287786,39.7605196 L101.696893,38.9893789 L101.696893,34.0300644 L94.6287786,35.0154684 Z M88.8724727,35.8180758 L88.8724727,56.4467622 L93.7223049,56.4467622 L93.7223049,35.1417491 L88.8724727,35.8180758 Z M69.7144249,52.441592 L69.7144249,56.4467622 L75.056629,56.4467622 L75.056629,52.2815673 L69.7144249,52.441592 Z M69.7144249,45.4522625 L69.7144249,49.5143626 L73.2217661,49.3245274 L73.2217661,45.153122 L69.7144249,45.4522625 Z M69.7144249,38.4943998 L69.7144249,42.4830086 L75.056629,41.9004609 L75.056629,37.7497573 L69.7144249,38.4943998 Z M65.3252391,39.1063439 L65.3252391,56.4467622 L69.0252294,56.4467622 L69.0252294,38.591077 L65.3252391,39.1063439 Z M57.5000945,44.3641778 L57.5000945,56.4467622 L61.0114014,56.4467622 L61.0114014,44.0087285 L57.5000945,44.3641778 L57.5000945,44.3641778 Z" id="tele2_" fill="#FFFFFF"></path>
            </g>
        </g>
    </g>
</svg>