<?xml version="1.0" encoding="UTF-8"?>
<svg width="175px" height="89px" viewBox="0 0 175 89" version="1.1" xmlns="http://www.w3.org/2000/svg" xmlns:xlink="http://www.w3.org/1999/xlink">
    <!-- Generator: Sketch 63.1 (92452) - https://sketch.com -->
    <title>TTK</title>
    <desc>Created with Sketch.</desc>
    <g id="Symbols" stroke="none" stroke-width="1" fill="none" fill-rule="evenodd">
        <g id="Partners-logos-/-Desktop" transform="translate(-561.000000, 0.000000)">
            <g id="TTK" transform="translate(561.000000, 0.000000)">
                <g id="Bg-2" fill="#282D35" fill-rule="nonzero">
                    <rect id="Rectangle-Copy" x="0" y="0" width="175" height="89" rx="2.16383412"></rect>
                </g>
                <path d="M59.9283617,35.9942217 C65.1207939,35.9974498 70.3132261,35.9896648 75.5056583,35.9990068 C75.6057835,36.1002114 75.7074732,36.2014161 75.8091629,36.3026208 C75.8075985,38.3547405 75.8029051,40.4068602 75.8122918,42.4589798 C74.2603507,42.5056897 72.7084095,42.4496379 71.1580328,42.4932337 C71.1533394,45.5542863 71.1549039,48.6168958 71.1564683,51.6795054 C70.8654794,51.785381 70.5604103,51.8632308 70.2475189,51.8476609 C68.3357527,51.8243059 66.422422,51.8663448 64.5106557,51.8227489 C64.5372515,48.7118725 64.4887533,45.5994391 64.5043979,42.4885627 C62.9665369,42.4605368 61.4286758,42.4901197 59.8908147,42.4698788 C59.9127171,40.3118834 59.8423166,38.1507741 59.9283617,35.9942217 Z M77.3235571,35.9943358 C82.4940869,36.0021207 87.6646168,35.9818798 92.8351466,36.0036777 C93.0103657,36.0986545 93.1871493,36.1905172 93.3654974,36.2792659 C93.3733197,38.3391705 93.363933,40.3975182 93.3701908,42.4574228 C91.8464098,42.4979047 90.3210644,42.4667648 88.795719,42.4776638 C88.7988479,45.5169184 88.7863323,48.556173 88.8019769,51.5954276 C88.4202494,51.7355572 88.0244418,51.8663448 87.6114252,51.8461039 C85.7027879,51.8243059 83.7941506,51.8694588 81.8870777,51.8196349 C81.9027223,48.7056445 81.8917711,45.5916542 81.8933355,42.4776638 C80.3679901,42.4698788 78.8442092,42.4932337 77.3204282,42.4636508 C77.3251216,40.3072125 77.3204282,38.1507741 77.3235571,35.9943358 Z M94.703108,35.9803228 C96.8573651,35.9398409 99.014751,35.9616389 101.170573,35.9678669 C101.211248,37.9966316 101.061061,40.0347383 101.26444,42.0557181 C101.730648,41.6898242 102.11394,41.2382956 102.490974,40.78521 C103.913065,39.2391138 105.308561,37.6696626 106.72283,36.1173384 C106.912129,35.907144 107.229714,35.9865508 107.480027,35.9569679 C109.762569,35.9725378 112.043547,35.9413979 114.324526,35.9756518 C113.780095,36.7463645 113.054187,37.3598206 112.442484,38.0744814 C110.817013,39.9210777 109.035097,41.6368864 107.516009,43.5737884 C109.779778,46.306315 112.032596,49.0466265 114.31201,51.7666971 C114.183724,51.8616738 114.055439,51.9597645 113.928718,52.0562982 C111.724398,52.0360573 109.520079,52.0656402 107.315759,52.0453992 C107.077961,52.0718682 106.902742,51.9130546 106.758812,51.7526841 C105.119262,49.8079971 103.637721,47.7262946 101.86832,45.8921542 C101.69623,45.7193278 101.530398,45.5169184 101.286342,45.4484106 C101.214377,45.7535817 101.178395,46.0649807 101.172137,46.3794937 C101.150235,48.2712429 101.187782,50.162992 101.150235,52.0547412 C99.0945383,52.0422852 97.0372776,52.0594122 94.9815813,52.0453992 C94.9111808,51.9768915 94.7719441,51.8414329 94.7015436,51.7729251 C94.7015436,46.5087243 94.6984146,41.2445236 94.703108,35.9803228 L94.703108,35.9803228 Z" id="ttk_tv" fill="#FFFFFF"></path>
            </g>
        </g>
    </g>
</svg>