<?xml version="1.0" encoding="UTF-8"?>
<svg width="175px" height="89px" viewBox="0 0 175 89" version="1.1" xmlns="http://www.w3.org/2000/svg" xmlns:xlink="http://www.w3.org/1999/xlink">
    <!-- Generator: Sketch 63.1 (92452) - https://sketch.com -->
    <title>Voka</title>
    <desc>Created with Sketch.</desc>
    <g id="Symbols" stroke="none" stroke-width="1" fill="none" fill-rule="evenodd">
        <g id="Partners-logos-/-Desktop" transform="translate(-187.000000, 0.000000)">
            <g id="Voka" transform="translate(187.000000, 0.000000)">
                <g id="Bg-2" fill="#282D35" fill-rule="nonzero">
                    <rect id="Rectangle-Copy" x="0" y="0" width="175" height="89" rx="2.16383412"></rect>
                </g>
                <path d="M83.8959298,58.098152 C85.8624795,58.098152 87.3509006,59.5507836 87.3509006,61.5444678 C87.3509006,63.5201404 85.8624795,64.9631813 83.8959298,64.9634152 C81.9202573,64.9634152 80.4407251,63.5201404 80.4407251,61.5444678 C80.4407251,59.5507836 81.9202573,58.098152 83.8959298,58.098152 Z M76.0416608,58.2155322 L77.3677427,61.4992749 L78.6938246,58.2155322 L80.5974503,58.2155322 L77.3857544,64.9364678 L77.349731,64.9364678 L74.1380351,58.2155322 L76.0416608,58.2155322 Z M89.8919532,58.215462 L89.8919532,61.4002573 L91.7141754,58.215462 L93.7352281,58.215462 L91.7321871,61.4002573 L94.1590877,64.8463392 L92.1022456,64.8463392 L90.7670409,62.9244678 L89.4680936,64.8463392 L88.1778012,64.8463392 L88.1778012,58.215462 L89.8919532,58.215462 Z M97.5878363,58.098152 L100.907836,64.8462222 L98.9859649,64.8462222 L98.6795322,64.0700819 L96.4603509,64.0700819 L96.1534503,64.8462222 L94.2320468,64.8462222 L97.5518129,58.098152 L97.5878363,58.098152 Z M83.8959298,59.6590877 C82.8856374,59.6590877 82.1820117,60.4345263 82.1820117,61.5444678 C82.1820117,62.6359298 82.8856374,63.4029474 83.8959298,63.4029474 C84.9064561,63.4029474 85.6100819,62.6359298 85.6100819,61.5444678 C85.6100819,60.4345263 84.9064561,59.6590877 83.8959298,59.6590877 Z M97.5695906,61.2378012 L96.9653801,62.7893801 L98.174269,62.7893801 L97.5695906,61.2378012 Z M87.522807,25 C96.8355556,25 105.464327,29.7417544 114.045848,38.3232749 C105.464327,46.9045614 96.8355556,51.6463158 87.522807,51.6463158 C78.2102924,51.6463158 69.5812865,46.9045614 61,38.3232749 C69.5812865,29.7417544 78.2102924,25 87.522807,25 Z M87.522807,28.377076 C82.0299415,28.377076 77.5766082,32.8301754 77.5766082,38.3232749 C77.5766082,43.8161404 82.0299415,48.2694737 87.522807,48.2694737 C93.0159064,48.2694737 97.4690058,43.8161404 97.4690058,38.3232749 C97.4690058,32.8301754 93.0159064,28.377076 87.522807,28.377076 Z M84.6544795,33.3549708 L93.2593918,38.3231579 L84.6544795,43.291345 L84.6544795,33.3549708 Z" id="Combined-Shape" fill="#F2F2F2"></path>
            </g>
        </g>
    </g>
</svg>