<?xml version="1.0" encoding="UTF-8"?>
<svg width="175px" height="89px" viewBox="0 0 175 89" version="1.1" xmlns="http://www.w3.org/2000/svg" xmlns:xlink="http://www.w3.org/1999/xlink">
    <!-- Generator: Sketch 63.1 (92452) - https://sketch.com -->
    <title>Wink</title>
    <desc>Created with Sketch.</desc>
    <g id="Symbols" stroke="none" stroke-width="1" fill="none" fill-rule="evenodd">
        <g id="Partners-logos-/-Desktop" transform="translate(-1122.000000, 0.000000)" fill-rule="nonzero">
            <g id="Wink" transform="translate(1122.000000, 0.000000)">
                <g id="Bg-2" transform="translate(0.000000, -0.000000)" fill="#282D35">
                    <rect id="Rectangle-Copy" x="0" y="0" width="175" height="89" rx="2.16383412"></rect>
                </g>
                <path d="M57.433,34.833 C59.993,34.833 62.068,36.918 62.068,39.491 L62.068,50.342 C62.068,52.915 59.993,55 57.433,55 L46.635,55 C44.075,55 42,52.915 42,50.342 L42,39.491 C42,36.918 44.075,34.833 46.635,34.833 L57.433,34.833 Z M123.192,35.512 L123.192,45.994 L127.996,40.64 L131.497,40.64 L125.408,47.268 L131.942,54.866 L128.367,54.866 L123.192,48.77 L123.192,54.865 L120.139,54.865 L120.139,35.512 L123.192,35.512 Z M110.548,40.765 C110.757,40.756 111.325,40.765 111.449,40.765 C112.791,40.766 113.926,41.167 114.854,41.968 C115.782,42.77 116.246,43.963 116.246,45.548 L116.246,45.548 L116.246,54.865 L113.193,54.865 L113.193,45.935 C113.194,44.885 112.895,44.083 112.298,43.53 C111.775307,43.0174157 111.072086,42.7308117 110.34,42.732 C109.47,42.745 108.682,43.245 108.018,43.959 C107.236,44.797 106.846,45.898 106.846,47.262 L106.846,47.262 L106.846,54.865 L103.794,54.865 L103.794,41.152 L106.846,41.152 L106.846,42.355 C107.158,42.032 107.508,41.749 107.888,41.512 C108.688,41.015 109.574,40.807 110.548,40.765 Z M71.947,35.512 L75.861,50.082 C75.866,50.104 75.87,50.124 75.876,50.144 L75.876,50.144 L75.896,50.054 L79.672,35.512 L83.056,35.512 L86.832,50.054 L86.853,50.142 L86.867,50.082 L90.781,35.512 L93.971,35.512 L88.541,54.866 L85.241,54.866 L81.364,40.106 L77.487,54.865 L74.187,54.865 L68.757,35.512 L71.947,35.512 Z M99.571,41.152 L99.571,54.865 L96.519,54.865 L96.519,41.152 L99.571,41.152 Z M51.35,39.787 L48.69,42.497 L50.962,44.711 L48.689,47.041 L51.351,49.693 L56.435,44.74 L51.35,39.787 Z M97.592,33 L100.015,35.647 L97.574,38.17 L96.231,36.862 L97.441,35.612 L96.213,34.27 L97.592,33 Z" id="Combined-Shape" fill="#F2F2F2"></path>
            </g>
        </g>
    </g>
</svg>