<?xml version="1.0" encoding="UTF-8"?>
<svg width="102px" height="43px" viewBox="0 0 102 43" version="1.1" xmlns="http://www.w3.org/2000/svg" xmlns:xlink="http://www.w3.org/1999/xlink">
    <!-- Generator: Sketch 63.1 (92452) - https://sketch.com -->
    <title>LG</title>
    <desc>Created with Sketch.</desc>
    <g id="Footer" stroke="none" stroke-width="1" fill="none" fill-rule="evenodd">
        <g id="[PROD-812]-Assets" transform="translate(-56.000000, -686.000000)">
            <g id="LG" transform="translate(56.000000, 686.000000)">
                <rect id="backfround-copy" fill="#252930" x="0" y="0" width="102" height="42.5" rx="2.5051875"></rect>
                <path d="M41.8292898,14.875 C45.5633672,14.875 48.5960796,17.9587979 48.5960796,21.7657819 C48.5960796,25.5725875 45.5633672,28.6535313 41.8292898,28.6535313 C38.0894348,28.6535313 35.0625,25.5725875 35.0625,21.7657819 C35.0625,17.9587979 38.0894348,14.875 41.8292898,14.875 Z M41.8306172,15.9083898 C38.6731965,15.9083898 36.1035446,18.537917 36.1035446,21.7658045 C36.1035446,23.3336718 36.6991007,24.8032306 37.7778271,25.9083417 C38.8609781,27.0109181 40.298277,27.6201414 41.8306172,27.6201414 C43.3571168,27.6201414 44.7940618,27.0109181 45.875266,25.9083417 C46.9566471,24.8032306 47.555035,23.3336718 47.555035,21.7658045 L47.555035,21.5052778 L43.4656089,21.5052778 L43.4656089,22.0444359 L47.0095658,22.0444359 L47.0085205,22.1105549 L47.007088,22.1282607 C46.8269168,24.8877796 44.5738919,27.0733794 41.8306172,27.0733794 C40.4419892,27.0733794 39.1399072,26.5210049 38.1599387,25.5178233 C37.1767844,24.5188057 36.6350319,23.187929 36.6350319,21.7656235 C36.6350319,20.3514651 37.1767844,19.0137086 38.1599387,18.0116132 C39.1022161,17.0489304 40.3423056,16.5012029 41.6707884,16.4604941 L41.8306172,16.4580486 C41.8904383,16.4580486 42.0359203,16.4580486 42.1029978,16.4616696 L42.1029978,15.916537 L41.9339625,15.9102148 C41.8939355,15.909114 41.8565986,15.9083898 41.8306172,15.9083898 Z M62.885673,16.9417797 C64.147082,16.9417797 65.4962564,17.2845993 66.2651651,18.4165508 L66.2651651,18.4165508 L65.0027072,19.609412 C64.524718,18.9832452 63.9446272,18.6551589 62.9290312,18.6551589 C61.101518,18.6551589 60.5217769,19.7445275 60.5217769,21.5921238 C60.5217769,23.5295576 61.13054,24.4834513 62.9580533,24.4834513 C63.5238079,24.4834513 64.1184097,24.3645066 64.4233157,24.2452025 L64.4233157,24.2452025 L64.4233157,22.665681 L62.7695849,22.665681 L62.7695849,20.98087 L66.2938375,20.98087 L66.2938375,25.3631393 C65.5689863,25.8847354 64.2344977,26.2422883 62.8713369,26.2422883 C59.8974537,26.2422883 58.548629,24.6027554 58.548629,21.5770311 C58.548629,18.5365735 60.0422142,16.9417797 62.885673,16.9417797 Z M54.0967208,17.0745594 L54.0967208,24.3497732 L58.302816,24.3497732 L58.302816,26.1082509 L52.0662282,26.1082509 L52.0662282,17.0745594 L54.0967208,17.0745594 Z M42.2558832,18.6640961 L41.6557824,18.6640961 L41.6557824,24.8644352 L43.7378715,24.8644352 L43.7378715,24.3069224 L42.2558832,24.3069224 L42.2558832,18.6640961 Z M39.7472006,18.6640961 C39.2668598,18.6640961 38.8796635,19.0528624 38.8796635,19.5261835 C38.8796635,19.9995046 39.2668598,20.3864125 39.7472006,20.3864125 C40.2275415,20.3864125 40.6147378,19.9991329 40.6147378,19.5261835 C40.6147378,19.0528624 40.2275415,18.6640961 39.7472006,18.6640961 Z" id="Combined-Shape" fill="#F2F2F2" fill-rule="nonzero"></path>
            </g>
        </g>
    </g>
</svg>
