<?xml version="1.0" encoding="UTF-8"?>
<svg width="102px" height="43px" viewBox="0 0 102 43" version="1.1" xmlns="http://www.w3.org/2000/svg" xmlns:xlink="http://www.w3.org/1999/xlink">
    <!-- Generator: Sketch 63.1 (92452) - https://sketch.com -->
    <title>Philips</title>
    <desc>Created with Sketch.</desc>
    <g id="Footer" stroke="none" stroke-width="1" fill="none" fill-rule="evenodd">
        <g id="[PROD-812]-Assets" transform="translate(-56.000000, -839.000000)">
            <g id="Philips" transform="translate(56.000000, 839.000000)">
                <rect id="backfround-copy" fill="#252930" x="0" y="0" width="102" height="42.5" rx="2.5051875"></rect>
                <path d="M71.3827035,17 C72.425346,17 72.9972262,17.1023396 73.6349753,17.2399905 L73.6349753,17.2399905 L73.8377377,19.0140176 C73.2657522,18.7755072 72.425346,18.6038135 71.6533339,18.6038135 C70.9480324,18.6038135 70.5107307,18.8101842 70.5107307,19.2532681 C70.5107307,20.5501685 74.375,20.0380477 74.375,22.7693939 C74.375,24.8162912 72.6950293,25.5 70.6452042,25.5 C69.8381532,25.5 68.8288661,25.362349 68.0888414,25.0894787 L68.0888414,25.0894787 L67.8205259,23.2122663 C68.5593932,23.5880048 69.8040614,23.8603465 70.6103758,23.8603465 C71.5185448,23.8603465 71.8882941,23.5880048 71.8882941,23.0756726 C71.8882941,21.7436722 68.0556966,22.32557 68.0556966,19.45689 C68.0556966,17.7939775 69.4007464,17 71.3827035,17 Z M39.177268,17.1709536 L39.177268,20.4133634 L41.7324733,20.4133634 L41.7324733,17.1709536 L44.1862448,17.1709536 L44.1862448,25.3289407 L41.7324733,25.3289407 L41.7324733,22.1194107 L39.177268,22.1194107 L39.177268,25.3289407 L36.7220234,25.3289407 L36.7220234,17.1709536 L39.177268,17.1709536 Z M52.72457,17.1709536 L52.72457,23.6902387 L55.0768025,23.6902387 L54.7092629,25.3289407 L50.2709037,25.3289407 L50.2709037,17.1709536 L52.72457,17.1709536 Z M48.4560388,17.1709536 L48.4560388,25.3289407 L46.0010046,25.3289407 L46.0010046,17.1709536 L48.4560388,17.1709536 Z M58.4067557,17.1709536 L58.4067557,25.3289407 L55.9520372,25.3289407 L55.9520372,17.1709536 L58.4067557,17.1709536 Z M63.2476933,17 C65.7701747,17 67.3151458,17.8183995 67.3151458,20.1049702 C67.3151458,22.1881304 65.8697144,23.3822684 63.5855604,23.3822684 L63.5855604,23.3822684 L62.7106414,23.3822684 L62.7106414,25.3289407 L60.2551864,25.3289407 L60.2551864,17.1709536 C61.0953822,17.0675568 62.2716563,17 63.2476933,17 Z M31.6789547,17 C34.2016465,17 35.7468281,17.8183995 35.7468281,20.1049702 C35.7468281,22.1881304 34.3013967,23.3822684 32.0158748,23.3822684 L32.0158748,23.3822684 L31.1410611,23.3822684 L31.1410611,25.3289407 L28.6875,25.3289407 L28.6875,17.1709536 C29.5288532,17.0675568 30.7053378,17 31.6789547,17 Z M63.1131147,18.5361509 C62.9868486,18.5361509 62.8534274,18.5361509 62.7105362,18.5446088 L62.7105362,18.5446088 L62.7105362,21.9148372 L63.1131147,21.9148372 C64.3909278,21.9148372 64.8947296,21.1982487 64.8947296,20.1398587 C64.8947296,19.1158286 64.3226389,18.5361509 63.1131147,18.5361509 Z M31.5452179,18.5361509 C31.4189517,18.5361509 31.2839522,18.5361509 31.1410611,18.5446088 L31.1410611,18.5446088 L31.1410611,21.9148372 L31.5452179,21.9148372 C32.8228205,21.9148372 33.3268328,21.1982487 33.3268328,20.1398587 C33.3268328,19.1158286 32.754742,18.5361509 31.5452179,18.5361509 Z" id="Combined-Shape" fill="#F2F2F2" fill-rule="nonzero"></path>
            </g>
        </g>
    </g>
</svg>
